<svg width="1906" height="645" viewBox="0 0 1906 645" fill="none" xmlns="http://www.w3.org/2000/svg">
<path d="M1905.12 266.486C1898.92 248.903 1873.37 230.508 1858.44 218.982C1828.12 195.571 1795.12 174.658 1762.55 154.203C1690.1 108.695 1619.35 89.0787 1535.51 69.9898C1457.53 52.2343 1377.33 40.3251 1300.35 23.6847C1252.97 13.4436 1206.25 3.64523 1157.27 3.05135C1117.67 2.5712 1072.02 -2.4338 1033.22 5.21065C944.767 22.6398 864.704 68.8249 783.856 105.738C690.949 148.158 583.551 186.561 478.679 164.999C407.584 150.382 309.712 149.468 243.01 179.155C221.662 188.656 202.466 202.232 178.068 201.707C151.938 201.146 130.326 185.825 112.618 169.078C88.4539 146.224 66.419 121.065 42.0954 98.0607C28.2959 85.0096 20.0771 69.5263 0.999089 63.5118" stroke="#E2E2EC" stroke-linecap="round"/>
<path d="M1905.12 517.969C1898.92 490.027 1873.37 460.798 1858.44 442.481C1828.12 405.28 1795.12 372.048 1762.55 339.543C1690.1 267.228 1619.35 236.057 1535.51 205.723C1457.53 177.508 1377.33 158.584 1300.35 132.141C1252.97 115.868 1206.25 100.297 1157.27 99.3535C1117.67 98.5905 1072.02 90.6372 1033.22 102.785C944.766 130.481 864.704 203.872 783.856 262.53C690.949 329.937 583.551 390.963 478.679 356.699C407.584 333.472 309.712 332.019 243.01 379.193C221.662 394.291 202.466 415.864 178.068 415.031C151.938 414.138 130.325 389.792 112.618 363.181C88.4538 326.864 66.4188 286.885 42.0951 250.33C28.2957 229.591 20.077 204.987 0.998981 195.429" stroke="#E2E2EC" stroke-linecap="round"/>
<path d="M1905.12 643.852C1898.92 610.727 1873.37 576.076 1858.44 554.362C1828.12 510.26 1795.12 470.865 1762.55 432.33C1690.1 346.601 1619.35 309.649 1535.51 273.689C1457.53 240.241 1377.33 217.806 1300.35 186.459C1252.97 167.167 1206.25 148.708 1157.27 147.589C1117.67 146.685 1072.02 137.256 1033.22 151.657C944.766 184.49 864.704 271.494 783.856 341.032C690.949 420.943 583.551 493.287 478.679 452.669C407.584 425.133 309.712 423.41 243.01 479.335C221.662 497.233 202.466 522.808 178.068 521.82C151.938 520.762 130.325 491.9 112.618 460.352C88.4538 417.299 66.4188 369.905 42.0951 326.569C28.2957 301.983 20.077 272.816 0.998981 261.486" stroke="#E2E2EC" stroke-linecap="round"/>
<path d="M1905.12 409.098C1898.92 385.213 1873.37 360.226 1858.44 344.568C1828.12 312.767 1795.12 284.359 1762.55 256.573C1690.1 194.755 1619.35 168.109 1535.51 142.178C1457.53 118.059 1377.33 101.882 1300.35 79.2777C1252.97 65.3663 1206.25 52.0562 1157.27 51.2494C1117.67 50.5972 1072.02 43.7984 1033.22 54.1826C944.767 77.8583 864.704 140.596 783.856 190.739C690.949 248.361 583.551 300.528 478.679 271.239C407.584 251.383 309.712 250.141 243.01 290.467C221.662 303.373 202.466 321.815 178.068 321.103C151.938 320.34 130.326 299.528 112.618 276.779C88.4539 245.734 66.419 211.559 42.0954 180.31C28.2959 162.581 20.0771 141.549 0.999089 133.379" stroke="#E2E2EC" stroke-linecap="round"/>
</svg>
