<svg width="1920" height="1136" viewBox="0 0 1920 1136" fill="none" xmlns="http://www.w3.org/2000/svg">
<path d="M0 333.752C6.24906 349.257 32.0119 365.476 47.0663 375.64C77.6418 396.283 110.918 414.724 143.757 432.761C216.814 472.889 288.156 490.186 372.694 507.018C451.327 522.674 532.198 533.175 609.816 547.848C657.585 556.879 704.697 565.519 754.085 566.042C794.014 566.466 840.048 570.879 879.169 564.138C968.363 548.77 1049.09 508.045 1130.62 475.496C1224.3 438.091 1332.59 404.228 1438.34 423.241C1510.02 436.13 1608.71 436.936 1675.97 410.759C1697.5 402.381 1716.85 390.41 1741.45 390.872C1767.8 391.368 1789.6 404.877 1807.45 419.644C1831.82 439.796 1854.03 461.981 1878.56 482.265C1892.48 493.774 1900.76 507.426 1920 512.73" stroke="#E2E2EC" stroke-linecap="round"/>
<path d="M0 112C6.24906 136.639 32.0119 162.412 47.0663 178.564C77.6418 211.367 110.918 240.67 143.757 269.332C216.814 333.098 288.156 360.584 372.694 387.331C451.327 412.21 532.198 428.898 609.816 452.214C657.585 466.564 704.697 480.293 754.085 481.126C794.014 481.798 840.048 488.811 879.169 478.1C968.363 453.678 1049.09 388.964 1130.62 337.241C1224.3 277.802 1332.59 223.992 1438.34 254.204C1510.02 274.686 1608.71 275.967 1675.97 234.37C1697.5 221.057 1716.85 202.034 1741.45 202.769C1767.8 203.556 1789.6 225.023 1807.45 248.489C1831.82 280.512 1854.03 315.764 1878.56 347.998C1892.48 366.286 1900.76 387.981 1920 396.408" stroke="#E2E2EC" stroke-linecap="round"/>
<path d="M0 0.99999C6.24906 30.2086 32.0119 60.763 47.0663 79.9101C77.6418 118.798 110.918 153.536 143.757 187.515C216.814 263.108 288.156 295.692 372.694 327.401C451.327 356.895 532.198 376.677 609.816 404.318C657.585 421.33 704.697 437.606 754.085 438.592C794.014 439.39 840.048 447.704 879.169 435.006C968.363 406.054 1049.09 329.336 1130.62 268.019C1224.3 197.556 1332.59 133.764 1438.34 169.581C1510.02 193.861 1608.71 195.38 1675.97 146.067C1697.5 130.285 1716.85 107.734 1741.45 108.605C1767.8 109.538 1789.6 134.987 1807.45 162.806C1831.82 200.768 1854.03 242.559 1878.56 280.772C1892.48 302.451 1900.76 328.171 1920 338.161" stroke="#E2E2EC" stroke-linecap="round"/>
<path d="M0 208C6.24906 229.062 32.0119 251.094 47.0663 264.901C77.6418 292.943 110.918 317.992 143.757 342.494C216.814 397.003 288.156 420.499 372.694 443.364C451.327 464.632 532.198 478.896 609.816 498.828C657.585 511.095 704.697 522.832 754.085 523.543C794.014 524.118 840.048 530.113 879.169 520.956C968.363 500.08 1049.09 444.759 1130.62 400.544C1224.3 349.734 1332.59 303.735 1438.34 329.562C1510.02 347.07 1608.71 348.165 1675.97 312.606C1697.5 301.226 1716.85 284.964 1741.45 285.593C1767.8 286.265 1789.6 304.617 1807.45 324.676C1831.82 352.051 1854.03 382.186 1878.56 409.741C1892.48 425.373 1900.76 443.919 1920 451.123" stroke="#E2E2EC" stroke-linecap="round"/>
<path d="M1906.11 802.1C1899.9 786.595 1874.33 770.375 1859.38 760.211C1829.03 739.568 1795.99 721.128 1763.39 703.09C1690.86 662.963 1620.04 645.666 1536.11 628.834C1458.05 613.177 1377.76 602.676 1300.7 588.003C1253.28 578.973 1206.51 570.333 1157.48 569.809C1117.84 569.385 1072.14 564.972 1033.3 571.713C944.751 587.081 864.605 627.806 783.673 660.356C690.669 697.76 583.159 731.623 478.178 712.611C407.009 699.722 309.035 698.915 242.263 725.093C220.893 733.47 201.677 745.441 177.253 744.979C151.096 744.484 129.461 730.974 111.736 716.207C87.5458 696.055 65.4879 673.871 41.1389 653.586C27.3251 642.078 19.0977 628.425 -0.000187889 623.121" stroke="#E2E2EC" stroke-linecap="round"/>
<path d="M1906.11 1023.85C1899.9 999.213 1874.33 973.439 1859.38 957.288C1829.03 924.485 1795.99 895.181 1763.39 866.519C1690.86 802.753 1620.04 775.267 1536.11 748.52C1458.05 723.641 1377.76 706.954 1300.7 683.637C1253.28 669.287 1206.51 655.558 1157.48 654.726C1117.84 654.053 1072.14 647.04 1033.3 657.751C944.751 682.173 864.605 746.888 783.673 798.611C690.669 858.049 583.159 911.86 478.178 881.647C407.009 861.166 309.035 859.885 242.263 901.482C220.893 914.795 201.677 933.818 177.253 933.083C151.096 932.296 129.461 910.828 111.736 887.362C87.5459 855.339 65.4879 820.087 41.139 787.853C27.3251 769.566 19.0978 747.871 -6.69109e-05 739.443" stroke="#E2E2EC" stroke-linecap="round"/>
<path d="M1906.11 1134.85C1899.9 1105.64 1874.33 1075.09 1859.38 1055.94C1829.03 1017.05 1795.99 982.315 1763.39 948.337C1690.86 872.743 1620.04 840.159 1536.11 808.45C1458.05 778.957 1377.76 759.174 1300.7 731.533C1253.28 714.521 1206.51 698.245 1157.48 697.259C1117.84 696.461 1072.14 688.147 1033.3 700.846C944.751 729.797 864.605 806.515 783.673 867.832C690.669 938.295 583.159 1002.09 478.178 966.271C407.009 941.99 309.035 940.471 242.263 989.784C220.893 1005.57 201.677 1028.12 177.253 1027.25C151.096 1026.31 129.461 1000.86 111.736 973.046C87.5459 935.083 65.4879 893.292 41.139 855.079C27.3251 833.4 19.0978 807.681 -6.69109e-05 797.69" stroke="#E2E2EC" stroke-linecap="round"/>
<path d="M1906.11 927.851C1899.9 906.789 1874.33 884.757 1859.38 870.95C1829.03 842.909 1795.99 817.859 1763.39 793.358C1690.86 738.848 1620.04 715.352 1536.11 692.487C1458.05 671.22 1377.76 656.955 1300.7 637.023C1253.28 624.756 1206.51 613.02 1157.48 612.308C1117.84 611.733 1072.14 605.738 1033.3 614.895C944.751 635.771 864.605 691.092 783.673 735.307C690.669 786.117 583.159 832.117 478.178 806.29C407.009 788.781 309.035 787.686 242.263 823.245C220.893 834.626 201.677 850.887 177.253 850.259C151.096 849.586 129.461 831.235 111.736 811.175C87.5458 783.801 65.4879 753.666 41.1389 726.111C27.3251 710.478 19.0977 691.932 -0.000187889 684.728" stroke="#E2E2EC" stroke-linecap="round"/>
</svg>
