<svg width="1922" height="1274" viewBox="0 0 1922 1274" fill="none" xmlns="http://www.w3.org/2000/svg">
<path d="M1 653.689C4.51445 642.609 24.7329 632.059 38.5141 623.154C60.1363 609.181 77.169 594.244 101.339 581.015C153.597 552.414 217.523 527.344 294.333 513.431C364.433 500.734 439.602 498.367 510.379 487.375C534.162 483.681 557.261 481.492 581.791 479.232C658.719 472.145 714.14 434.14 764.842 410.426C785.754 400.645 799.425 385.887 815.463 374.395C840.285 356.609 863.209 334.977 896.141 320.144C907.253 315.14 914.994 308.427 924.616 302.739C938.473 294.548 961.36 289.515 981.113 284.622C1014.6 276.327 1050.11 267.893 1087.1 263.349C1134.41 257.538 1178.31 250.626 1228.34 250.626C1284.91 250.626 1338.09 242.089 1388.34 231.287C1440.71 220.031 1488.72 200.805 1528.46 181.821C1554.92 169.178 1579.78 155.828 1606.42 143.245C1623.61 135.129 1639.57 124.011 1659.31 117.493C1713.61 99.5577 1768.2 82.9912 1825.63 67.3142C1857.27 58.6776 1883.58 52.7592 1921 52.7592" stroke="#F5F5F5" stroke-opacity="0.89" stroke-linecap="round"/>
<path d="M1 653.689C4.51445 642.609 24.7329 632.059 38.5141 623.154C60.1363 609.181 77.169 594.244 101.339 581.015C153.597 552.414 217.523 527.344 294.333 513.431C364.433 500.734 439.602 498.367 510.379 487.375C534.162 483.681 557.261 481.492 581.791 479.232C658.719 472.145 714.14 434.14 764.842 410.426C785.754 400.645 799.425 385.887 815.463 374.395C840.285 356.609 863.209 334.977 896.141 320.144C907.253 315.14 914.994 308.427 924.616 302.739C938.473 294.548 961.36 289.515 981.113 284.622C1014.6 276.327 1050.11 267.893 1087.1 263.349C1134.41 257.538 1178.31 250.626 1228.34 250.626C1284.91 250.626 1338.09 242.089 1388.34 231.287C1440.71 220.031 1488.72 200.805 1528.46 181.821C1554.92 169.178 1579.78 155.828 1606.42 143.245C1623.61 135.129 1639.57 124.011 1659.31 117.493C1713.61 99.5577 1768.2 82.9912 1825.63 67.3142C1857.27 58.6776 1883.58 52.7592 1921 52.7592" stroke="#F5F5F5" stroke-opacity="0.89" stroke-linecap="round"/>
<path d="M1 684.737C4.51445 673.657 24.7329 663.107 38.5141 654.202C60.1363 640.229 77.169 625.292 101.339 612.063C153.597 583.462 217.523 558.392 294.333 544.479C364.433 531.782 439.602 529.415 510.379 518.423C534.162 514.729 557.261 512.54 581.791 510.28C658.719 503.193 714.14 465.188 764.842 441.474C785.754 431.693 799.425 416.935 815.463 405.443C840.285 387.657 863.209 366.025 896.141 351.192C907.253 346.188 914.994 339.475 924.616 333.787C938.473 325.596 961.36 320.563 981.113 315.67C1014.6 307.375 1050.11 298.941 1087.1 294.397C1134.41 288.586 1178.31 281.674 1228.34 281.674C1284.91 281.674 1338.09 273.137 1388.34 262.335C1440.71 251.08 1488.72 231.853 1528.46 212.869C1554.92 200.227 1579.78 186.876 1606.42 174.293C1623.61 166.177 1639.57 155.059 1659.31 148.542C1713.61 130.606 1768.2 114.039 1825.63 98.3623C1857.27 89.7257 1883.58 83.8073 1921 83.8073" stroke="#F5F5F5" stroke-opacity="0.89" stroke-linecap="round"/>
<path d="M1 684.737C4.51445 673.657 24.7329 663.107 38.5141 654.202C60.1363 640.229 77.169 625.292 101.339 612.063C153.597 583.462 217.523 558.392 294.333 544.479C364.433 531.782 439.602 529.415 510.379 518.423C534.162 514.729 557.261 512.54 581.791 510.28C658.719 503.193 714.14 465.188 764.842 441.474C785.754 431.693 799.425 416.935 815.463 405.443C840.285 387.657 863.209 366.025 896.141 351.192C907.253 346.188 914.994 339.475 924.616 333.787C938.473 325.596 961.36 320.563 981.113 315.67C1014.6 307.375 1050.11 298.941 1087.1 294.397C1134.41 288.586 1178.31 281.674 1228.34 281.674C1284.91 281.674 1338.09 273.137 1388.34 262.335C1440.71 251.08 1488.72 231.853 1528.46 212.869C1554.92 200.227 1579.78 186.876 1606.42 174.293C1623.61 166.177 1639.57 155.059 1659.31 148.542C1713.61 130.606 1768.2 114.039 1825.63 98.3623C1857.27 89.7257 1883.58 83.8073 1921 83.8073" stroke="#F5F5F5" stroke-opacity="0.89" stroke-linecap="round"/>
<path d="M1 716.119C4.51445 705.032 24.7329 694.477 38.5141 685.567C60.1363 671.586 77.169 656.641 101.339 643.405C153.597 614.787 217.523 589.704 294.333 575.783C364.433 563.078 439.602 560.71 510.379 549.712C534.162 546.016 557.261 543.826 581.791 541.565C658.719 534.474 714.14 496.448 764.842 472.721C785.754 462.934 799.425 448.168 815.463 436.67C840.285 418.874 863.209 397.229 896.141 382.389C907.253 377.382 914.994 370.665 924.616 364.974C938.473 356.778 961.36 351.743 981.113 346.847C1014.6 338.547 1050.11 330.109 1087.1 325.562C1134.41 319.748 1178.31 312.832 1228.34 312.832C1284.91 312.832 1338.09 304.29 1388.34 293.482C1440.71 282.22 1488.72 262.983 1528.46 243.988C1554.92 231.339 1579.78 217.981 1606.42 205.391C1623.61 197.271 1639.57 186.146 1659.31 179.625C1713.61 161.68 1768.2 145.104 1825.63 129.418C1857.27 120.777 1883.58 114.855 1921 114.855" stroke="#F5F5F5" stroke-opacity="0.89" stroke-linecap="round"/>
<path d="M1 716.119C4.51445 705.032 24.7329 694.477 38.5141 685.567C60.1363 671.586 77.169 656.641 101.339 643.405C153.597 614.787 217.523 589.704 294.333 575.783C364.433 563.078 439.602 560.71 510.379 549.712C534.162 546.016 557.261 543.826 581.791 541.565C658.719 534.474 714.14 496.448 764.842 472.721C785.754 462.934 799.425 448.168 815.463 436.67C840.285 418.874 863.209 397.229 896.141 382.389C907.253 377.382 914.994 370.665 924.616 364.974C938.473 356.778 961.36 351.743 981.113 346.847C1014.6 338.547 1050.11 330.109 1087.1 325.562C1134.41 319.748 1178.31 312.832 1228.34 312.832C1284.91 312.832 1338.09 304.29 1388.34 293.482C1440.71 282.22 1488.72 262.983 1528.46 243.988C1554.92 231.339 1579.78 217.981 1606.42 205.391C1623.61 197.271 1639.57 186.146 1659.31 179.625C1713.61 161.68 1768.2 145.104 1825.63 129.418C1857.27 120.777 1883.58 114.855 1921 114.855" stroke="#F5F5F5" stroke-opacity="0.89" stroke-linecap="round"/>
<path d="M1 747.167C4.51445 736.08 24.7329 725.525 38.5141 716.615C60.1363 702.634 77.169 687.689 101.339 674.453C153.597 645.835 217.523 620.752 294.333 606.831C364.433 594.127 439.602 591.758 510.379 580.76C534.162 577.064 557.261 574.874 581.791 572.613C658.719 565.522 714.14 527.496 764.842 503.769C785.754 493.983 799.425 479.216 815.463 467.718C840.285 449.922 863.209 428.277 896.141 413.437C907.253 408.43 914.994 401.713 924.616 396.022C938.473 387.826 961.36 382.791 981.113 377.895C1014.6 369.595 1050.11 361.157 1087.1 356.61C1134.41 350.796 1178.31 343.88 1228.34 343.88C1284.91 343.88 1338.09 335.338 1388.34 324.531C1440.71 313.268 1488.72 294.031 1528.46 275.036C1554.92 262.387 1579.78 249.029 1606.42 236.439C1623.61 228.319 1639.57 217.195 1659.31 210.673C1713.61 192.728 1768.2 176.152 1825.63 160.466C1857.27 151.825 1883.58 145.903 1921 145.903" stroke="#F5F5F5" stroke-opacity="0.89" stroke-linecap="round"/>
<path d="M1 747.167C4.51445 736.08 24.7329 725.525 38.5141 716.615C60.1363 702.634 77.169 687.689 101.339 674.453C153.597 645.835 217.523 620.752 294.333 606.831C364.433 594.127 439.602 591.758 510.379 580.76C534.162 577.064 557.261 574.874 581.791 572.613C658.719 565.522 714.14 527.496 764.842 503.769C785.754 493.983 799.425 479.216 815.463 467.718C840.285 449.922 863.209 428.277 896.141 413.437C907.253 408.43 914.994 401.713 924.616 396.022C938.473 387.826 961.36 382.791 981.113 377.895C1014.6 369.595 1050.11 361.157 1087.1 356.61C1134.41 350.796 1178.31 343.88 1228.34 343.88C1284.91 343.88 1338.09 335.338 1388.34 324.531C1440.71 313.268 1488.72 294.031 1528.46 275.036C1554.92 262.387 1579.78 249.029 1606.42 236.439C1623.61 228.319 1639.57 217.195 1659.31 210.673C1713.61 192.728 1768.2 176.152 1825.63 160.466C1857.27 151.825 1883.58 145.903 1921 145.903" stroke="#F5F5F5" stroke-opacity="0.89" stroke-linecap="round"/>
<path d="M1 778.215C4.51445 767.128 24.7329 756.573 38.5141 747.663C60.1363 733.682 77.169 718.737 101.339 705.501C153.597 676.884 217.523 651.8 294.333 637.879C364.433 625.175 439.602 622.806 510.379 611.808C534.162 608.112 557.261 605.922 581.791 603.661C658.719 596.57 714.14 558.544 764.842 534.817C785.754 525.031 799.425 510.264 815.463 498.766C840.285 480.97 863.209 459.326 896.141 444.485C907.253 439.478 914.994 432.761 924.616 427.07C938.473 418.874 961.36 413.839 981.113 408.943C1014.6 400.644 1050.11 392.205 1087.1 387.658C1134.41 381.844 1178.31 374.928 1228.34 374.928C1284.91 374.928 1338.09 366.387 1388.34 355.579C1440.71 344.316 1488.72 325.079 1528.46 306.084C1554.92 293.435 1579.78 280.077 1606.42 267.487C1623.61 259.367 1639.57 248.243 1659.31 241.722C1713.61 223.776 1768.2 207.2 1825.63 191.514C1857.27 182.873 1883.58 176.951 1921 176.951" stroke="#F5F5F5" stroke-opacity="0.89" stroke-linecap="round"/>
<path d="M1 778.215C4.51445 767.128 24.7329 756.573 38.5141 747.663C60.1363 733.682 77.169 718.737 101.339 705.501C153.597 676.884 217.523 651.8 294.333 637.879C364.433 625.175 439.602 622.806 510.379 611.808C534.162 608.112 557.261 605.922 581.791 603.661C658.719 596.57 714.14 558.544 764.842 534.817C785.754 525.031 799.425 510.264 815.463 498.766C840.285 480.97 863.209 459.326 896.141 444.485C907.253 439.478 914.994 432.761 924.616 427.07C938.473 418.874 961.36 413.839 981.113 408.943C1014.6 400.644 1050.11 392.205 1087.1 387.658C1134.41 381.844 1178.31 374.928 1228.34 374.928C1284.91 374.928 1338.09 366.387 1388.34 355.579C1440.71 344.316 1488.72 325.079 1528.46 306.084C1554.92 293.435 1579.78 280.077 1606.42 267.487C1623.61 259.367 1639.57 248.243 1659.31 241.722C1713.61 223.776 1768.2 207.2 1825.63 191.514C1857.27 182.873 1883.58 176.951 1921 176.951" stroke="#F5F5F5" stroke-opacity="0.89" stroke-linecap="round"/>
<path d="M1 809.263C4.51445 798.177 24.7329 787.621 38.5141 778.711C60.1363 764.731 77.169 749.785 101.339 736.549C153.597 707.932 217.523 682.848 294.333 668.927C364.433 656.223 439.602 653.855 510.379 642.856C534.162 639.16 557.261 636.97 581.791 634.709C658.719 627.618 714.14 589.592 764.842 565.865C785.754 556.079 799.425 541.312 815.463 529.814C840.285 512.018 863.209 490.374 896.141 475.533C907.253 470.526 914.994 463.81 924.616 458.118C938.473 449.922 961.36 444.887 981.113 439.991C1014.6 431.692 1050.11 423.253 1087.1 418.706C1134.41 412.892 1178.31 405.976 1228.34 405.976C1284.91 405.976 1338.09 397.435 1388.34 386.627C1440.71 375.365 1488.72 356.127 1528.46 337.133C1554.92 324.483 1579.78 311.125 1606.42 298.535C1623.61 290.415 1639.57 279.291 1659.31 272.77C1713.61 254.824 1768.2 238.248 1825.63 222.563C1857.27 213.921 1883.58 207.999 1921 207.999" stroke="#F5F5F5" stroke-opacity="0.89" stroke-linecap="round"/>
<path d="M8.19935 203.284C32.544 201.026 61.4284 206.031 84.701 208.862C121.214 213.304 158.192 215.473 194.012 221.247C271.459 233.73 345.472 252.356 400.526 280.219C450.77 305.647 481.14 336.72 528.049 363.013C543.813 371.848 556.2 380.902 569.219 390.539C610.048 420.761 708.216 431.405 774.922 444.882C802.436 450.44 837.903 451.245 867.343 454.158C912.908 458.666 965.87 461.069 1008.01 470.015C1022.22 473.034 1038.87 474.046 1054.01 476.201C1075.82 479.306 1094.07 487.308 1110.98 494.029C1139.64 505.421 1169.28 517.626 1191.28 531.775C1219.43 549.868 1248.72 566.145 1265.64 587.361C1284.77 611.347 1320.6 631.01 1360.17 648.664C1401.4 667.059 1457.82 680.912 1510.94 691.341C1546.31 698.287 1582.62 704.313 1617.93 711.352C1640.7 715.891 1669.33 718.901 1689.63 725.063C1745.48 742.022 1798.56 759.566 1850.75 778.616C1879.5 789.11 1900.76 798.263 1913.42 814.13" stroke="#F5F5F5" stroke-opacity="0.89" stroke-linecap="round"/>
<path d="M8.19935 226.609C32.544 224.351 61.4284 229.355 84.701 232.186C121.214 236.628 158.192 238.797 194.012 244.571C271.459 257.054 345.472 275.68 400.526 303.543C450.77 328.972 481.14 360.044 528.049 386.337C543.813 395.173 556.2 404.227 569.219 413.863C610.048 444.086 708.216 454.729 774.922 468.206C802.436 473.765 837.903 474.569 867.343 477.482C912.908 481.991 965.87 484.393 1008.01 493.34C1022.22 496.358 1038.87 497.37 1054.01 499.526C1075.82 502.63 1094.07 510.633 1110.98 517.353C1139.64 528.746 1169.28 540.95 1191.28 555.099C1219.43 573.192 1248.72 589.469 1265.64 610.686C1284.77 634.671 1320.6 654.334 1360.17 671.988C1401.4 690.383 1457.82 704.236 1510.94 714.666C1546.31 721.611 1582.62 727.637 1617.93 734.676C1640.7 739.216 1669.33 742.225 1689.63 748.388C1745.48 765.346 1798.56 782.891 1850.75 801.94C1879.5 812.435 1900.76 821.588 1913.42 837.455" stroke="#F5F5F5" stroke-opacity="0.89" stroke-linecap="round"/>
<path d="M8.19935 249.933C32.544 247.675 61.4284 252.68 84.701 255.511C121.214 259.952 158.192 262.121 194.012 267.895C271.459 280.379 345.472 299.004 400.526 326.867C450.77 352.296 481.14 383.369 528.049 409.662C543.813 418.497 556.2 427.551 569.219 437.188C610.048 467.41 708.216 478.054 774.922 491.53C802.436 497.089 837.903 497.893 867.343 500.806C912.908 505.315 965.87 507.717 1008.01 516.664C1022.22 519.683 1038.87 520.694 1054.01 522.85C1075.82 525.955 1094.07 533.957 1110.98 540.678C1139.64 552.07 1169.28 564.275 1191.28 578.423C1219.43 596.517 1248.72 612.793 1265.64 634.01C1284.77 657.996 1320.6 677.659 1360.17 695.312C1401.4 713.708 1457.82 727.561 1510.94 737.99C1546.31 744.935 1582.62 750.961 1617.93 758C1640.7 762.54 1669.33 765.549 1689.63 771.712C1745.48 788.671 1798.56 806.215 1850.75 825.264C1879.5 835.759 1900.76 844.912 1913.42 860.779" stroke="#F5F5F5" stroke-opacity="0.89" stroke-linecap="round"/>
<path d="M8.19935 273.257C32.544 270.999 61.4284 276.004 84.701 278.835C121.214 283.276 158.192 285.446 194.012 291.219C271.459 303.703 345.472 322.329 400.526 350.191C450.77 375.62 481.14 406.693 528.049 432.986C543.813 441.821 556.2 450.875 569.219 460.512C610.048 490.734 708.216 501.378 774.922 514.855C802.436 520.413 837.903 521.218 867.343 524.131C912.908 528.639 965.87 531.042 1008.01 539.988C1022.22 543.007 1038.87 544.018 1054.01 546.174C1075.82 549.279 1094.07 557.281 1110.98 564.002C1139.64 575.394 1169.28 587.599 1191.28 601.748C1219.43 619.841 1248.72 636.117 1265.64 657.334C1284.77 681.32 1320.6 700.983 1360.17 718.636C1401.4 737.032 1457.82 750.885 1510.94 761.314C1546.31 768.26 1582.62 774.285 1617.93 781.324C1640.7 785.864 1669.33 788.874 1689.63 795.036C1745.48 811.995 1798.56 829.539 1850.75 848.589C1879.5 859.083 1900.76 868.236 1913.42 884.103" stroke="#F5F5F5" stroke-opacity="0.89" stroke-linecap="round"/>
<path d="M8.19935 296.582C32.544 294.324 61.4284 299.328 84.701 302.159C121.214 306.601 158.192 308.77 194.012 314.544C271.459 327.027 345.472 345.653 400.526 373.516C450.77 398.944 481.14 430.017 528.049 456.31C543.813 465.145 556.2 474.199 569.219 483.836C610.048 514.059 708.216 524.702 774.922 538.179C802.436 543.738 837.903 544.542 867.343 547.455C912.908 551.964 965.87 554.366 1008.01 563.312C1022.22 566.331 1038.87 567.343 1054.01 569.499C1075.82 572.603 1094.07 580.605 1110.98 587.326C1139.64 598.719 1169.28 610.923 1191.28 625.072C1219.43 643.165 1248.72 659.442 1265.64 680.659C1284.77 704.644 1320.6 724.307 1360.17 741.961C1401.4 760.356 1457.82 774.209 1510.94 784.639C1546.31 791.584 1582.62 797.61 1617.93 804.649C1640.7 809.189 1669.33 812.198 1689.63 818.361C1745.48 835.319 1798.56 852.863 1850.75 871.913C1879.5 882.408 1900.76 891.56 1913.42 907.427" stroke="#F5F5F5" stroke-opacity="0.89" stroke-linecap="round"/>
<path d="M8.19935 319.906C32.544 317.648 61.4284 322.652 84.701 325.483C121.214 329.925 158.192 332.094 194.012 337.868C271.459 350.351 345.472 368.977 400.526 396.84C450.77 422.269 481.14 453.341 528.049 479.634C543.813 488.47 556.2 497.524 569.219 507.16C610.048 537.383 708.216 548.026 774.922 561.503C802.436 567.062 837.903 567.866 867.343 570.779C912.908 575.288 965.87 577.69 1008.01 586.637C1022.22 589.655 1038.87 590.667 1054.01 592.823C1075.82 595.927 1094.07 603.93 1110.98 610.65C1139.64 622.043 1169.28 634.247 1191.28 648.396C1219.43 666.489 1248.72 682.766 1265.64 703.983C1284.77 727.968 1320.6 747.631 1360.17 765.285C1401.4 783.68 1457.82 797.533 1510.94 807.963C1546.31 814.908 1582.62 820.934 1617.93 827.973C1640.7 832.513 1669.33 835.522 1689.63 841.685C1745.48 858.643 1798.56 876.188 1850.75 895.237C1879.5 905.732 1900.76 914.885 1913.42 930.752" stroke="#F5F5F5" stroke-opacity="0.89" stroke-linecap="round"/>
<path d="M8.19935 343.23C32.544 340.972 61.4284 345.976 84.701 348.807C121.214 353.249 158.192 355.418 194.012 361.192C271.459 373.675 345.472 392.301 400.526 420.164C450.77 445.593 481.14 476.666 528.049 502.958C543.813 511.794 556.2 520.848 569.219 530.485C610.048 560.707 708.216 571.35 774.922 584.827C802.436 590.386 837.903 591.19 867.343 594.103C912.908 598.612 965.87 601.014 1008.01 609.961C1022.22 612.979 1038.87 613.991 1054.01 616.147C1075.82 619.252 1094.07 627.254 1110.98 633.974C1139.64 645.367 1169.28 657.572 1191.28 671.72C1219.43 689.813 1248.72 706.09 1265.64 727.307C1284.77 751.292 1320.6 770.956 1360.17 788.609C1401.4 807.005 1457.82 820.858 1510.94 831.287C1546.31 838.232 1582.62 844.258 1617.93 851.297C1640.7 855.837 1669.33 858.846 1689.63 865.009C1745.48 881.968 1798.56 899.512 1850.75 918.561C1879.5 929.056 1900.76 938.209 1913.42 954.076" stroke="#F5F5F5" stroke-opacity="0.89" stroke-linecap="round"/>
<path d="M8.19935 366.554C32.544 364.296 61.4284 369.3 84.701 372.131C121.214 376.573 158.192 378.742 194.012 384.516C271.459 397 345.472 415.625 400.526 443.488C450.77 468.917 481.14 499.99 528.049 526.283C543.813 535.118 556.2 544.172 569.219 553.809C610.048 584.031 708.216 594.675 774.922 608.151C802.436 613.71 837.903 614.514 867.343 617.427C912.908 621.936 965.87 624.338 1008.01 633.285C1022.22 636.303 1038.87 637.315 1054.01 639.471C1075.82 642.576 1094.07 650.578 1110.98 657.298C1139.64 668.691 1169.28 680.896 1191.28 695.044C1219.43 713.138 1248.72 729.414 1265.64 750.631C1284.77 774.617 1320.6 794.28 1360.17 811.933C1401.4 830.329 1457.82 844.182 1510.94 854.611C1546.31 861.556 1582.62 867.582 1617.93 874.621C1640.7 879.161 1669.33 882.17 1689.63 888.333C1745.48 905.292 1798.56 922.836 1850.75 941.885C1879.5 952.38 1900.76 961.533 1913.42 977.4" stroke="#F5F5F5" stroke-opacity="0.89" stroke-linecap="round"/>
<path d="M8.19935 389.878C32.544 387.62 61.4284 392.625 84.701 395.456C121.214 399.898 158.192 402.067 194.012 407.841C271.459 420.324 345.472 438.95 400.526 466.813C450.77 492.241 481.14 523.314 528.049 549.607C543.813 558.442 556.2 567.496 569.219 577.133C610.048 607.355 708.216 617.999 774.922 631.476C802.436 637.034 837.903 637.839 867.343 640.752C912.908 645.26 965.87 647.663 1008.01 656.609C1022.22 659.628 1038.87 660.64 1054.01 662.795C1075.82 665.9 1094.07 673.902 1110.98 680.623C1139.64 692.015 1169.28 704.22 1191.28 718.369C1219.43 736.462 1248.72 752.739 1265.64 773.955C1284.77 797.941 1320.6 817.604 1360.17 835.258C1401.4 853.653 1457.82 867.506 1510.94 877.935C1546.31 884.881 1582.62 890.907 1617.93 897.946C1640.7 902.485 1669.33 905.495 1689.63 911.657C1745.48 928.616 1798.56 946.16 1850.75 965.21C1879.5 975.704 1900.76 984.857 1913.42 1000.72" stroke="#F5F5F5" stroke-opacity="0.89" stroke-linecap="round"/>
<path d="M8.19932 413.203C32.5439 410.945 61.4285 415.949 84.701 418.78C121.214 423.222 158.192 425.391 194.012 431.165C271.459 443.648 345.472 462.274 400.526 490.137C450.77 515.566 481.14 546.638 528.049 572.931C543.813 581.767 556.2 590.821 569.219 600.457C610.048 630.68 708.216 641.323 774.922 654.8C802.436 660.359 837.903 661.163 867.343 664.076C912.908 668.585 965.87 670.987 1008.01 679.934C1022.22 682.952 1038.87 683.964 1054.01 686.12C1075.82 689.224 1094.07 697.227 1110.98 703.947C1139.64 715.34 1169.28 727.544 1191.28 741.693C1219.43 759.786 1248.72 776.063 1265.64 797.28C1284.77 821.265 1320.6 840.928 1360.17 858.582C1401.4 876.977 1457.82 890.83 1510.94 901.26C1546.31 908.205 1582.62 914.231 1617.93 921.27C1640.7 925.81 1669.33 928.819 1689.63 934.982C1745.48 951.94 1798.56 969.485 1850.75 988.534C1879.5 999.029 1900.76 1008.18 1913.42 1024.05" stroke="#F5F5F5" stroke-opacity="0.89" stroke-linecap="round"/>
<path d="M8.19935 436.527C32.544 434.269 61.4284 439.273 84.701 442.104C121.214 446.546 158.192 448.715 194.012 454.489C271.459 466.972 345.472 485.598 400.526 513.461C450.77 538.89 481.14 569.962 528.049 596.255C543.813 605.091 556.2 614.145 569.219 623.782C610.048 654.004 708.216 664.647 774.922 678.124C802.436 683.683 837.903 684.487 867.343 687.4C912.908 691.909 965.87 694.311 1008.01 703.258C1022.22 706.276 1038.87 707.288 1054.01 709.444C1075.82 712.549 1094.07 720.551 1110.98 727.271C1139.64 738.664 1169.28 750.868 1191.28 765.017C1219.43 783.11 1248.72 799.387 1265.64 820.604C1284.77 844.589 1320.6 864.252 1360.17 881.906C1401.4 900.302 1457.82 914.154 1510.94 924.584C1546.31 931.529 1582.62 937.555 1617.93 944.594C1640.7 949.134 1669.33 952.143 1689.63 958.306C1745.48 975.264 1798.56 992.809 1850.75 1011.86C1879.5 1022.35 1900.76 1031.51 1913.42 1047.37" stroke="#F5F5F5" stroke-opacity="0.89" stroke-linecap="round"/>
<path d="M8.19935 459.851C32.544 457.593 61.4284 462.598 84.701 465.429C121.214 469.87 158.192 472.04 194.012 477.813C271.459 490.297 345.472 508.923 400.526 536.785C450.77 562.214 481.14 593.287 528.049 619.58C543.813 628.415 556.2 637.469 569.219 647.106C610.048 677.328 708.216 687.972 774.922 701.449C802.436 707.007 837.903 707.812 867.343 710.725C912.908 715.233 965.87 717.636 1008.01 726.582C1022.22 729.601 1038.87 730.612 1054.01 732.768C1075.82 735.873 1094.07 743.875 1110.98 750.596C1139.64 761.988 1169.28 774.193 1191.28 788.342C1219.43 806.435 1248.72 822.711 1265.64 843.928C1284.77 867.914 1320.6 887.577 1360.17 905.23C1401.4 923.626 1457.82 937.479 1510.94 947.908C1546.31 954.854 1582.62 960.879 1617.93 967.918C1640.7 972.458 1669.33 975.468 1689.63 981.63C1745.48 998.589 1798.56 1016.13 1850.75 1035.18C1879.5 1045.68 1900.76 1054.83 1913.42 1070.7" stroke="#F5F5F5" stroke-opacity="0.89" stroke-linecap="round"/>
<path d="M1 840.311C4.51445 829.231 24.7329 818.681 38.5141 809.776C60.1363 795.803 77.169 780.866 101.339 767.637C153.597 739.036 217.523 713.966 294.333 700.053C364.433 687.356 439.602 684.989 510.379 673.997C534.162 670.303 557.261 668.114 581.791 665.854C658.719 658.767 714.14 620.762 764.842 597.048C785.754 587.267 799.425 572.509 815.463 561.017C840.285 543.231 863.209 521.599 896.141 506.766C907.253 501.762 914.994 495.049 924.616 489.361C938.473 481.17 961.36 476.137 981.113 471.244C1014.6 462.949 1050.11 454.515 1087.1 449.971C1134.41 444.16 1178.31 437.248 1228.34 437.248C1284.91 437.248 1338.09 428.711 1388.34 417.909C1440.71 406.654 1488.72 387.427 1528.46 368.443C1554.92 355.8 1579.78 342.45 1606.42 329.867C1623.61 321.751 1639.57 310.633 1659.31 304.116C1713.61 286.18 1768.2 269.613 1825.63 253.936C1857.27 245.3 1883.58 239.381 1921 239.381" stroke="#F5F5F5" stroke-opacity="0.89" stroke-linecap="round"/>
<path d="M1 840.311C4.51445 829.231 24.7329 818.681 38.5141 809.776C60.1363 795.803 77.169 780.866 101.339 767.637C153.597 739.036 217.523 713.966 294.333 700.053C364.433 687.356 439.602 684.989 510.379 673.997C534.162 670.303 557.261 668.114 581.791 665.854C658.719 658.767 714.14 620.762 764.842 597.048C785.754 587.267 799.425 572.509 815.463 561.017C840.285 543.231 863.209 521.599 896.141 506.766C907.253 501.762 914.994 495.049 924.616 489.361C938.473 481.17 961.36 476.137 981.113 471.244C1014.6 462.949 1050.11 454.515 1087.1 449.971C1134.41 444.16 1178.31 437.248 1228.34 437.248C1284.91 437.248 1338.09 428.711 1388.34 417.909C1440.71 406.654 1488.72 387.427 1528.46 368.443C1554.92 355.8 1579.78 342.45 1606.42 329.867C1623.61 321.751 1639.57 310.633 1659.31 304.116C1713.61 286.18 1768.2 269.613 1825.63 253.936C1857.27 245.3 1883.58 239.381 1921 239.381" stroke="#F5F5F5" stroke-opacity="0.89" stroke-linecap="round"/>
<path d="M1 871.359C4.51445 860.279 24.7329 849.729 38.5141 840.824C60.1363 826.851 77.169 811.914 101.339 798.685C153.597 770.084 217.523 745.014 294.333 731.101C364.433 718.404 439.602 716.037 510.379 705.045C534.162 701.351 557.261 699.162 581.791 696.902C658.719 689.815 714.14 651.81 764.842 628.096C785.754 618.315 799.425 603.557 815.463 592.065C840.285 574.279 863.209 552.647 896.141 537.814C907.253 532.81 914.994 526.097 924.616 520.409C938.473 512.218 961.36 507.185 981.113 502.292C1014.6 493.997 1050.11 485.563 1087.1 481.019C1134.41 475.208 1178.31 468.296 1228.34 468.296C1284.91 468.296 1338.09 459.759 1388.34 448.957C1440.71 437.701 1488.72 418.475 1528.46 399.491C1554.92 386.848 1579.78 373.498 1606.42 360.915C1623.61 352.799 1639.57 341.681 1659.31 335.163C1713.61 317.228 1768.2 300.661 1825.63 284.984C1857.27 276.348 1883.58 270.429 1921 270.429" stroke="#F5F5F5" stroke-opacity="0.89" stroke-linecap="round"/>
<path d="M1 871.359C4.51445 860.279 24.7329 849.729 38.5141 840.824C60.1363 826.851 77.169 811.914 101.339 798.685C153.597 770.084 217.523 745.014 294.333 731.101C364.433 718.404 439.602 716.037 510.379 705.045C534.162 701.351 557.261 699.162 581.791 696.902C658.719 689.815 714.14 651.81 764.842 628.096C785.754 618.315 799.425 603.557 815.463 592.065C840.285 574.279 863.209 552.647 896.141 537.814C907.253 532.81 914.994 526.097 924.616 520.409C938.473 512.218 961.36 507.185 981.113 502.292C1014.6 493.997 1050.11 485.563 1087.1 481.019C1134.41 475.208 1178.31 468.296 1228.34 468.296C1284.91 468.296 1338.09 459.759 1388.34 448.957C1440.71 437.701 1488.72 418.475 1528.46 399.491C1554.92 386.848 1579.78 373.498 1606.42 360.915C1623.61 352.799 1639.57 341.681 1659.31 335.163C1713.61 317.228 1768.2 300.661 1825.63 284.984C1857.27 276.348 1883.58 270.429 1921 270.429" stroke="#F5F5F5" stroke-opacity="0.89" stroke-linecap="round"/>
<path d="M1 902.741C4.51445 891.654 24.7329 881.099 38.5141 872.189C60.1363 858.208 77.169 843.263 101.339 830.027C153.597 801.41 217.523 776.326 294.333 762.405C364.433 749.701 439.602 747.332 510.379 736.334C534.162 732.638 557.261 730.448 581.791 728.187C658.719 721.096 714.14 683.07 764.842 659.343C785.754 649.557 799.425 634.79 815.463 623.292C840.285 605.496 863.209 583.852 896.141 569.011C907.253 564.004 914.994 557.287 924.616 551.596C938.473 543.4 961.36 538.365 981.113 533.469C1014.6 525.17 1050.11 516.731 1087.1 512.184C1134.41 506.37 1178.31 499.454 1228.34 499.454C1284.91 499.454 1338.09 490.913 1388.34 480.105C1440.71 468.842 1488.72 449.605 1528.46 430.61C1554.92 417.961 1579.78 404.603 1606.42 392.013C1623.61 383.893 1639.57 372.769 1659.31 366.248C1713.61 348.302 1768.2 331.726 1825.63 316.04C1857.27 307.399 1883.58 301.477 1921 301.477" stroke="#F5F5F5" stroke-opacity="0.89" stroke-linecap="round"/>
<path d="M1 902.741C4.51445 891.654 24.7329 881.099 38.5141 872.189C60.1363 858.208 77.169 843.263 101.339 830.027C153.597 801.41 217.523 776.326 294.333 762.405C364.433 749.701 439.602 747.332 510.379 736.334C534.162 732.638 557.261 730.448 581.791 728.187C658.719 721.096 714.14 683.07 764.842 659.343C785.754 649.557 799.425 634.79 815.463 623.292C840.285 605.496 863.209 583.852 896.141 569.011C907.253 564.004 914.994 557.287 924.616 551.596C938.473 543.4 961.36 538.365 981.113 533.469C1014.6 525.17 1050.11 516.731 1087.1 512.184C1134.41 506.37 1178.31 499.454 1228.34 499.454C1284.91 499.454 1338.09 490.913 1388.34 480.105C1440.71 468.842 1488.72 449.605 1528.46 430.61C1554.92 417.961 1579.78 404.603 1606.42 392.013C1623.61 383.893 1639.57 372.769 1659.31 366.248C1713.61 348.302 1768.2 331.726 1825.63 316.04C1857.27 307.399 1883.58 301.477 1921 301.477" stroke="#F5F5F5" stroke-opacity="0.89" stroke-linecap="round"/>
<path d="M1 933.789C4.51445 922.702 24.7329 912.147 38.5141 903.237C60.1363 889.256 77.169 874.311 101.339 861.075C153.597 832.458 217.523 807.374 294.333 793.453C364.433 780.749 439.602 778.38 510.379 767.382C534.162 763.686 557.261 761.496 581.791 759.235C658.719 752.144 714.14 714.118 764.842 690.391C785.754 680.605 799.425 665.838 815.463 654.34C840.285 636.544 863.209 614.9 896.141 600.059C907.253 595.052 914.994 588.335 924.616 582.644C938.473 574.448 961.36 569.413 981.113 564.517C1014.6 556.217 1050.11 547.779 1087.1 543.232C1134.41 537.418 1178.31 530.502 1228.34 530.502C1284.91 530.502 1338.09 521.961 1388.34 511.153C1440.71 499.89 1488.72 480.653 1528.46 461.658C1554.92 449.009 1579.78 435.651 1606.42 423.061C1623.61 414.941 1639.57 403.817 1659.31 397.296C1713.61 379.35 1768.2 362.774 1825.63 347.088C1857.27 338.447 1883.58 332.525 1921 332.525" stroke="#F5F5F5" stroke-opacity="0.89" stroke-linecap="round"/>
<path d="M1 933.789C4.51445 922.702 24.7329 912.147 38.5141 903.237C60.1363 889.256 77.169 874.311 101.339 861.075C153.597 832.458 217.523 807.374 294.333 793.453C364.433 780.749 439.602 778.38 510.379 767.382C534.162 763.686 557.261 761.496 581.791 759.235C658.719 752.144 714.14 714.118 764.842 690.391C785.754 680.605 799.425 665.838 815.463 654.34C840.285 636.544 863.209 614.9 896.141 600.059C907.253 595.052 914.994 588.335 924.616 582.644C938.473 574.448 961.36 569.413 981.113 564.517C1014.6 556.217 1050.11 547.779 1087.1 543.232C1134.41 537.418 1178.31 530.502 1228.34 530.502C1284.91 530.502 1338.09 521.961 1388.34 511.153C1440.71 499.89 1488.72 480.653 1528.46 461.658C1554.92 449.009 1579.78 435.651 1606.42 423.061C1623.61 414.941 1639.57 403.817 1659.31 397.296C1713.61 379.35 1768.2 362.774 1825.63 347.088C1857.27 338.447 1883.58 332.525 1921 332.525" stroke="#F5F5F5" stroke-opacity="0.89" stroke-linecap="round"/>
<path d="M1 964.837C4.51445 953.75 24.7329 943.195 38.5141 934.285C60.1363 920.304 77.169 905.359 101.339 892.123C153.597 863.506 217.523 838.422 294.333 824.501C364.433 811.797 439.602 809.428 510.379 798.43C534.162 794.734 557.261 792.544 581.791 790.283C658.719 783.192 714.14 745.166 764.842 721.439C785.754 711.653 799.425 696.886 815.463 685.388C840.285 667.592 863.209 645.948 896.141 631.107C907.253 626.1 914.994 619.383 924.616 613.692C938.473 605.496 961.36 600.461 981.113 595.565C1014.6 587.265 1050.11 578.827 1087.1 574.28C1134.41 568.466 1178.31 561.55 1228.34 561.55C1284.91 561.55 1338.09 553.009 1388.34 542.201C1440.71 530.938 1488.72 511.701 1528.46 492.706C1554.92 480.057 1579.78 466.699 1606.42 454.109C1623.61 445.989 1639.57 434.865 1659.31 428.343C1713.61 410.398 1768.2 393.822 1825.63 378.136C1857.27 369.495 1883.58 363.573 1921 363.573" stroke="#F5F5F5" stroke-opacity="0.89" stroke-linecap="round"/>
<path d="M1 964.837C4.51445 953.75 24.7329 943.195 38.5141 934.285C60.1363 920.304 77.169 905.359 101.339 892.123C153.597 863.506 217.523 838.422 294.333 824.501C364.433 811.797 439.602 809.428 510.379 798.43C534.162 794.734 557.261 792.544 581.791 790.283C658.719 783.192 714.14 745.166 764.842 721.439C785.754 711.653 799.425 696.886 815.463 685.388C840.285 667.592 863.209 645.948 896.141 631.107C907.253 626.1 914.994 619.383 924.616 613.692C938.473 605.496 961.36 600.461 981.113 595.565C1014.6 587.265 1050.11 578.827 1087.1 574.28C1134.41 568.466 1178.31 561.55 1228.34 561.55C1284.91 561.55 1338.09 553.009 1388.34 542.201C1440.71 530.938 1488.72 511.701 1528.46 492.706C1554.92 480.057 1579.78 466.699 1606.42 454.109C1623.61 445.989 1639.57 434.865 1659.31 428.343C1713.61 410.398 1768.2 393.822 1825.63 378.136C1857.27 369.495 1883.58 363.573 1921 363.573" stroke="#F5F5F5" stroke-opacity="0.89" stroke-linecap="round"/>
<path d="M1 995.885C4.51445 984.798 24.7329 974.243 38.5141 965.333C60.1363 951.352 77.169 936.407 101.339 923.171C153.597 894.554 217.523 869.47 294.333 855.549C364.433 842.845 439.602 840.476 510.379 829.478C534.162 825.782 557.261 823.592 581.791 821.331C658.719 814.24 714.14 776.214 764.842 752.487C785.754 742.701 799.425 727.934 815.463 716.436C840.285 698.64 863.209 676.996 896.141 662.155C907.253 657.148 914.994 650.432 924.616 644.74C938.473 636.544 961.36 631.509 981.113 626.613C1014.6 618.314 1050.11 609.875 1087.1 605.328C1134.41 599.514 1178.31 592.598 1228.34 592.598C1284.91 592.598 1338.09 584.057 1388.34 573.249C1440.71 561.987 1488.72 542.749 1528.46 523.754C1554.92 511.105 1579.78 497.747 1606.42 485.157C1623.61 477.037 1639.57 465.913 1659.31 459.392C1713.61 441.446 1768.2 424.87 1825.63 409.184C1857.27 400.543 1883.58 394.621 1921 394.621" stroke="#F5F5F5" stroke-opacity="0.89" stroke-linecap="round"/>
<path d="M1 995.885C4.51445 984.798 24.7329 974.243 38.5141 965.333C60.1363 951.352 77.169 936.407 101.339 923.171C153.597 894.554 217.523 869.47 294.333 855.549C364.433 842.845 439.602 840.476 510.379 829.478C534.162 825.782 557.261 823.592 581.791 821.331C658.719 814.24 714.14 776.214 764.842 752.487C785.754 742.701 799.425 727.934 815.463 716.436C840.285 698.64 863.209 676.996 896.141 662.155C907.253 657.148 914.994 650.432 924.616 644.74C938.473 636.544 961.36 631.509 981.113 626.613C1014.6 618.314 1050.11 609.875 1087.1 605.328C1134.41 599.514 1178.31 592.598 1228.34 592.598C1284.91 592.598 1338.09 584.057 1388.34 573.249C1440.71 561.987 1488.72 542.749 1528.46 523.754C1554.92 511.105 1579.78 497.747 1606.42 485.157C1623.61 477.037 1639.57 465.913 1659.31 459.392C1713.61 441.446 1768.2 424.87 1825.63 409.184C1857.27 400.543 1883.58 394.621 1921 394.621" stroke="#F5F5F5" stroke-opacity="0.89" stroke-linecap="round"/>
</svg>
