<svg width="1913" height="935" viewBox="0 0 1913 935" fill="none" xmlns="http://www.w3.org/2000/svg">
<path d="M22.7772 792L519.47 653L900.765 489.515C999.211 447.305 1081.21 373.374 1133.72 280.215V280.215C1212.87 139.773 1356.83 46.5881 1518.53 32.447L1878.13 1.00004" stroke="#6F7E90" stroke-opacity="0.31"/>
<path d="M22.4003 799.291L516.642 707.054L919.576 592.833C1003.28 569.105 1078.01 521.84 1134.96 456.605V456.605C1213.85 366.23 1325.9 311.373 1446.67 304.001L1564.74 296.792L1871.36 278.074" stroke="#6F7E90" stroke-opacity="0.31"/>
<path d="M22.399 799.291L524.297 727.634L945.752 636.9C1023.4 620.183 1095.4 584.572 1155.4 533.201V533.201C1235.68 464.465 1336.84 424.429 1443.31 419.255L1590.24 412.115L1901.32 396.999" stroke="#6F7E90" stroke-opacity="0.31"/>
<path d="M32.0826 806.919L530.082 832.006L1067.02 853.799L1286.03 844.22L1593.63 863.65L1901.24 883.08" stroke="#6F7E90" stroke-opacity="0.31"/>
<path d="M17.9462 798.999L269.795 773.523L521.644 748.047L969.872 680.513C1031.85 671.175 1091.29 650.213 1145.08 618.725L1174.38 601.574C1244.41 560.58 1323.76 537.572 1405.47 534.569L1592.95 527.679L1904.86 516.216" stroke="#6F7E90" stroke-opacity="0.31"/>
<path d="M36.3064 799L535.725 768.725L1017.27 726.439C1054.64 723.158 1091.43 715.672 1126.97 704.124L1221.96 673.252C1267.35 658.498 1314.76 650.392 1362.72 649.183L1599.41 643.219L1908.41 635.433" stroke="#6F7E90" stroke-opacity="0.31"/>
<path d="M31.9996 799L532.261 787.785L1071.28 772.343L1289.86 754.272L1599.14 749.853L1908.41 745.433" stroke="#6F7E90" stroke-opacity="0.31"/>
<path d="M22.4 799.291L518.881 679.824L908.949 536.443C1001.92 502.268 1081.29 439.624 1135.89 357.323V357.323C1215.23 237.72 1345.37 161.678 1489.58 150.667L1569.77 144.544L1878.13 121" stroke="#6F7E90" stroke-opacity="0.31"/>
</svg>
