<svg width="890" height="840" viewBox="0 0 890 840" fill="none" xmlns="http://www.w3.org/2000/svg">
<path d="M221 154.5L523.5 164.827L795 0.327209L780.5 640.327H543.5L242.5 839.327L221 154.5Z" fill="url(#paint0_linear_764_1174)"/>
<path d="M97.9228 442.555C73.5473 427.046 56.0081 402.748 48.8956 374.637C44.947 358.726 44.5097 342.12 45.4287 325.739C46.3304 309.668 48.7775 292.967 57.9498 279.758C62.9718 272.525 69.77 266.72 77.682 262.909C85.594 259.097 94.3499 257.409 103.096 258.009C111.843 258.609 120.282 261.476 127.59 266.331C134.899 271.186 140.828 277.863 144.801 285.712C148.22 292.468 150.12 300.203 148.938 307.697C146.459 323.415 131.787 333.89 123.805 347.644C115.558 361.858 114.773 379.015 113.011 395.363C111.248 411.712 107.676 429.156 95.7314 440.411" fill="#F2F2F2"/>
<path d="M147.644 341.444L131.893 362.582L142.455 371.298C142.455 371.298 154.864 346.663 155.267 345.717C156.561 345.424 157.736 344.743 158.638 343.764C159.54 342.785 160.125 341.555 160.317 340.236C160.509 338.917 160.298 337.571 159.711 336.377C159.125 335.182 158.192 334.195 157.035 333.547C155.877 332.898 154.551 332.618 153.231 332.744C151.91 332.87 150.658 333.395 149.64 334.251C148.623 335.107 147.887 336.253 147.53 337.538C147.174 338.822 147.213 340.184 147.644 341.444Z" fill="#A0616A"/>
<path d="M86.3047 334.336C88.2699 354.915 105.159 370.623 118.406 388.274C120.233 389.287 122.251 389.905 124.331 390.09C126.41 390.274 128.506 390.019 130.484 389.343C132.462 388.667 134.279 387.583 135.818 386.162C137.356 384.741 138.584 383.013 139.421 381.089L148.267 361.066L134.814 358.424L128.19 363.591L112.281 347.575L86.3047 334.336Z" fill="#3F3D56"/>
<path d="M72.4501 580.244L80.0143 585.339L103.222 558.407L92.058 550.885L72.4501 580.244Z" fill="#A0616A"/>
<path d="M66.8795 588.004L90.1392 603.675L90.3369 603.379C91.9505 600.962 92.5443 598.003 91.9877 595.15C91.4311 592.298 89.7696 589.787 87.3687 588.169L85.2861 582.063L75.1924 579.965L73.162 578.597L66.8795 588.004Z" fill="#212327"/>
<path d="M180.771 556.562L189.832 555.58L190.436 519.985L177.06 521.436L180.771 556.562Z" fill="#A0616A"/>
<path d="M181.454 566.097L209.323 563.075L209.285 562.721C208.98 559.83 207.544 557.182 205.294 555.358C203.044 553.534 200.164 552.685 197.287 552.997L191.786 549.668L182.698 554.579L180.265 554.842L181.454 566.097Z" fill="#212327"/>
<path d="M66.9484 433.063C66.0845 439.535 76.768 459.19 83.5067 462.886C84.652 463.515 85.3239 463.868 85.3239 463.868L87.9431 463.531L119.663 459.442C124.419 463.457 139.912 467.704 152.709 470.679C162.896 473.045 167.72 479.423 167.72 479.423C166.841 503.152 172.741 521.554 179.327 544.06L191.8 543.984L193.422 464.566C193.457 462.851 192.99 461.165 192.079 459.716C191.168 458.267 189.853 457.12 188.297 456.417L109.616 420.88C109.616 420.88 105.215 419.289 94.8555 422.318C77.8003 427.306 67.5799 428.355 66.9484 433.063Z" fill="#212327"/>
<path d="M82.8899 434.471C79.149 439.815 79.5782 462.223 83.8494 468.634L85.0715 469.812L85.4974 470.135C86.8288 481.278 115.094 517.981 115.094 517.981C101.334 530.566 88.2667 546.547 80.4257 565.6L92.7002 572.613L138.857 523.543C140.066 522.257 140.86 520.635 141.135 518.889C141.41 517.143 141.153 515.355 140.397 513.761L129 489.707L112.556 437.895C95.1516 434.402 85.614 430.585 82.8899 434.471Z" fill="#212327"/>
<path d="M67.0142 435.676C66.9737 435.669 66.4403 432.983 66.4218 432.974C66.1111 432.828 61.7703 431.645 64.0024 424.464L66.6364 416.592L66.6007 409.242L64.8685 406.793L68.7891 403.988L69.3125 388.357L73.6849 357.62C73.4781 346.774 75.6165 337.246 85.9872 334.234L98.7104 325.836L111.246 327.793L124.013 338.646L128.565 353.589L124.933 391.392L126.137 396.399L125.94 396.526C125.925 396.536 124.395 397.518 123.687 398.081C123.328 398.444 123.351 401.614 123.579 404.341L123.349 410.938L120.925 412.126L123.173 415.937L128.638 430.249L128.199 430.057C127.703 429.84 121.659 436.299 67.4137 435.466C67.1634 435.462 67.1157 435.693 67.0142 435.676Z" fill="#3F3D56"/>
<path d="M141.201 365.048L137.211 362.013C136.585 361.536 136.173 360.828 136.066 360.046C135.959 359.263 136.166 358.469 136.64 357.838L150.527 339.411C151.003 338.781 151.708 338.366 152.486 338.257C153.265 338.148 154.055 338.354 154.682 338.83L158.672 341.865C159.298 342.342 159.71 343.05 159.817 343.832C159.924 344.615 159.717 345.409 159.243 346.04L145.356 364.467C144.88 365.097 144.176 365.512 143.397 365.621C142.618 365.73 141.828 365.524 141.201 365.048Z" fill="#3F3D56"/>
<path d="M153.506 339.415C153.168 339.158 152.743 339.047 152.323 339.106C151.903 339.165 151.523 339.388 151.267 339.728L137.38 358.155C137.124 358.495 137.013 358.923 137.071 359.344C137.128 359.766 137.35 360.148 137.687 360.405L141.678 363.44C142.016 363.696 142.441 363.807 142.861 363.748C143.281 363.69 143.66 363.466 143.917 363.126L157.804 344.699C158.059 344.359 158.171 343.932 158.113 343.51C158.055 343.088 157.834 342.707 157.496 342.45L153.506 339.415Z" fill="#F1D1AB"/>
<path d="M108.276 324.457C118.154 326.123 127.52 319.422 129.195 309.49C130.87 299.558 124.22 290.157 114.341 288.491C104.462 286.825 95.0963 293.525 93.4213 303.457C91.7464 313.389 98.3968 322.791 108.276 324.457Z" fill="#A0616A"/>
<path d="M100.557 316.573C99.8787 315.813 98.9561 315.318 97.9504 315.173C97.631 315.172 97.3149 315.239 97.023 315.37C96.7311 315.501 96.4701 315.693 96.2572 315.933C96.1442 316.035 96.0077 316.107 95.86 316.143C95.7123 316.178 95.5581 316.176 95.4115 316.137C93.4911 315.885 90.0234 311.639 90.9035 304.724C91.3218 301.437 90.3107 295.586 93.9078 293.116C94.3187 291.944 98.838 279.873 109.781 281.364C120.986 282.888 128.025 286.39 129.087 290.961C129.753 294.56 130.105 298.211 130.139 301.872L130.156 304.049L129.613 301.943C129.603 301.903 128.602 298.127 125.846 296.459C125.702 297.022 125.463 297.556 125.14 298.038C123.823 299.975 121.162 300.936 118.363 300.486C116.441 300.1 114.605 299.367 112.945 298.322C113.098 298.649 113.153 299.014 113.104 299.373C113.055 299.731 112.903 300.068 112.668 300.343C112.433 300.618 112.125 300.818 111.779 300.92C111.433 301.023 111.066 301.022 110.721 300.92L110.215 300.768C110.055 300.72 109.884 300.73 109.731 300.795C109.578 300.861 109.452 300.978 109.376 301.127C109.3 301.276 109.278 301.447 109.314 301.611C109.35 301.774 109.441 301.919 109.573 302.021L109.987 302.343L109.389 302.518C106.997 303.141 104.877 304.542 103.359 306.503C101.841 308.463 101.011 310.873 101 313.356L101.03 317.107L100.557 316.573Z" fill="#212327"/>
<path d="M141.97 360.176L121.574 376.826L129.699 387.87C129.699 387.87 147.703 367.009 148.323 366.189C149.648 366.222 150.953 365.849 152.065 365.121C153.177 364.392 154.042 363.342 154.548 362.109C155.054 360.876 155.176 359.518 154.897 358.216C154.619 356.913 153.953 355.727 152.989 354.814C152.024 353.901 150.806 353.305 149.496 353.103C148.185 352.902 146.844 353.105 145.65 353.686C144.455 354.267 143.464 355.199 142.807 356.358C142.15 357.517 141.858 358.848 141.97 360.176Z" fill="#A0616A"/>
<path d="M84.2314 338.25C81.1451 358.698 93.7073 378.077 102.268 398.45C103.793 399.88 105.6 400.974 107.571 401.663C109.542 402.351 111.636 402.618 113.717 402.446C115.799 402.275 117.822 401.669 119.659 400.667C121.495 399.665 123.104 398.289 124.383 396.628L137.814 379.367L125.414 373.507L117.74 376.898L106.202 357.46L84.2314 338.25Z" fill="#3F3D56"/>
<path d="M723.177 735.107L743.196 731.668L745.151 756.675L731.683 759.817L723.177 735.107Z" fill="#212327"/>
<path d="M784.573 612.498C786.9 612.651 789.076 613.711 790.637 615.452C792.199 617.194 793.023 619.479 792.934 621.822C792.909 622.297 792.844 622.77 792.741 623.236L819.165 639.972L804.557 646.468L781.703 629.579C779.818 629 778.176 627.809 777.034 626.193C775.892 624.577 775.315 622.627 775.392 620.646C775.446 619.519 775.721 618.415 776.2 617.395C776.679 616.375 777.353 615.46 778.184 614.702C779.015 613.944 779.986 613.358 781.042 612.977C782.098 612.597 783.219 612.429 784.339 612.484C784.417 612.487 784.495 612.492 784.573 612.498Z" fill="#FFB6B6"/>
<path d="M796.494 695.775C824.601 689.156 849.129 671.986 865.056 647.78C873.998 634.054 879.85 618.516 884.348 602.743C888.76 587.269 891.918 570.692 887.58 555.197C885.205 546.713 880.684 538.992 874.459 532.787C868.233 526.582 860.514 522.104 852.055 519.79C843.596 517.476 834.685 517.404 826.191 519.583C817.696 521.761 809.907 526.114 803.584 532.219C798.141 537.473 793.812 544.152 792.475 551.618C789.668 567.278 800.097 582.003 803.132 597.62C806.268 613.759 801.389 630.22 797.699 646.24C794.009 662.26 791.67 679.909 799.267 694.472" fill="#F2F2F2"/>
<path d="M786.52 638.089L776.769 612.793C776.437 611.927 776.459 610.964 776.832 610.115C777.205 609.266 777.897 608.6 778.758 608.264L784.241 606.127C785.103 605.793 786.061 605.815 786.905 606.19C787.75 606.565 788.412 607.261 788.747 608.127L798.498 633.422C798.83 634.288 798.808 635.251 798.435 636.1C798.062 636.949 797.37 637.615 796.509 637.952L791.025 640.088C790.164 640.423 789.206 640.4 788.362 640.025C787.517 639.65 786.855 638.954 786.52 638.089Z" fill="#3F3D56"/>
<path d="M779.897 609.304C779.433 609.485 779.06 609.844 778.859 610.302C778.658 610.759 778.646 611.278 778.825 611.745L788.576 637.041C788.757 637.507 789.114 637.882 789.569 638.084C790.024 638.286 790.54 638.298 791.004 638.118L796.488 635.981C796.951 635.8 797.325 635.441 797.526 634.984C797.726 634.526 797.739 634.007 797.559 633.541L787.808 608.245C787.628 607.779 787.271 607.404 786.816 607.202C786.361 607 785.845 606.987 785.381 607.168L779.897 609.304Z" fill="#F1D1AB"/>
<path d="M720.395 763.286L706.253 758.502L698.377 797.206L707.96 800.447L720.395 763.286Z" fill="#FFB6B6"/>
<path d="M745.476 755.923L730.955 759.376L744.611 796.417L754.45 794.077L745.476 755.923Z" fill="#FFB6B6"/>
<path d="M843.916 700.598C851.338 750.345 752.499 720.933 752.499 720.933L721.509 763.914L703.366 760.598C703.366 760.598 711.53 734.795 726.109 700.206C732.584 684.844 806.104 688.598 806.104 688.598L807.63 676.553L849.689 675.724L843.916 700.598Z" fill="#212327"/>
<path d="M822.762 593.142L830.215 583.51L840.848 583.046L841.909 592.106L847.177 594.548C852.437 614.641 853.25 635.648 849.557 656.091C848.851 656.759 848.335 657.605 848.063 658.541C847.79 659.476 847.771 660.468 848.007 661.414L848.348 662.783L848.317 662.833C847.196 664.611 846.815 666.762 847.258 668.819L849.774 673.314C850.676 674.93 851.218 676.725 851.361 678.573C851.505 680.421 851.246 682.279 850.602 684.016C849.959 685.754 848.948 687.329 847.637 688.634C846.327 689.938 844.75 690.94 843.016 691.569C827.551 697.205 813.053 699.305 802.328 683.49L798.956 628.378L822.762 593.142Z" fill="#212327"/>
<path d="M830.57 586.068C841.427 586.068 850.228 577.219 850.228 566.303C850.228 555.388 841.427 546.539 830.57 546.539C819.713 546.539 810.911 555.388 810.911 566.303C810.911 577.219 819.713 586.068 830.57 586.068Z" fill="#FFB8B8"/>
<path d="M840.439 542.478C848.762 542.639 855.364 550.401 855.184 559.816C861.344 566.278 859.307 574.185 854.16 582.64C844.745 583.739 842.547 584.196 834.291 587.582L833.203 582.471L830.737 589.127C828.639 590.099 826.556 591.167 824.49 592.329C823.004 585.48 823.373 578.823 827.364 573.024C830.911 567.873 822.281 561.757 816.109 562.621L816.199 557.89L814.649 562.593C812.243 564.371 809.582 563.727 806.853 562.443C802.427 539.319 836.69 532.995 840.439 542.478Z" fill="#212327"/>
<path d="M712.316 806.993L706.015 806.165L705.667 800.037L702.01 805.639L685.298 803.445C684.497 803.34 683.75 802.98 683.167 802.418C682.584 801.856 682.195 801.121 682.056 800.321C681.918 799.521 682.037 798.697 682.397 797.97C682.757 797.243 683.339 796.651 684.058 796.28L698.607 788.766L699.393 782.719L713.32 785.405L712.316 806.993Z" fill="#212327"/>
<path d="M758.066 803.504L751.764 804.32L749.873 798.483L747.758 804.838L731.042 807.001C730.241 807.104 729.427 806.948 728.721 806.554C728.014 806.16 727.452 805.55 727.115 804.811C726.778 804.073 726.684 803.246 726.848 802.451C727.012 801.655 727.424 800.933 728.025 800.39L740.188 789.395L739.414 783.347L753.562 782.373L758.066 803.504Z" fill="#212327"/>
<path d="M786.943 617.339C789.27 617.492 791.446 618.551 793.008 620.293C794.569 622.034 795.393 624.319 795.304 626.662C795.279 627.138 795.214 627.611 795.111 628.076L821.535 644.812L806.927 651.308L784.074 634.419C782.188 633.84 780.546 632.649 779.404 631.033C778.263 629.417 777.685 627.467 777.762 625.486C777.816 624.36 778.091 623.255 778.57 622.235C779.049 621.215 779.723 620.3 780.554 619.542C781.385 618.784 782.356 618.198 783.412 617.817C784.468 617.437 785.589 617.269 786.709 617.324C786.787 617.328 786.865 617.333 786.943 617.339Z" fill="#FFB6B6"/>
<path d="M812.425 637.205L805.876 650.79L831.77 667.543C833.612 668.745 835.73 669.453 837.921 669.601C840.113 669.749 842.306 669.33 844.291 668.386C846.705 667.224 848.678 665.305 849.912 662.918C851.147 660.531 851.577 657.805 851.136 655.151L842.734 606.926C842.17 603.552 840.341 600.522 837.623 598.462C834.906 596.401 831.506 595.466 828.124 595.848C826.476 596.03 824.881 596.535 823.427 597.336C821.974 598.138 820.692 599.219 819.655 600.518C818.617 601.817 817.844 603.309 817.38 604.909C816.916 606.508 816.77 608.184 816.95 609.841C816.964 609.972 816.981 610.102 816.999 610.233C817.062 610.696 817.151 611.156 817.263 611.609L826.436 645.906L812.425 637.205Z" fill="#48C5D5"/>
<g clip-path="url(#clip0_764_1174)">
<path d="M486.387 637.193C594.779 635.655 682.584 629.921 682.506 624.385C682.427 618.849 594.495 615.609 486.103 617.146C377.711 618.684 289.905 624.418 289.984 629.954C290.063 635.49 377.995 638.731 486.387 637.193Z" fill="#F2F2F2"/>
<path d="M596.53 316.913L594.3 316.944L593.435 255.944C593.302 246.581 589.45 237.654 582.727 231.127C576.003 224.6 566.959 221.008 557.584 221.141L428.181 222.977C418.806 223.11 409.867 226.957 403.332 233.672C396.796 240.387 393.199 249.42 393.332 258.783L398.08 593.433C398.213 602.797 402.064 611.724 408.788 618.251C415.511 624.778 424.555 628.37 433.931 628.237L563.333 626.401C572.709 626.268 581.647 622.421 588.183 615.706C594.718 608.991 598.315 599.958 598.183 590.594L594.916 360.365L597.146 360.333L596.53 316.913Z" fill="#3F3D56"/>
<path d="M585.915 256.297L590.655 590.455C590.755 597.448 588.068 604.194 583.187 609.209C578.307 614.224 571.631 617.097 564.629 617.196L434.606 619.041C427.604 619.14 420.85 616.457 415.829 611.583C410.808 606.709 407.931 600.042 407.832 593.049L403.091 258.891C402.992 251.898 405.678 245.153 410.559 240.138C415.44 235.123 422.115 232.25 429.117 232.15L444.891 231.926C444.143 233.839 443.877 235.907 444.116 237.947C444.356 239.987 445.094 241.936 446.265 243.624C447.436 245.313 449.005 246.687 450.833 247.628C452.662 248.568 454.693 249.046 456.749 249.018L530.882 247.966C532.939 247.936 534.956 247.401 536.757 246.409C538.557 245.417 540.086 243.998 541.209 242.277C542.332 240.557 543.015 238.587 543.196 236.541C543.378 234.495 543.054 232.436 542.252 230.545L559.14 230.305C566.142 230.206 572.896 232.889 577.917 237.763C582.939 242.638 585.815 249.305 585.915 256.297Z" fill="white"/>
<path d="M435.834 378.114C435.487 378.119 435.142 378.051 434.823 377.915C434.504 377.779 434.216 377.578 433.979 377.325L405.884 347.573C405.565 347.236 405.18 346.969 404.752 346.789C404.325 346.608 403.865 346.518 403.401 346.524L257.198 348.598C254.979 348.627 252.839 347.776 251.248 346.231C249.657 344.687 248.744 342.575 248.71 340.359L247.963 287.702C247.934 285.487 248.787 283.35 250.333 281.76C251.88 280.171 253.995 279.26 256.213 279.226L445.63 276.539C447.849 276.51 449.989 277.361 451.58 278.905C453.171 280.45 454.084 282.562 454.117 284.778L454.865 337.434C454.893 339.65 454.041 341.787 452.494 343.376C450.948 344.965 448.833 345.877 446.615 345.911L441.245 345.987C440.357 346.001 439.511 346.365 438.892 347.001C438.273 347.637 437.932 348.492 437.944 349.378L438.316 375.569C438.325 376.074 438.18 376.571 437.9 376.992C437.62 377.413 437.219 377.74 436.748 377.928C436.458 378.046 436.148 378.109 435.834 378.114Z" fill="white"/>
<path d="M435.834 378.114C435.487 378.119 435.142 378.051 434.823 377.915C434.504 377.779 434.216 377.578 433.979 377.325L405.884 347.573C405.565 347.236 405.18 346.969 404.752 346.789C404.325 346.608 403.865 346.518 403.401 346.524L257.198 348.598C254.979 348.627 252.839 347.776 251.248 346.231C249.657 344.687 248.744 342.575 248.71 340.359L247.963 287.702C247.934 285.487 248.787 283.35 250.333 281.76C251.88 280.171 253.995 279.26 256.213 279.226L445.63 276.539C447.849 276.51 449.989 277.361 451.58 278.905C453.171 280.45 454.084 282.562 454.117 284.778L454.865 337.434C454.893 339.65 454.041 341.787 452.494 343.376C450.948 344.965 448.833 345.877 446.615 345.911L441.245 345.987C440.357 346.001 439.511 346.365 438.892 347.001C438.273 347.637 437.932 348.492 437.944 349.378L438.316 375.569C438.325 376.074 438.18 376.571 437.9 376.992C437.62 377.413 437.219 377.74 436.748 377.928C436.458 378.046 436.148 378.109 435.834 378.114ZM256.229 280.34C254.306 280.369 252.473 281.159 251.133 282.536C249.792 283.914 249.053 285.766 249.078 287.687L249.825 340.343C249.855 342.264 250.646 344.094 252.025 345.433C253.404 346.772 255.259 347.51 257.182 347.485L403.385 345.41C404.003 345.402 404.617 345.522 405.187 345.763C405.757 346.004 406.27 346.36 406.695 346.809L434.79 376.56C434.983 376.765 435.233 376.906 435.508 376.966C435.782 377.026 436.069 377.001 436.329 376.896C436.59 376.79 436.812 376.609 436.968 376.375C437.123 376.141 437.204 375.865 437.2 375.584L436.829 349.394C436.813 348.212 437.268 347.073 438.093 346.225C438.918 345.378 440.045 344.892 441.229 344.873L446.599 344.797C448.522 344.768 450.355 343.978 451.695 342.6C453.036 341.223 453.774 339.371 453.749 337.45L453.002 284.793C452.973 282.873 452.182 281.042 450.803 279.704C449.424 278.365 447.569 277.627 445.646 277.652L256.229 280.34Z" fill="#3F3D56"/>
<path d="M268.701 302.282C272.746 302.224 275.978 298.904 275.92 294.864C275.863 290.825 272.538 287.598 268.494 287.655C264.449 287.712 261.217 291.033 261.275 295.072C261.332 299.111 264.657 302.339 268.701 302.282Z" fill="#D55848"/>
<path d="M437.886 333.042L265.556 335.487C265.043 335.495 264.533 335.402 264.056 335.213C263.579 335.024 263.143 334.743 262.775 334.386C262.407 334.029 262.113 333.603 261.909 333.132C261.706 332.661 261.598 332.155 261.59 331.642C261.583 331.13 261.677 330.621 261.867 330.144C262.057 329.668 262.339 329.234 262.697 328.866C263.055 328.499 263.482 328.206 263.954 328.003C264.425 327.801 264.932 327.693 265.445 327.686L437.776 325.241C438.811 325.228 439.809 325.625 440.551 326.346C441.292 327.067 441.717 328.053 441.732 329.087C441.747 330.12 441.35 331.117 440.629 331.859C439.908 332.601 438.921 333.026 437.886 333.042Z" fill="#E6E6E6"/>
<path d="M381.509 317.262L265.321 318.91C264.807 318.918 264.298 318.825 263.82 318.636C263.343 318.447 262.908 318.166 262.54 317.809C262.172 317.452 261.877 317.025 261.674 316.555C261.471 316.084 261.362 315.578 261.355 315.065C261.348 314.553 261.442 314.044 261.632 313.567C261.822 313.091 262.104 312.657 262.462 312.289C262.82 311.922 263.247 311.628 263.718 311.426C264.19 311.224 264.697 311.116 265.21 311.109L381.399 309.461C382.435 309.446 383.434 309.843 384.177 310.564C384.919 311.285 385.345 312.271 385.36 313.306C385.374 314.34 384.977 315.338 384.255 316.08C383.533 316.822 382.545 317.247 381.509 317.262Z" fill="#E6E6E6"/>
<path d="M561.299 554.944C560.824 554.77 560.413 554.455 560.121 554.042C559.829 553.628 559.671 553.136 559.666 552.63L559.294 526.44C559.28 525.554 558.915 524.709 558.279 524.091C557.642 523.473 556.786 523.132 555.899 523.144L550.529 523.22C548.31 523.249 546.17 522.398 544.579 520.853C542.988 519.309 542.075 517.197 542.041 514.981L541.294 462.324C541.265 460.108 542.118 457.971 543.664 456.382C545.211 454.793 547.326 453.882 549.544 453.848L738.961 451.16C741.18 451.131 743.32 451.983 744.911 453.527C746.502 455.072 747.415 457.184 747.448 459.399L748.196 512.056C748.225 514.272 747.372 516.409 745.826 517.998C744.279 519.587 742.164 520.499 739.946 520.533L593.743 522.607C593.278 522.614 592.821 522.717 592.399 522.91C591.977 523.103 591.599 523.381 591.29 523.726L564.05 554.263C563.82 554.523 563.539 554.732 563.223 554.877C562.908 555.022 562.566 555.099 562.218 555.104C561.905 555.109 561.593 555.054 561.299 554.944Z" fill="white"/>
<path d="M561.299 554.944C560.824 554.77 560.413 554.455 560.121 554.042C559.829 553.628 559.671 553.136 559.666 552.63L559.294 526.44C559.28 525.554 558.915 524.709 558.279 524.091C557.642 523.473 556.786 523.132 555.899 523.144L550.529 523.22C548.31 523.249 546.17 522.398 544.579 520.853C542.988 519.309 542.075 517.197 542.041 514.981L541.294 462.324C541.265 460.108 542.118 457.971 543.664 456.382C545.211 454.793 547.326 453.882 549.544 453.848L738.961 451.16C741.18 451.131 743.32 451.983 744.911 453.527C746.502 455.072 747.415 457.184 747.448 459.399L748.196 512.056C748.225 514.272 747.372 516.409 745.826 517.998C744.279 519.587 742.164 520.499 739.946 520.533L593.743 522.607C593.278 522.614 592.821 522.717 592.399 522.91C591.977 523.103 591.599 523.381 591.29 523.726L564.05 554.263C563.82 554.523 563.539 554.732 563.223 554.877C562.908 555.022 562.566 555.099 562.218 555.104C561.905 555.109 561.593 555.054 561.299 554.944ZM549.56 454.961C547.637 454.991 545.804 455.781 544.464 457.158C543.123 458.536 542.384 460.388 542.409 462.308L543.157 514.965C543.186 516.886 543.977 518.716 545.356 520.055C546.735 521.394 548.59 522.132 550.513 522.106L555.883 522.03C557.066 522.015 558.207 522.469 559.056 523.293C559.904 524.116 560.391 525.243 560.409 526.424L560.781 552.615C560.785 552.895 560.874 553.168 561.036 553.398C561.198 553.627 561.425 553.803 561.689 553.901C561.952 553.999 562.239 554.015 562.512 553.947C562.785 553.88 563.031 553.731 563.218 553.522L590.457 522.985C590.87 522.524 591.373 522.154 591.936 521.897C592.498 521.64 593.108 521.503 593.727 521.493L739.93 519.419C741.853 519.39 743.686 518.6 745.026 517.222C746.367 515.845 747.106 513.993 747.08 512.072L746.333 459.415C746.304 457.495 745.513 455.664 744.134 454.325C742.755 452.987 740.9 452.249 738.977 452.274L549.56 454.961Z" fill="#3F3D56"/>
<path d="M565.063 476.304C569.107 476.246 572.339 472.925 572.282 468.886C572.224 464.847 568.899 461.619 564.855 461.677C560.811 461.734 557.579 465.055 557.636 469.094C557.693 473.133 561.018 476.361 565.063 476.304Z" fill="#D55848"/>
<path d="M734.249 507.064L561.918 509.509C561.405 509.517 560.895 509.424 560.418 509.235C559.941 509.046 559.506 508.765 559.137 508.408C558.769 508.051 558.475 507.624 558.272 507.154C558.068 506.683 557.96 506.177 557.953 505.664C557.946 505.152 558.039 504.643 558.229 504.166C558.419 503.69 558.701 503.256 559.059 502.888C559.417 502.521 559.844 502.227 560.316 502.025C560.787 501.823 561.294 501.715 561.808 501.708L734.138 499.263C735.174 499.249 736.173 499.645 736.916 500.366C737.659 501.088 738.084 502.074 738.099 503.108C738.114 504.143 737.716 505.141 736.994 505.883C736.272 506.625 735.285 507.05 734.249 507.064Z" fill="#E6E6E6"/>
<path d="M677.872 491.284L561.683 492.932C561.17 492.94 560.66 492.847 560.183 492.658C559.706 492.469 559.27 492.188 558.902 491.83C558.534 491.473 558.24 491.047 558.036 490.577C557.833 490.106 557.725 489.6 557.717 489.087C557.71 488.574 557.804 488.065 557.994 487.589C558.184 487.113 558.466 486.678 558.824 486.311C559.182 485.944 559.609 485.65 560.08 485.448C560.552 485.245 561.059 485.138 561.572 485.131L677.761 483.483C678.796 483.469 679.794 483.867 680.536 484.588C681.278 485.309 681.703 486.294 681.717 487.328C681.732 488.361 681.335 489.359 680.614 490.1C679.893 490.842 678.907 491.268 677.872 491.284Z" fill="#E6E6E6"/>
<path d="M561.134 559.933C568.68 559.826 574.787 559.061 574.775 558.225C574.763 557.388 568.637 556.797 561.091 556.904C553.546 557.011 547.438 557.776 547.45 558.612C547.462 559.449 553.589 560.04 561.134 559.933Z" fill="#F2F2F2"/>
<path d="M436.5 383.474C444.046 383.367 450.153 382.603 450.141 381.766C450.129 380.93 444.003 380.339 436.457 380.446C428.912 380.553 422.805 381.318 422.816 382.154C422.828 382.99 428.955 383.582 436.5 383.474Z" fill="#F2F2F2"/>
<path opacity="0.9" d="M455.45 369.175C454.3 369.175 453.267 368.975 452.35 368.575C451.45 368.158 450.742 367.592 450.225 366.875C449.708 366.142 449.442 365.3 449.425 364.35L451.85 364.35C451.933 365.167 452.267 365.858 452.85 366.425C453.45 366.975 454.317 367.25 455.45 367.25C456.533 367.25 457.383 366.983 458 366.45C458.633 365.9 458.95 365.2 458.95 364.35C458.95 363.683 458.767 363.142 458.4 362.725C458.033 362.308 457.575 361.992 457.025 361.775C456.475 361.558 455.733 361.325 454.8 361.075C453.65 360.775 452.725 360.475 452.025 360.175C451.342 359.875 450.75 359.408 450.25 358.775C449.767 358.125 449.525 357.258 449.525 356.175C449.525 355.225 449.767 354.383 450.25 353.65C450.733 352.917 451.408 352.35 452.275 351.95C453.158 351.55 454.167 351.35 455.3 351.35C456.933 351.35 458.267 351.758 459.3 352.575C460.35 353.392 460.942 354.475 461.075 355.825L458.575 355.825C458.492 355.158 458.142 354.575 457.525 354.075C456.908 353.558 456.092 353.3 455.075 353.3C454.125 353.3 453.35 353.55 452.75 354.05C452.15 354.533 451.85 355.217 451.85 356.1C451.85 356.733 452.025 357.25 452.375 357.65C452.742 358.05 453.183 358.358 453.7 358.575C454.233 358.775 454.975 359.008 455.925 359.275C457.075 359.592 458 359.908 458.7 360.225C459.4 360.525 460 361 460.5 361.65C461 362.283 461.25 363.15 461.25 364.25C461.25 365.1 461.025 365.9 460.575 366.65C460.125 367.4 459.458 368.008 458.575 368.475C457.692 368.942 456.65 369.175 455.45 369.175ZM463.748 362.1C463.748 360.7 464.031 359.475 464.598 358.425C465.165 357.358 465.94 356.533 466.923 355.95C467.923 355.367 469.031 355.075 470.248 355.075C471.448 355.075 472.49 355.333 473.373 355.85C474.256 356.367 474.915 357.017 475.348 357.8L475.348 355.3L477.648 355.3L477.648 369L475.348 369L475.348 366.45C474.898 367.25 474.223 367.917 473.323 368.45C472.44 368.967 471.406 369.225 470.223 369.225C469.006 369.225 467.906 368.925 466.923 368.325C465.94 367.725 465.165 366.883 464.598 365.8C464.031 364.717 463.748 363.483 463.748 362.1ZM475.348 362.125C475.348 361.092 475.14 360.192 474.723 359.425C474.306 358.658 473.74 358.075 473.023 357.675C472.323 357.258 471.548 357.05 470.698 357.05C469.848 357.05 469.073 357.25 468.373 357.65C467.673 358.05 467.115 358.633 466.698 359.4C466.281 360.167 466.073 361.067 466.073 362.1C466.073 363.15 466.281 364.067 466.698 364.85C467.115 365.617 467.673 366.208 468.373 366.625C469.073 367.025 469.848 367.225 470.698 367.225C471.548 367.225 472.323 367.025 473.023 366.625C473.74 366.208 474.306 365.617 474.723 364.85C475.14 364.067 475.348 363.158 475.348 362.125ZM487.067 357.175L484.192 357.175L484.192 369L481.917 369L481.917 357.175L480.142 357.175L480.142 355.3L481.917 355.3L481.917 354.325C481.917 352.792 482.309 351.675 483.092 350.975C483.892 350.258 485.167 349.9 486.917 349.9L486.917 351.8C485.917 351.8 485.209 352 484.792 352.4C484.392 352.783 484.192 353.425 484.192 354.325L484.192 355.3L487.067 355.3L487.067 357.175ZM502.22 361.625C502.22 362.058 502.195 362.517 502.145 363L491.195 363C491.278 364.35 491.737 365.408 492.57 366.175C493.42 366.925 494.445 367.3 495.645 367.3C496.628 367.3 497.445 367.075 498.095 366.625C498.762 366.158 499.228 365.542 499.495 364.775L501.945 364.775C501.578 366.092 500.845 367.167 499.745 368C498.645 368.817 497.278 369.225 495.645 369.225C494.345 369.225 493.178 368.933 492.145 368.35C491.128 367.767 490.328 366.942 489.745 365.875C489.162 364.792 488.87 363.542 488.87 362.125C488.87 360.708 489.153 359.467 489.72 358.4C490.287 357.333 491.078 356.517 492.095 355.95C493.128 355.367 494.312 355.075 495.645 355.075C496.945 355.075 498.095 355.358 499.095 355.925C500.095 356.492 500.862 357.275 501.395 358.275C501.945 359.258 502.22 360.375 502.22 361.625ZM499.87 361.15C499.87 360.283 499.678 359.542 499.295 358.925C498.912 358.292 498.387 357.817 497.72 357.5C497.07 357.167 496.345 357 495.545 357C494.395 357 493.412 357.367 492.595 358.1C491.795 358.833 491.337 359.85 491.22 361.15L499.87 361.15ZM515.948 351.575L515.948 353.425L511.198 353.425L511.198 369L508.923 369L508.923 353.425L504.148 353.425L504.148 351.575L515.948 351.575ZM521.023 357.525C521.423 356.742 521.99 356.133 522.723 355.7C523.473 355.267 524.382 355.05 525.448 355.05L525.448 357.4L524.848 357.4C522.298 357.4 521.023 358.783 521.023 361.55L521.023 369L518.748 369L518.748 355.3L521.023 355.3L521.023 357.525ZM527.224 362.1C527.224 360.7 527.508 359.475 528.074 358.425C528.641 357.358 529.416 356.533 530.399 355.95C531.399 355.367 532.508 355.075 533.724 355.075C534.924 355.075 535.966 355.333 536.849 355.85C537.733 356.367 538.391 357.017 538.824 357.8L538.824 355.3L541.124 355.3L541.124 369L538.824 369L538.824 366.45C538.374 367.25 537.699 367.917 536.799 368.45C535.916 368.967 534.883 369.225 533.699 369.225C532.483 369.225 531.383 368.925 530.399 368.325C529.416 367.725 528.641 366.883 528.074 365.8C527.508 364.717 527.224 363.483 527.224 362.1ZM538.824 362.125C538.824 361.092 538.616 360.192 538.199 359.425C537.783 358.658 537.216 358.075 536.499 357.675C535.799 357.258 535.024 357.05 534.174 357.05C533.324 357.05 532.549 357.25 531.849 357.65C531.149 358.05 530.591 358.633 530.174 359.4C529.758 360.167 529.549 361.067 529.549 362.1C529.549 363.15 529.758 364.067 530.174 364.85C530.591 365.617 531.149 366.208 531.849 366.625C532.549 367.025 533.324 367.225 534.174 367.225C535.024 367.225 535.799 367.025 536.499 366.625C537.216 366.208 537.783 365.617 538.199 364.85C538.616 364.067 538.824 363.158 538.824 362.125Z" fill="black"/>
<path d="M495.625 455.859C511.296 455.859 524 443.087 524 427.331C524 411.575 511.296 398.802 495.625 398.802C479.954 398.802 467.25 411.575 467.25 427.331C467.25 443.087 479.954 455.859 495.625 455.859Z" fill="#D55848"/>
<path d="M507.381 439.761L483.87 439.761C483.441 439.761 483.028 439.589 482.724 439.283C482.42 438.978 482.249 438.563 482.249 438.131L482.249 423.867C482.249 423.434 482.42 423.02 482.724 422.714C483.028 422.409 483.441 422.237 483.87 422.236L507.381 422.236C507.811 422.237 508.223 422.409 508.527 422.714C508.831 423.02 509.002 423.434 509.003 423.867L509.003 438.131C509.002 438.563 508.831 438.978 508.527 439.283C508.223 439.589 507.811 439.761 507.381 439.761ZM483.87 423.867L483.87 438.131L507.383 438.131L507.381 423.867L483.87 423.867Z" fill="white"/>
<path d="M502.922 423.867L488.329 423.867L488.329 417.346C488.329 412.623 491.398 409.195 495.626 409.195C499.853 409.195 502.922 412.623 502.922 417.346L502.922 423.867ZM489.951 422.236L501.301 422.236L501.301 417.346C501.301 413.507 498.967 410.825 495.626 410.825C492.284 410.825 489.951 413.507 489.951 417.346L489.951 422.236Z" fill="white"/>
</g>
<defs>
<linearGradient id="paint0_linear_764_1174" x1="481.5" y1="-130" x2="543.5" y2="967.5" gradientUnits="userSpaceOnUse">
<stop stop-color="#D55848" stop-opacity="0.15"/>
<stop offset="1" stop-color="#48C5D5" stop-opacity="0.15"/>
</linearGradient>
<clipPath id="clip0_764_1174">
<rect width="497" height="415" fill="white" transform="translate(247.081 225.546) rotate(-0.812832)"/>
</clipPath>
</defs>
</svg>
