<svg width="1899" height="783" viewBox="0 0 1899 783" fill="none" xmlns="http://www.w3.org/2000/svg">
<rect width="1899" height="783" fill="white"/>
<rect x="1528" y="569" width="10" height="10" fill="#EA580C" fill-opacity="0.3"/>
<rect x="1508" y="559" width="10" height="10" fill="#EA580C" fill-opacity="0.3"/>
<rect x="1488" y="549" width="10" height="10" fill="#EA580C" fill-opacity="0.3"/>
<rect x="1468" y="579" width="10" height="10" fill="#EA580C" fill-opacity="0.3"/>
<rect x="1447" y="569" width="10" height="10" fill="#EA580C" fill-opacity="0.3"/>
<rect x="1426" y="559" width="10" height="10" fill="#EA580C" fill-opacity="0.3"/>
<rect x="1495" y="584" width="10" height="10" fill="#EA580C" fill-opacity="0.3"/>
<rect x="1411" y="587" width="10" height="10" fill="#EA580C" fill-opacity="0.3"/>
<rect x="1663" y="595" width="10" height="10" fill="#48C5D5" fill-opacity="0.3"/>
<rect x="1643" y="585" width="10" height="10" fill="#48C5D5" fill-opacity="0.3"/>
<rect x="1623" y="575" width="10" height="10" fill="#48C5D5" fill-opacity="0.3"/>
<rect x="1603" y="605" width="10" height="10" fill="#48C5D5" fill-opacity="0.3"/>
<rect x="1582" y="595" width="10" height="10" fill="#48C5D5" fill-opacity="0.3"/>
<rect x="1561" y="585" width="10" height="10" fill="#48C5D5" fill-opacity="0.3"/>
<rect x="1630" y="610" width="10" height="10" fill="#48C5D5" fill-opacity="0.3"/>
<rect x="1546" y="613" width="10" height="10" fill="#48C5D5" fill-opacity="0.3"/>
<rect x="1673" y="555" width="10" height="10" fill="#48C5D5" fill-opacity="0.3"/>
<rect x="1653" y="545" width="10" height="10" fill="#48C5D5" fill-opacity="0.3"/>
<rect x="1633" y="535" width="10" height="10" fill="#48C5D5" fill-opacity="0.3"/>
<rect x="1613" y="565" width="10" height="10" fill="#48C5D5" fill-opacity="0.3"/>
<rect x="1592" y="555" width="10" height="10" fill="#48C5D5" fill-opacity="0.3"/>
<rect x="1571" y="545" width="10" height="10" fill="#48C5D5" fill-opacity="0.3"/>
<rect x="1640" y="570" width="10" height="10" fill="#48C5D5" fill-opacity="0.3"/>
<rect x="1556" y="573" width="10" height="10" fill="#48C5D5" fill-opacity="0.3"/>
<rect x="1683" y="635" width="10" height="10" fill="#48C5D5" fill-opacity="0.3"/>
<rect x="1663" y="625" width="10" height="10" fill="#48C5D5" fill-opacity="0.3"/>
<rect x="1643" y="615" width="10" height="10" fill="#48C5D5" fill-opacity="0.3"/>
<rect x="1623" y="645" width="10" height="10" fill="#48C5D5" fill-opacity="0.3"/>
<rect x="1602" y="635" width="10" height="10" fill="#48C5D5" fill-opacity="0.3"/>
<rect x="1581" y="625" width="10" height="10" fill="#48C5D5" fill-opacity="0.3"/>
<rect x="1650" y="650" width="10" height="10" fill="#48C5D5" fill-opacity="0.3"/>
<rect x="1566" y="653" width="10" height="10" fill="#48C5D5" fill-opacity="0.3"/>
<rect x="1528" y="644" width="10" height="10" fill="#EA580C" fill-opacity="0.3"/>
<rect x="1508" y="634" width="10" height="10" fill="#EA580C" fill-opacity="0.3"/>
<rect x="1488" y="624" width="10" height="10" fill="#EA580C" fill-opacity="0.3"/>
<rect x="1468" y="654" width="10" height="10" fill="#EA580C" fill-opacity="0.3"/>
<rect x="1447" y="644" width="10" height="10" fill="#EA580C" fill-opacity="0.3"/>
<rect x="1426" y="634" width="10" height="10" fill="#EA580C" fill-opacity="0.3"/>
<rect x="1495" y="659" width="10" height="10" fill="#EA580C" fill-opacity="0.3"/>
<rect x="1411" y="662" width="10" height="10" fill="#EA580C" fill-opacity="0.3"/>
<rect x="1573" y="704" width="10" height="10" fill="#EA580C" fill-opacity="0.3"/>
<rect x="1553" y="694" width="10" height="10" fill="#EA580C" fill-opacity="0.3"/>
<rect x="1533" y="684" width="10" height="10" fill="#EA580C" fill-opacity="0.3"/>
<rect x="1513" y="714" width="10" height="10" fill="#EA580C" fill-opacity="0.3"/>
<rect x="1492" y="704" width="10" height="10" fill="#EA580C" fill-opacity="0.3"/>
<rect x="1471" y="694" width="10" height="10" fill="#EA580C" fill-opacity="0.3"/>
<rect x="1540" y="719" width="10" height="10" fill="#EA580C" fill-opacity="0.3"/>
<rect x="1456" y="722" width="10" height="10" fill="#EA580C" fill-opacity="0.3"/>
<rect x="1589" y="534" width="5" height="5" fill="#D9D9D9"/>
<rect x="1569" y="524" width="5" height="5" fill="#D9D9D9"/>
<rect x="1549" y="514" width="5" height="5" fill="#D9D9D9"/>
<rect x="1529" y="544" width="5" height="5" fill="#D9D9D9"/>
<rect x="1508" y="534" width="5" height="5" fill="#D9D9D9"/>
<rect x="1487" y="524" width="5" height="5" fill="#D9D9D9"/>
<rect x="1556" y="549" width="5" height="5" fill="#D9D9D9"/>
<rect x="1472" y="552" width="5" height="5" fill="#D9D9D9"/>
<rect x="1579" y="584" width="5" height="5" fill="#EA580C" fill-opacity="0.3"/>
<rect x="1559" y="574" width="5" height="5" fill="#EA580C" fill-opacity="0.3"/>
<rect x="1539" y="564" width="5" height="5" fill="#EA580C" fill-opacity="0.3"/>
<rect x="1519" y="594" width="5" height="5" fill="#EA580C" fill-opacity="0.3"/>
<rect x="1498" y="584" width="5" height="5" fill="#EA580C" fill-opacity="0.3"/>
<rect x="1477" y="574" width="5" height="5" fill="#EA580C" fill-opacity="0.3"/>
<rect x="1546" y="599" width="5" height="5" fill="#EA580C" fill-opacity="0.3"/>
<rect x="1462" y="602" width="5" height="5" fill="#EA580C" fill-opacity="0.3"/>
<rect x="1569" y="642.604" width="5" height="4.65116" fill="#D55848"/>
<rect x="1549" y="633.302" width="5" height="4.65116" fill="#D55848"/>
<rect x="1529" y="624" width="5" height="4.65116" fill="#D55848"/>
<rect x="1509" y="651.907" width="5" height="4.65116" fill="#D55848"/>
<rect x="1488" y="642.604" width="5" height="4.65116" fill="#D55848"/>
<rect x="1467" y="633.302" width="5" height="4.65116" fill="#D55848"/>
<rect x="1536" y="656.558" width="5" height="4.65116" fill="#D55848"/>
<rect x="1452" y="659.349" width="5" height="4.65116" fill="#D55848"/>
<rect x="1579" y="604" width="5" height="5" fill="#D55848"/>
<rect x="1559" y="594" width="5" height="5" fill="#D55848"/>
<rect x="1539" y="584" width="5" height="5" fill="#D55848"/>
<rect x="1519" y="614" width="5" height="5" fill="#D55848"/>
<rect x="1498" y="604" width="5" height="5" fill="#D55848"/>
<rect x="1477" y="594" width="5" height="5" fill="#D55848"/>
<rect x="1546" y="619" width="5" height="5" fill="#D55848"/>
<rect x="1462" y="622" width="5" height="5" fill="#D55848"/>
<rect x="1553" y="677" width="5" height="5" fill="#48C5D5" fill-opacity="0.3"/>
<rect x="1533" y="667" width="5" height="5" fill="#48C5D5" fill-opacity="0.3"/>
<rect x="1513" y="657" width="5" height="5" fill="#48C5D5" fill-opacity="0.3"/>
<rect x="1493" y="687" width="5" height="5" fill="#48C5D5" fill-opacity="0.3"/>
<rect x="1472" y="677" width="5" height="5" fill="#48C5D5" fill-opacity="0.3"/>
<rect x="1451" y="667" width="5" height="5" fill="#48C5D5" fill-opacity="0.3"/>
<rect x="1520" y="692" width="5" height="5" fill="#48C5D5" fill-opacity="0.3"/>
<rect x="1436" y="695" width="5" height="5" fill="#48C5D5" fill-opacity="0.3"/>
<rect x="1537" y="720" width="5" height="5" fill="#EA580C" fill-opacity="0.3"/>
<rect x="1517" y="710" width="5" height="5" fill="#EA580C" fill-opacity="0.3"/>
<rect x="1497" y="700" width="5" height="5" fill="#EA580C" fill-opacity="0.3"/>
<rect x="1477" y="730" width="5" height="5" fill="#EA580C" fill-opacity="0.3"/>
<rect x="1456" y="720" width="5" height="5" fill="#EA580C" fill-opacity="0.3"/>
<rect x="1435" y="710" width="5" height="5" fill="#EA580C" fill-opacity="0.3"/>
<rect x="1504" y="735" width="5" height="5" fill="#EA580C" fill-opacity="0.3"/>
<rect x="1420" y="738" width="5" height="5" fill="#EA580C" fill-opacity="0.3"/>
<rect x="1554" y="183" width="10" height="10" transform="rotate(-180 1554 183)" fill="#EA580C" fill-opacity="0.3"/>
<rect x="1574" y="193" width="10" height="10" transform="rotate(-180 1574 193)" fill="#EA580C" fill-opacity="0.3"/>
<rect x="1594" y="203" width="10" height="10" transform="rotate(-180 1594 203)" fill="#EA580C" fill-opacity="0.3"/>
<rect x="1614" y="173" width="10" height="10" transform="rotate(-180 1614 173)" fill="#EA580C" fill-opacity="0.3"/>
<rect x="1635" y="183" width="10" height="10" transform="rotate(-180 1635 183)" fill="#EA580C" fill-opacity="0.3"/>
<rect x="1656" y="193" width="10" height="10" transform="rotate(-180 1656 193)" fill="#EA580C" fill-opacity="0.3"/>
<rect x="1587" y="168" width="10" height="10" transform="rotate(-180 1587 168)" fill="#EA580C" fill-opacity="0.3"/>
<rect x="1671" y="165" width="10" height="10" transform="rotate(-180 1671 165)" fill="#EA580C" fill-opacity="0.3"/>
<rect x="1419" y="157" width="10" height="10" transform="rotate(-180 1419 157)" fill="#48C5D5" fill-opacity="0.3"/>
<rect x="1439" y="167" width="10" height="10" transform="rotate(-180 1439 167)" fill="#48C5D5" fill-opacity="0.3"/>
<rect x="1459" y="177" width="10" height="10" transform="rotate(-180 1459 177)" fill="#48C5D5" fill-opacity="0.3"/>
<rect x="1479" y="147" width="10" height="10" transform="rotate(-180 1479 147)" fill="#48C5D5" fill-opacity="0.3"/>
<rect x="1500" y="157" width="10" height="10" transform="rotate(-180 1500 157)" fill="#48C5D5" fill-opacity="0.3"/>
<rect x="1521" y="167" width="10" height="10" transform="rotate(-180 1521 167)" fill="#48C5D5" fill-opacity="0.3"/>
<rect x="1452" y="142" width="10" height="10" transform="rotate(-180 1452 142)" fill="#48C5D5" fill-opacity="0.3"/>
<rect x="1536" y="139" width="10" height="10" transform="rotate(-180 1536 139)" fill="#48C5D5" fill-opacity="0.3"/>
<rect x="1409" y="197" width="10" height="10" transform="rotate(-180 1409 197)" fill="#48C5D5" fill-opacity="0.3"/>
<rect x="1429" y="207" width="10" height="10" transform="rotate(-180 1429 207)" fill="#48C5D5" fill-opacity="0.3"/>
<rect x="1449" y="217" width="10" height="10" transform="rotate(-180 1449 217)" fill="#48C5D5" fill-opacity="0.3"/>
<rect x="1469" y="187" width="10" height="10" transform="rotate(-180 1469 187)" fill="#48C5D5" fill-opacity="0.3"/>
<rect x="1490" y="197" width="10" height="10" transform="rotate(-180 1490 197)" fill="#48C5D5" fill-opacity="0.3"/>
<rect x="1511" y="207" width="10" height="10" transform="rotate(-180 1511 207)" fill="#48C5D5" fill-opacity="0.3"/>
<rect x="1442" y="182" width="10" height="10" transform="rotate(-180 1442 182)" fill="#48C5D5" fill-opacity="0.3"/>
<rect x="1526" y="179" width="10" height="10" transform="rotate(-180 1526 179)" fill="#48C5D5" fill-opacity="0.3"/>
<rect x="1399" y="117" width="10" height="10" transform="rotate(-180 1399 117)" fill="#48C5D5" fill-opacity="0.3"/>
<rect x="1419" y="127" width="10" height="10" transform="rotate(-180 1419 127)" fill="#48C5D5" fill-opacity="0.3"/>
<rect x="1439" y="137" width="10" height="10" transform="rotate(-180 1439 137)" fill="#48C5D5" fill-opacity="0.3"/>
<rect x="1459" y="107" width="10" height="10" transform="rotate(-180 1459 107)" fill="#48C5D5" fill-opacity="0.3"/>
<rect x="1480" y="117" width="10" height="10" transform="rotate(-180 1480 117)" fill="#48C5D5" fill-opacity="0.3"/>
<rect x="1501" y="127" width="10" height="10" transform="rotate(-180 1501 127)" fill="#48C5D5" fill-opacity="0.3"/>
<rect x="1432" y="102" width="10" height="10" transform="rotate(-180 1432 102)" fill="#48C5D5" fill-opacity="0.3"/>
<rect x="1516" y="99" width="10" height="10" transform="rotate(-180 1516 99)" fill="#48C5D5" fill-opacity="0.3"/>
<rect x="1554" y="108" width="10" height="10" transform="rotate(-180 1554 108)" fill="#EA580C" fill-opacity="0.3"/>
<rect x="1574" y="118" width="10" height="10" transform="rotate(-180 1574 118)" fill="#EA580C" fill-opacity="0.3"/>
<rect x="1594" y="128" width="10" height="10" transform="rotate(-180 1594 128)" fill="#EA580C" fill-opacity="0.3"/>
<rect x="1614" y="98" width="10" height="10" transform="rotate(-180 1614 98)" fill="#EA580C" fill-opacity="0.3"/>
<rect x="1635" y="108" width="10" height="10" transform="rotate(-180 1635 108)" fill="#EA580C" fill-opacity="0.3"/>
<rect x="1656" y="118" width="10" height="10" transform="rotate(-180 1656 118)" fill="#EA580C" fill-opacity="0.3"/>
<rect x="1587" y="93" width="10" height="10" transform="rotate(-180 1587 93)" fill="#EA580C" fill-opacity="0.3"/>
<rect x="1671" y="90" width="10" height="10" transform="rotate(-180 1671 90)" fill="#EA580C" fill-opacity="0.3"/>
<rect x="1509" y="48" width="10" height="10" transform="rotate(-180 1509 48)" fill="#EA580C" fill-opacity="0.3"/>
<rect x="1529" y="58" width="10" height="10" transform="rotate(-180 1529 58)" fill="#EA580C" fill-opacity="0.3"/>
<rect x="1549" y="68" width="10" height="10" transform="rotate(-180 1549 68)" fill="#EA580C" fill-opacity="0.3"/>
<rect x="1569" y="38" width="10" height="10" transform="rotate(-180 1569 38)" fill="#EA580C" fill-opacity="0.3"/>
<rect x="1590" y="48" width="10" height="10" transform="rotate(-180 1590 48)" fill="#EA580C" fill-opacity="0.3"/>
<rect x="1611" y="58" width="10" height="10" transform="rotate(-180 1611 58)" fill="#EA580C" fill-opacity="0.3"/>
<rect x="1542" y="33" width="10" height="10" transform="rotate(-180 1542 33)" fill="#EA580C" fill-opacity="0.3"/>
<rect x="1626" y="30" width="10" height="10" transform="rotate(-180 1626 30)" fill="#EA580C" fill-opacity="0.3"/>
<rect x="1493" y="218" width="5" height="5" transform="rotate(-180 1493 218)" fill="#D9D9D9"/>
<rect x="1513" y="228" width="5" height="5" transform="rotate(-180 1513 228)" fill="#D9D9D9"/>
<rect x="1533" y="238" width="5" height="5" transform="rotate(-180 1533 238)" fill="#D9D9D9"/>
<rect x="1553" y="208" width="5" height="5" transform="rotate(-180 1553 208)" fill="#D9D9D9"/>
<rect x="1574" y="218" width="5" height="5" transform="rotate(-180 1574 218)" fill="#D9D9D9"/>
<rect x="1595" y="228" width="5" height="5" transform="rotate(-180 1595 228)" fill="#D9D9D9"/>
<rect x="1526" y="203" width="5" height="5" transform="rotate(-180 1526 203)" fill="#D9D9D9"/>
<rect x="1610" y="200" width="5" height="5" transform="rotate(-180 1610 200)" fill="#D9D9D9"/>
<rect x="1503" y="168" width="5" height="5" transform="rotate(-180 1503 168)" fill="#EA580C" fill-opacity="0.3"/>
<rect x="1523" y="178" width="5" height="5" transform="rotate(-180 1523 178)" fill="#EA580C" fill-opacity="0.3"/>
<rect x="1543" y="188" width="5" height="5" transform="rotate(-180 1543 188)" fill="#EA580C" fill-opacity="0.3"/>
<rect x="1563" y="158" width="5" height="5" transform="rotate(-180 1563 158)" fill="#EA580C" fill-opacity="0.3"/>
<rect x="1584" y="168" width="5" height="5" transform="rotate(-180 1584 168)" fill="#EA580C" fill-opacity="0.3"/>
<rect x="1605" y="178" width="5" height="5" transform="rotate(-180 1605 178)" fill="#EA580C" fill-opacity="0.3"/>
<rect x="1536" y="153" width="5" height="5" transform="rotate(-180 1536 153)" fill="#EA580C" fill-opacity="0.3"/>
<rect x="1620" y="150" width="5" height="5" transform="rotate(-180 1620 150)" fill="#EA580C" fill-opacity="0.3"/>
<rect x="1513" y="109.396" width="5" height="4.65116" transform="rotate(-180 1513 109.396)" fill="#D55848"/>
<rect x="1533" y="118.698" width="5" height="4.65116" transform="rotate(-180 1533 118.698)" fill="#D55848"/>
<rect x="1553" y="128" width="5" height="4.65116" transform="rotate(-180 1553 128)" fill="#D55848"/>
<rect x="1573" y="100.093" width="5" height="4.65116" transform="rotate(-180 1573 100.093)" fill="#D55848"/>
<rect x="1594" y="109.396" width="5" height="4.65116" transform="rotate(-180 1594 109.396)" fill="#D55848"/>
<rect x="1615" y="118.698" width="5" height="4.65116" transform="rotate(-180 1615 118.698)" fill="#D55848"/>
<rect x="1546" y="95.4419" width="5" height="4.65116" transform="rotate(-180 1546 95.4419)" fill="#D55848"/>
<rect x="1630" y="92.6514" width="5" height="4.65116" transform="rotate(-180 1630 92.6514)" fill="#D55848"/>
<rect x="1503" y="148" width="5" height="5" transform="rotate(-180 1503 148)" fill="#D55848"/>
<rect x="1523" y="158" width="5" height="5" transform="rotate(-180 1523 158)" fill="#D55848"/>
<rect x="1543" y="168" width="5" height="5" transform="rotate(-180 1543 168)" fill="#D55848"/>
<rect x="1563" y="138" width="5" height="5" transform="rotate(-180 1563 138)" fill="#D55848"/>
<rect x="1584" y="148" width="5" height="5" transform="rotate(-180 1584 148)" fill="#D55848"/>
<rect x="1605" y="158" width="5" height="5" transform="rotate(-180 1605 158)" fill="#D55848"/>
<rect x="1536" y="133" width="5" height="5" transform="rotate(-180 1536 133)" fill="#D55848"/>
<rect x="1620" y="130" width="5" height="5" transform="rotate(-180 1620 130)" fill="#D55848"/>
<rect x="1529" y="75" width="5" height="5" transform="rotate(-180 1529 75)" fill="#48C5D5" fill-opacity="0.3"/>
<rect x="1549" y="85" width="5" height="5" transform="rotate(-180 1549 85)" fill="#48C5D5" fill-opacity="0.3"/>
<rect x="1569" y="95" width="5" height="5" transform="rotate(-180 1569 95)" fill="#48C5D5" fill-opacity="0.3"/>
<rect x="1589" y="65" width="5" height="5" transform="rotate(-180 1589 65)" fill="#48C5D5" fill-opacity="0.3"/>
<rect x="1610" y="75" width="5" height="5" transform="rotate(-180 1610 75)" fill="#48C5D5" fill-opacity="0.3"/>
<rect x="1631" y="85" width="5" height="5" transform="rotate(-180 1631 85)" fill="#48C5D5" fill-opacity="0.3"/>
<rect x="1562" y="60" width="5" height="5" transform="rotate(-180 1562 60)" fill="#48C5D5" fill-opacity="0.3"/>
<rect x="1646" y="57" width="5" height="5" transform="rotate(-180 1646 57)" fill="#48C5D5" fill-opacity="0.3"/>
<rect x="1545" y="32" width="5" height="5" transform="rotate(-180 1545 32)" fill="#EA580C" fill-opacity="0.3"/>
<rect x="1565" y="42" width="5" height="5" transform="rotate(-180 1565 42)" fill="#EA580C" fill-opacity="0.3"/>
<rect x="1585" y="52" width="5" height="5" transform="rotate(-180 1585 52)" fill="#EA580C" fill-opacity="0.3"/>
<rect x="1605" y="22" width="5" height="5" transform="rotate(-180 1605 22)" fill="#EA580C" fill-opacity="0.3"/>
<rect x="1626" y="32" width="5" height="5" transform="rotate(-180 1626 32)" fill="#EA580C" fill-opacity="0.3"/>
<rect x="1647" y="42" width="5" height="5" transform="rotate(-180 1647 42)" fill="#EA580C" fill-opacity="0.3"/>
<rect x="1578" y="17" width="5" height="5" transform="rotate(-180 1578 17)" fill="#EA580C" fill-opacity="0.3"/>
<rect x="1662" y="14" width="5" height="5" transform="rotate(-180 1662 14)" fill="#EA580C" fill-opacity="0.3"/>
<rect x="739" y="641" width="5" height="5" fill="#D9D9D9"/>
<rect x="719" y="631" width="5" height="5" fill="#D9D9D9"/>
<rect x="699" y="621" width="5" height="5" fill="#D9D9D9"/>
<rect x="679" y="651" width="5" height="5" fill="#D9D9D9"/>
<rect x="658" y="641" width="5" height="5" fill="#D9D9D9"/>
<rect x="637" y="631" width="5" height="5" fill="#D9D9D9"/>
<rect x="706" y="656" width="5" height="5" fill="#D9D9D9"/>
<rect x="622" y="659" width="5" height="5" fill="#D9D9D9"/>
<rect x="362" y="68" width="3" height="592" fill="#48C5D5"/>
<rect x="325" y="93" width="3" height="613" fill="#D55848"/>
<rect x="266.5" y="134.5" width="3" height="688" transform="rotate(-90 266.5 134.5)" fill="#48C5D5"/>
<rect x="267" y="149" width="3" height="688" transform="rotate(-90 267 149)" fill="#EA580C"/>
<rect x="343" y="79" width="3" height="602" fill="#F1D1AB"/>
<rect x="379" y="50" width="3" height="587" fill="#212327"/>
<rect x="309" y="109" width="3" height="633" fill="#0E2E54"/>
</svg>
