<svg width="1000" height="646" viewBox="0 0 1000 646" fill="none" xmlns="http://www.w3.org/2000/svg">
<g clip-path="url(#clip0_794_1686)">
<path d="M261 448V398.528H231.528V477.472H310.472V448H261Z" fill="#F1D1AB"/>
<path d="M349.472 359.528H270.528V438.472H349.472V359.528Z" fill="#D55848"/>
<path d="M792 262C864.349 262 923 203.349 923 131C923 58.6507 864.349 0 792 0C719.651 0 661 58.6507 661 131C661 203.349 719.651 262 792 262Z" fill="#E6E6E6"/>
<path d="M817.6 154.705C813.645 169.324 800.099 178.378 800.099 178.378C800.099 178.378 792.965 163.73 796.92 149.11C800.875 134.491 814.421 125.437 814.421 125.437C814.421 125.437 821.555 140.085 817.6 154.705Z" fill="#3F3D56"/>
<path d="M786.901 231.16C794.442 244.294 791.265 260.275 791.265 260.275C791.265 260.275 775.863 254.961 768.322 241.827C760.781 228.693 763.957 212.712 763.957 212.712C763.957 212.712 779.36 218.026 786.901 231.16Z" fill="#3F3D56"/>
<path d="M779.053 61.1155C786.594 74.2495 783.417 90.2304 783.417 90.2304C783.417 90.2304 768.014 84.9168 760.473 71.7829C752.932 58.6489 756.109 42.668 756.109 42.668C756.109 42.668 771.512 47.9815 779.053 61.1155Z" fill="#3F3D56"/>
<path d="M791.177 261.585L790.781 259.887L790.979 260.736L790.777 259.888C790.838 259.873 796.894 258.328 801.44 250.065C807.42 239.196 811.145 216.236 794.933 168.582C780.005 124.704 781.757 90.8292 785.856 70.1382C790.307 47.6614 798.189 35.7622 798.522 35.2666L799.97 36.24C799.89 36.3592 791.919 48.4134 787.545 70.581C783.508 91.0463 781.799 124.562 796.583 168.02C813.037 216.383 809.108 239.841 802.913 251.005C797.974 259.906 791.452 261.521 791.177 261.585Z" fill="#3F3D56"/>
<path d="M799.246 57.5543C811.286 57.5543 821.047 47.7938 821.047 35.7537C821.047 23.7136 811.286 13.9531 799.246 13.9531C787.206 13.9531 777.446 23.7136 777.446 35.7537C777.446 47.7938 787.206 57.5543 799.246 57.5543Z" fill="#D55848"/>
<path d="M131.427 536.161C127.53 550.565 114.184 559.485 114.184 559.485C114.184 559.485 107.156 545.053 111.052 530.65C114.948 516.246 128.295 507.326 128.295 507.326C128.295 507.326 135.323 521.758 131.427 536.161Z" fill="#E6E6E6"/>
<path d="M101.181 611.487C108.611 624.427 105.481 640.172 105.481 640.172C105.481 640.172 90.3059 634.937 82.8763 621.997C75.4467 609.057 78.5761 593.312 78.5761 593.312C78.5761 593.312 93.7513 598.548 101.181 611.487Z" fill="#E6E6E6"/>
<path d="M93.4486 443.955C100.878 456.895 97.7489 472.64 97.7489 472.64C97.7489 472.64 82.5736 467.405 75.144 454.465C67.7144 441.525 70.8438 425.78 70.8438 425.78C70.8438 425.78 86.019 431.015 93.4486 443.955Z" fill="#E6E6E6"/>
<path d="M105.394 641.463L105.003 639.79L105.199 640.626L105 639.791C105.06 639.776 111.027 638.254 115.505 630.114C121.397 619.404 125.067 596.784 109.094 549.834C94.387 506.604 96.1132 473.23 100.151 452.844C104.537 430.7 112.303 418.976 112.631 418.488L114.057 419.447C113.978 419.564 106.125 431.44 101.816 453.281C97.8386 473.444 96.1543 506.464 110.721 549.28C126.931 596.928 123.059 620.04 116.957 631.039C112.091 639.809 105.666 641.4 105.394 641.463Z" fill="#E6E6E6"/>
<path d="M113.344 440.446C125.206 440.446 134.822 430.83 134.822 418.968C134.822 407.106 125.206 397.489 113.344 397.489C101.482 397.489 91.8654 407.106 91.8654 418.968C91.8654 430.83 101.482 440.446 113.344 440.446Z" fill="#E6E6E6"/>
<path d="M1000 642.592H0V644.592H1000V642.592Z" fill="#3F3D56"/>
<path d="M477.995 186.558L491.787 222.276L527.511 297.68C527.511 297.68 564.108 346.85 544.735 350.551C525.363 354.252 512.78 306.224 512.78 306.224L462.863 228.938L477.995 186.558Z" fill="#FFB8B8"/>
<path d="M449.5 107.092C466.069 107.092 479.5 93.6608 479.5 77.0923C479.5 60.5237 466.069 47.0923 449.5 47.0923C432.931 47.0923 419.5 60.5237 419.5 77.0923C419.5 93.6608 432.931 107.092 449.5 107.092Z" fill="#FFB8B8"/>
<path d="M426.5 88.0923C426.5 88.0923 427.5 121.092 414.5 128.092C414.5 128.092 441.5 127.092 455.5 149.092H468.5C468.5 149.092 448.5 135.092 458.5 101.092L426.5 88.0923Z" fill="#FFB8B8"/>
<path d="M570.5 510.092C570.5 510.092 507.5 525.092 462.5 507.092C417.5 489.092 412.5 501.092 369.5 506.092C326.5 511.092 351.5 488.092 351.5 488.092C351.5 488.092 424.5 298.092 435.5 278.092C446.5 258.092 441.5 245.092 441.5 245.092L420.5 216.092C420.5 216.092 415.58 203.462 410.28 188.792C404.14 171.772 397.5 152.002 397.5 146.092C397.5 139.612 404.76 133.362 410.73 129.332C413.197 127.655 415.765 126.132 418.42 124.772C431.33 121.452 460.5 143.092 460.5 143.092C460.5 143.092 468.5 149.092 489.5 164.092C510.5 179.092 501.5 210.092 501.5 210.092L507.5 291.092C547.5 331.092 570.5 510.092 570.5 510.092Z" fill="#2F2E41"/>
<path d="M426.5 137.092C426.5 137.092 408.5 116.092 394.5 158.092C380.5 200.092 377.5 233.092 377.5 233.092L351.5 320.092C351.5 320.092 323.5 367.092 344.5 370.092C365.5 373.092 371.5 320.092 371.5 320.092L423.5 182.092C423.5 182.092 440.5 151.092 426.5 137.092Z" fill="#FFB8B8"/>
<path d="M368.5 495.092L341.5 537.092C341.5 537.092 316.5 540.092 313.5 556.092C310.5 572.092 301.5 581.092 301.5 581.092L305.5 585.092L324.5 572.092L326.5 598.092C326.5 598.092 337.5 629.092 355.5 622.092C373.5 615.092 352.5 594.092 352.5 594.092L362.5 559.092L418.5 489.092L368.5 495.092Z" fill="#2F2E41"/>
<path d="M515.5 506.092L531.5 578.092C531.5 578.092 519.5 600.092 525.5 614.092C531.5 628.092 531.5 644.092 531.5 644.092H540.5L544.5 620.092L566.5 643.092C566.5 643.092 614.5 651.092 614.5 635.092C614.5 619.092 588.5 619.092 588.5 619.092L564.5 579.092L554.5 506.092H515.5Z" fill="#2F2E41"/>
<path d="M434.471 32.0739C436.114 32.0771 437.752 32.2401 439.363 32.5604C442.275 31.1472 445.468 30.4113 448.704 30.4077H449.551C465.896 30.4077 479.146 45.1978 479.146 63.4423L473.669 63.4424L472.785 56.7101L471.488 63.4424H466.926C455.021 68.5937 461.455 113.612 469.045 113.617H460.765L455.971 101.159L457.169 113.617H403.946L399.588 102.291L400.677 113.617H394.685V87.2158C394.685 56.7618 412.498 32.0739 434.471 32.0739Z" fill="#2F2E41"/>
</g>
<defs>
<clipPath id="clip0_794_1686">
<rect width="1000" height="645.092" fill="white"/>
</clipPath>
</defs>
</svg>
