<svg width="836" height="717" viewBox="0 0 836 717" fill="none" xmlns="http://www.w3.org/2000/svg">
<path d="M709.939 313.575C708.685 320.167 707.182 326.691 705.428 333.149C705.238 333.899 705.025 334.637 704.813 335.387H680.427C678.35 335.389 676.358 336.215 674.89 337.684C673.421 339.153 672.595 341.144 672.593 343.221V412.743C671.854 414.119 671.104 415.485 670.354 416.85C666.482 423.901 662.453 430.873 658.334 437.756C591.178 549.621 497.513 643.233 385.609 710.325L392.234 695.373C389.805 695.205 387.366 695.037 384.938 694.869C332.058 691.254 278.999 687.248 227.361 675.363C173.34 662.929 120.494 641.363 78.156 605.606C35.807 569.838 4.76203 518.76 0.453187 463.496C-0.983581 444.503 0.937264 425.406 6.12763 407.08C16.0541 371.804 37.7436 340.065 69.0351 321.286C118.188 291.796 182.304 297.806 234.121 322.338C285.926 346.858 328.096 387.45 369.27 427.336C327.699 356.05 269.819 295.635 200.378 251.048C177.369 236.32 152.949 223.203 133.386 204.122C113.834 185.052 99.4084 158.315 102.867 131.22C106.795 100.489 131.965 77.1655 157.179 59.1808C167.251 51.9959 177.648 45.1802 188.37 38.913C218.62 21.1856 251.345 7.8118 285.904 2.85397C332.718 -3.87213 383.281 6.33453 419.172 37.1335C459.607 71.8384 476.193 127.807 474.615 181.347C499.527 145.132 537.948 117.41 581.337 116.235C626.383 115.026 669.202 143.486 691.764 182.5C714.315 221.502 718.366 269.312 709.939 313.575Z" fill="#E6E6E6"/>
<path d="M424.937 463.983C451.321 461.659 475.692 458.945 501.259 451.71C526.041 444.698 549.887 432.959 567.529 413.791C586.504 393.175 596.746 366.4 603.973 339.747C608.003 324.887 611.313 309.819 614.437 294.746C617.827 278.392 620.838 261.965 623.472 245.466C628.715 212.624 632.458 179.589 634.701 146.361C634.972 142.328 635.22 138.293 635.446 134.256C635.586 131.767 631.713 131.775 631.573 134.256C629.731 167.01 626.416 199.636 621.63 232.135C616.906 264.064 610.863 295.855 603.195 327.212C596.699 353.777 588.288 380.756 571.628 402.869C556.005 423.606 533.441 437.158 509.076 445.26C484.284 453.505 458.144 456.796 432.236 459.244C429.058 459.544 428.117 459.83 424.937 460.11C422.474 460.327 422.451 464.202 424.937 463.983Z" fill="white"/>
<path d="M8.36174 409.937C41.6494 411.783 74.5984 417.589 106.512 427.232C138.439 436.856 169.121 450.211 197.92 467.02C225.748 483.276 251.581 502.726 274.895 524.976C297.522 546.583 317.688 570.628 335.024 596.671C352.439 622.78 366.872 650.759 378.051 680.085C379.415 683.674 380.728 687.282 381.991 690.908C382.807 693.246 386.549 692.24 385.725 689.878C375.266 659.933 361.478 631.258 344.62 604.389C327.765 577.519 307.985 552.6 285.64 530.087C262.938 507.226 237.672 487.063 210.343 469.998C152.963 434.255 87.9233 412.632 20.5644 406.905C16.5011 406.565 12.4336 406.284 8.36179 406.065C5.87168 405.928 5.87928 409.801 8.36174 409.937Z" fill="white"/>
<path d="M189.415 43.452C210.699 50.2209 230.873 60.0792 249.291 72.7113C268.112 85.7071 285.277 100.951 300.405 118.104C316.348 136.149 330.521 155.682 342.731 176.435C355.682 198.348 366.933 221.222 376.384 244.855C386.117 269.119 394.302 293.975 400.892 319.273C407.59 344.872 412.823 370.832 416.563 397.026C420.284 422.943 422.537 449.049 423.308 475.221C424.087 500.246 423.347 525.295 421.093 550.231C419.032 573.495 415.268 596.576 409.831 619.289C405.003 639.804 398.198 659.802 389.513 679.003C387.501 683.361 385.366 687.659 383.109 691.897C381.938 694.095 385.279 696.054 386.453 693.851C396.051 675.51 403.715 656.221 409.321 636.294C415.611 614.111 420.171 591.474 422.959 568.586C426.049 543.754 427.554 518.75 427.465 493.727C427.409 467.438 425.844 441.174 422.778 415.064C419.71 388.629 415.155 362.387 409.135 336.464C403.13 310.499 395.512 284.933 386.326 259.915C377.472 235.696 366.872 212.153 354.607 189.47C342.927 167.825 329.314 147.279 313.936 128.083C299.332 109.806 282.658 93.2833 264.25 78.8449C246.499 64.9643 226.884 53.6498 205.981 45.234C200.873 43.2009 195.694 41.3622 190.445 39.718C188.062 38.9683 187.043 42.7055 189.415 43.452Z" fill="white"/>
<path d="M438 717C601.476 717 734 712.075 734 706C734 699.925 601.476 695 438 695C274.524 695 142 699.925 142 706C142 712.075 274.524 717 438 717Z" fill="#E6E6E6"/>
<path d="M522.692 478.901C522.692 478.901 526.797 497.244 526.563 502.361C526.328 507.478 516.666 521.187 516.417 518.049C516.499 515.39 517.075 512.77 518.118 510.322C518.118 510.322 514.731 514.911 513.528 514.721C512.326 514.53 514.496 508.196 514.496 508.196C514.496 508.196 510.875 511.818 509.658 511.128C508.441 510.439 512.311 505.088 512.311 505.088C512.311 505.088 507.913 509.677 507.737 508.225C507.561 506.774 511.593 500.748 511.593 500.748C511.593 500.748 507.488 492.053 507.194 488.432C507.221 485.902 508.064 483.449 509.599 481.438L522.692 478.901Z" fill="white"/>
<mask id="mask0_767_1502" style="mask-type:luminance" maskUnits="userSpaceOnUse" x="507" y="478" width="20" height="41">
<path d="M522.692 478.901C522.692 478.901 526.797 497.244 526.563 502.361C526.328 507.478 516.666 521.187 516.417 518.049C516.499 515.39 517.075 512.77 518.118 510.322C518.118 510.322 514.731 514.911 513.528 514.721C512.326 514.53 514.496 508.196 514.496 508.196C514.496 508.196 510.875 511.818 509.658 511.128C508.441 510.439 512.311 505.088 512.311 505.088C512.311 505.088 507.913 509.677 507.737 508.225C507.561 506.774 511.593 500.748 511.593 500.748C511.593 500.748 507.488 492.053 507.194 488.432C507.221 485.902 508.064 483.449 509.599 481.438L522.692 478.901Z" fill="white"/>
</mask>
<g mask="url(#mask0_767_1502)">
<path d="M522.692 478.901C522.692 478.901 526.797 497.244 526.563 502.361C526.328 507.478 516.666 521.187 516.417 518.049C516.499 515.39 517.075 512.77 518.118 510.322C518.118 510.322 514.731 514.911 513.528 514.721C512.326 514.53 514.496 508.196 514.496 508.196C514.496 508.196 510.875 511.818 509.658 511.128C508.441 510.439 512.311 505.088 512.311 505.088C512.311 505.088 507.913 509.677 507.737 508.225C507.561 506.774 511.593 500.748 511.593 500.748C511.593 500.748 507.488 492.053 507.194 488.432C507.221 485.902 508.064 483.449 509.599 481.438L522.692 478.901Z" fill="#D9D9D9"/>
</g>
<path d="M522.692 478.901C522.692 478.901 526.797 497.244 526.563 502.361C526.328 507.478 516.666 521.187 516.417 518.049C516.499 515.39 517.075 512.77 518.118 510.322C518.118 510.322 514.731 514.911 513.528 514.721C512.326 514.53 514.496 508.196 514.496 508.196C514.496 508.196 510.875 511.818 509.658 511.128C508.441 510.439 512.311 505.088 512.311 505.088C512.311 505.088 507.913 509.677 507.737 508.225C507.561 506.774 511.593 500.748 511.593 500.748C511.593 500.748 507.488 492.053 507.194 488.432C507.221 485.902 508.064 483.449 509.599 481.438L522.692 478.901Z" stroke="black" stroke-linecap="round" stroke-linejoin="round"/>
<path d="M521.726 478.901C521.726 478.901 524.658 491.701 524.394 495.323C524.13 498.944 520.523 509.56 517.87 507.624C515.216 505.689 519.556 498.461 519.556 498.461C519.556 498.461 512.107 493.226 510.392 488.314C508.677 483.403 509.659 481.321 509.659 481.321L521.726 478.901Z" fill="white"/>
<mask id="mask1_767_1502" style="mask-type:luminance" maskUnits="userSpaceOnUse" x="509" y="478" width="16" height="30">
<path d="M521.726 478.901C521.726 478.901 524.658 491.701 524.394 495.323C524.13 498.944 520.523 509.56 517.87 507.624C515.216 505.689 519.556 498.461 519.556 498.461C519.556 498.461 512.107 493.226 510.392 488.314C508.677 483.403 509.659 481.321 509.659 481.321L521.726 478.901Z" fill="white"/>
</mask>
<g mask="url(#mask1_767_1502)">
<path d="M521.726 478.901C521.726 478.901 524.658 491.701 524.394 495.323C524.13 498.944 520.523 509.56 517.87 507.624C515.216 505.689 519.556 498.461 519.556 498.461C519.556 498.461 512.107 493.226 510.392 488.314C508.677 483.403 509.659 481.321 509.659 481.321L521.726 478.901Z" fill="#D9D9D9"/>
</g>
<path d="M521.726 478.901C521.726 478.901 524.658 491.701 524.394 495.323C524.13 498.944 520.523 509.56 517.87 507.624C515.216 505.689 519.556 498.461 519.556 498.461C519.556 498.461 512.107 493.226 510.392 488.314C508.677 483.403 509.659 481.321 509.659 481.321L521.726 478.901Z" stroke="black" stroke-linecap="round" stroke-linejoin="round"/>
<path d="M512.884 418.919L523.162 480.133L508.676 483.403L494.189 436.206L512.884 418.919Z" fill="black" stroke="black" stroke-linecap="round" stroke-linejoin="round"/>
<path d="M508.676 448.83C508.676 448.83 509.614 521.729 511.007 541.362C512.4 560.994 507.268 587.166 502.606 594.643C497.943 602.121 477.358 648.893 478.296 651.664C479.234 654.435 483.442 662.88 483.442 665.212V675.021C483.442 675.021 506.799 690.445 508.676 690.445C510.552 690.445 512.884 694.184 508.206 696.999C503.529 699.814 451.186 699.799 448.855 697.923C447.317 696.543 446.186 694.768 445.585 692.791C445.585 692.791 438.107 695.591 438.576 688.583C439.046 681.575 447.447 651.664 447.447 651.664C447.447 651.664 442.315 618.938 444.177 597.913C446.039 576.888 452.593 551.64 452.593 546.508C452.593 541.376 446.054 507.243 445.116 501.642C444.177 496.041 430.63 480.133 436.7 467.524C442.77 454.914 447.447 434.798 449.324 433.405C451.2 432.012 476.434 431.059 486.712 433.405C496.99 435.751 508.206 435.736 508.676 448.83Z" fill="black" stroke="black" stroke-linecap="round" stroke-linejoin="round"/>
<path d="M462.343 301.887C462.343 301.887 454.353 309.042 452.974 311.52C451.596 313.998 434.823 337.911 434.544 355.007C434.266 372.103 446.948 423.801 446.948 423.801L427.888 472.289L433.401 474.488L438.899 468.433V477.523C438.899 477.523 445.233 483.3 461.742 488.798C478.252 494.296 499.453 487.977 499.453 487.977L505.772 447.745V487.435L513.206 482.479L513.807 416.382C513.807 416.382 519.863 380.886 519.863 370.93C519.863 360.975 503.075 329.876 495.641 320.845C488.207 311.813 475.818 304.335 472.182 301.579C468.546 298.822 462.343 301.887 462.343 301.887Z" fill="black"/>
<mask id="mask2_767_1502" style="mask-type:luminance" maskUnits="userSpaceOnUse" x="427" y="300" width="93" height="192">
<path d="M462.342 301.888C462.342 301.888 454.352 309.043 452.973 311.521C451.595 313.998 434.822 337.912 434.543 355.008C434.265 372.104 446.947 423.802 446.947 423.802L427.887 472.29L433.4 474.489L438.898 468.434V477.524C438.898 477.524 445.232 483.301 461.741 488.799C478.251 494.297 499.452 487.978 499.452 487.978L505.771 447.746V487.436L513.205 482.48L513.806 416.383C513.806 416.383 519.862 380.887 519.862 370.931C519.862 360.976 503.074 329.877 495.64 320.846C488.206 311.814 475.817 304.336 472.181 301.58C468.545 298.823 462.342 301.888 462.342 301.888Z" fill="white"/>
</mask>
<g mask="url(#mask2_767_1502)">
<path opacity="0.17" d="M462.342 301.888C462.342 301.888 454.352 309.043 452.973 311.521C451.595 313.998 434.822 337.912 434.543 355.008C434.265 372.104 446.947 423.802 446.947 423.802L427.887 472.29L433.4 474.489L438.898 468.434V477.524C438.898 477.524 445.232 483.301 461.741 488.799C478.251 494.297 499.452 487.978 499.452 487.978L505.771 447.746V487.436L513.205 482.48L513.806 416.383C513.806 416.383 519.862 380.887 519.862 370.931C519.862 360.976 503.074 329.877 495.64 320.846C488.206 311.814 475.817 304.336 472.181 301.58C468.545 298.823 462.342 301.888 462.342 301.888Z" fill="white"/>
<path d="M438.825 360.492C438.825 360.492 448.825 367.573 455.481 370.066" stroke="black" stroke-linecap="round" stroke-linejoin="round"/>
<path d="M441.743 367.999C441.743 367.999 452.989 370.931 458.81 370.931" stroke="black" stroke-linecap="round" stroke-linejoin="round"/>
<path d="M457.988 434.594L489.629 438.347L487.547 445.004L458.399 441.676" stroke="black" stroke-linecap="round" stroke-linejoin="round"/>
</g>
<path d="M462.343 301.887C462.343 301.887 454.353 309.042 452.974 311.52C451.596 313.998 434.823 337.911 434.544 355.007C434.266 372.103 446.948 423.801 446.948 423.801L427.888 472.289L433.401 474.488L438.899 468.433V477.523C438.899 477.523 445.233 483.3 461.742 488.798C478.252 494.296 499.453 487.977 499.453 487.977L505.772 447.745V487.435L513.206 482.479L513.807 416.382C513.807 416.382 519.863 380.886 519.863 370.93C519.863 360.975 503.075 329.876 495.641 320.845C488.207 311.813 475.818 304.335 472.182 301.579C468.546 298.822 462.343 301.887 462.343 301.887Z" stroke="black" stroke-linecap="round" stroke-linejoin="round"/>
<path d="M460.688 303.485L491.243 336.518L509.131 370.652C509.131 370.652 505.275 345.33 501.976 338.395C498.677 331.46 483.81 314.276 482.138 310.42C480.467 306.564 460.688 303.485 460.688 303.485Z" fill="white" stroke="black" stroke-linecap="round" stroke-linejoin="round"/>
<path d="M500.671 354.553L509.131 370.681C509.131 370.681 506.506 353.424 503.72 343.527L501.976 338.469C499.633 334.36 496.977 330.438 494.029 326.739L489.234 325.786L491.243 336.577L497.43 341.636L500.671 354.553Z" fill="black" stroke="black" stroke-linecap="round" stroke-linejoin="round"/>
<path d="M492.518 315.933L494.101 317.766L499.072 323.631L502.004 338.527L489.263 325.815C489.263 325.815 490.934 318.147 492.518 315.933Z" fill="white" stroke="black" stroke-linecap="round" stroke-linejoin="round"/>
<path d="M506.931 254.543C506.931 254.543 513.617 259.675 514.452 264.631C515.288 269.586 512.796 275.099 513.074 277.02C513.353 278.941 518.294 283.354 518.03 285.553C517.766 287.753 513.631 288.574 513.631 288.574C513.631 288.574 509.145 304.907 508.045 307.634C506.945 310.362 501.433 309.555 497.313 309.013L489.879 331.006L465.364 302.166L469.22 290.597C469.22 290.597 458.766 277.944 457.93 264.455C457.095 250.966 467.842 241.611 483.252 239.691C498.661 237.77 511.608 245.189 513.25 248.224C514.892 251.259 506.931 254.543 506.931 254.543Z" fill="white"/>
<mask id="mask3_767_1502" style="mask-type:luminance" maskUnits="userSpaceOnUse" x="457" y="239" width="62" height="93">
<path d="M506.931 254.543C506.931 254.543 513.617 259.675 514.452 264.631C515.288 269.586 512.796 275.099 513.074 277.02C513.353 278.941 518.294 283.354 518.03 285.553C517.766 287.753 513.631 288.574 513.631 288.574C513.631 288.574 509.145 304.907 508.045 307.634C506.945 310.362 501.433 309.555 497.313 309.013L489.879 331.006L465.364 302.166L469.22 290.597C469.22 290.597 458.766 277.944 457.93 264.455C457.095 250.966 467.842 241.611 483.252 239.691C498.661 237.77 511.608 245.189 513.25 248.224C514.892 251.259 506.931 254.543 506.931 254.543Z" fill="white"/>
</mask>
<g mask="url(#mask3_767_1502)">
<path d="M506.93 254.543C506.93 254.543 513.616 259.674 514.451 264.63C515.287 269.586 512.795 275.099 513.073 277.02C513.352 278.94 518.293 283.354 518.029 285.553C517.765 287.752 513.63 288.573 513.63 288.573C513.63 288.573 509.144 304.907 508.044 307.634C506.944 310.361 501.432 309.555 497.312 309.012L489.878 331.005L465.363 302.165L469.219 290.597C469.219 290.597 458.765 277.943 457.929 264.454C457.094 250.965 467.841 241.611 483.251 239.69C498.66 237.769 511.607 245.188 513.249 248.223C514.891 251.258 506.93 254.543 506.93 254.543Z" fill="#D9D9D9"/>
<path d="M478.368 317.501C482.503 316.666 489.438 315.229 495.684 313.821L497.297 309.041C500.727 309.496 505.126 310.141 507.12 308.748C502.428 306.813 490.816 303.426 488.441 299.071C485.508 293.661 495.772 277.914 495.772 270.04C495.772 262.167 485.933 253.311 485.933 253.311C481.198 248.81 472.562 247.446 464.893 247.446C462.48 249.554 460.59 252.195 459.373 255.16C458.157 258.125 457.647 261.332 457.885 264.528C458.721 278.017 469.175 290.67 469.175 290.67L465.319 302.238L478.368 317.501Z" fill="#B8B8B8"/>
</g>
<path d="M506.931 254.543C506.931 254.543 513.617 259.675 514.452 264.631C515.288 269.586 512.796 275.099 513.074 277.02C513.353 278.941 518.294 283.354 518.03 285.553C517.766 287.753 513.631 288.574 513.631 288.574C513.631 288.574 509.145 304.907 508.045 307.634C506.945 310.362 501.433 309.555 497.313 309.013L489.879 331.006L465.364 302.166L469.22 290.597C469.22 290.597 458.766 277.944 457.93 264.455C457.095 250.966 467.842 241.611 483.252 239.691C498.661 237.77 511.608 245.189 513.25 248.224C514.892 251.259 506.931 254.543 506.931 254.543Z" stroke="black" stroke-linecap="round" stroke-linejoin="round"/>
<path d="M506.93 254.543C506.93 254.543 514.906 251.244 513.25 248.224C511.593 245.204 498.661 237.755 483.251 239.691C467.841 241.626 457.109 250.966 457.93 264.455C458.751 277.944 469.22 290.597 469.22 290.597L468.633 292.357C474.337 295.142 480.231 290.597 480.231 290.597C479.155 291.14 477.934 291.326 476.745 291.128C475.556 290.93 474.461 290.359 473.618 289.498C470.319 286.477 470.041 276.844 474.175 276.008C478.31 275.173 481.052 276.844 481.052 279.865C481.052 282.885 481.873 280.964 484.087 280.686C486.301 280.407 484.351 273.809 485.729 272.709C487.957 271.331 489.915 269.557 491.506 267.475C493.984 264.176 486.829 261.434 486.008 258.399C485.187 255.364 506.93 254.543 506.93 254.543Z" fill="black" stroke="black" stroke-linecap="round" stroke-linejoin="round"/>
<path d="M508.896 276.038L503.794 277.738H508.412" stroke="black" stroke-linecap="round" stroke-linejoin="round"/>
<path d="M510.846 270.936C510.846 270.936 508.661 267.784 506.227 269.235C503.793 270.687 503.559 271.669 503.559 271.669" stroke="black" stroke-linecap="round" stroke-linejoin="round"/>
<path d="M505.597 293.046C507.089 294.066 508.911 294.485 510.699 294.219" stroke="black" stroke-linecap="round" stroke-linejoin="round"/>
<path d="M464.264 296.931L495.084 327.208L492.342 340.14L459.587 304.907L464.264 296.931Z" fill="white" stroke="black" stroke-linecap="round" stroke-linejoin="round"/>
<path d="M582.661 412.688C582.661 412.688 571.811 406.237 570.052 406.823C568.292 407.41 551.284 419.726 552.457 422.658C553.63 425.591 562.721 429.403 567.999 431.456C573.277 433.508 584.127 429.11 584.127 429.11L582.661 412.688Z" fill="white" stroke="black" stroke-linecap="round" stroke-linejoin="round"/>
<path d="M551.05 410.342C551.05 410.342 560.433 405.063 561.9 405.063C563.366 405.063 571.87 412.688 571.87 412.688L568.351 417.966C568.351 417.966 579.494 423.538 578.321 425.59C577.148 427.643 572.749 430.869 568.058 431.455C563.366 432.042 550.17 423.538 550.17 423.538L551.05 410.342Z" fill="white"/>
<mask id="mask4_767_1502" style="mask-type:luminance" maskUnits="userSpaceOnUse" x="550" y="405" width="29" height="27">
<path d="M551.049 410.341C551.049 410.341 560.432 405.063 561.899 405.063C563.365 405.063 571.869 412.687 571.869 412.687L568.35 417.966C568.35 417.966 579.493 423.537 578.32 425.59C577.147 427.643 572.748 430.868 568.057 431.455C563.365 432.041 550.169 423.537 550.169 423.537L551.049 410.341Z" fill="white"/>
</mask>
<g mask="url(#mask4_767_1502)">
<path d="M551.049 410.341C551.049 410.341 560.432 405.063 561.899 405.063C563.365 405.063 571.869 412.687 571.869 412.687L568.35 417.966C568.35 417.966 579.493 423.537 578.32 425.59C577.147 427.643 572.748 430.868 568.057 431.455C563.365 432.041 550.169 423.537 550.169 423.537L551.049 410.341Z" fill="#D9D9D9"/>
</g>
<path d="M551.05 410.342C551.05 410.342 560.433 405.063 561.9 405.063C563.366 405.063 571.87 412.688 571.87 412.688L568.351 417.966C568.351 417.966 579.494 423.538 578.321 425.59C577.148 427.643 572.749 430.869 568.058 431.455C563.366 432.042 550.17 423.538 550.17 423.538L551.05 410.342Z" stroke="black" stroke-linecap="round" stroke-linejoin="round"/>
<path d="M544.54 407.996L552.751 409.462L550.112 423.537L543.074 421.191L544.54 407.996Z" fill="white" stroke="black" stroke-linecap="round" stroke-linejoin="round"/>
<path d="M449.251 326.182C449.251 326.182 441.334 341.43 440.454 349.054C439.574 356.679 471.831 417.379 474.177 419.432C476.523 421.485 545.126 423.538 545.126 423.538L548.059 408.582L489.411 391.868L469.47 330.58" fill="black"/>
<mask id="mask5_767_1502" style="mask-type:luminance" maskUnits="userSpaceOnUse" x="440" y="326" width="109" height="98">
<path d="M449.25 326.182C449.25 326.182 441.333 341.43 440.453 349.054C439.573 356.679 471.83 417.379 474.176 419.432C476.522 421.485 545.125 423.538 545.125 423.538L548.058 408.582L489.41 391.868L469.469 330.58" fill="white"/>
</mask>
<g mask="url(#mask5_767_1502)">
<path opacity="0.17" d="M449.25 326.182C449.25 326.182 441.333 341.43 440.453 349.054C439.573 356.679 471.83 417.379 474.176 419.432C476.522 421.485 545.125 423.538 545.125 423.538L548.058 408.582L489.41 391.868L469.469 330.58" fill="white"/>
</g>
<path d="M449.251 326.182C449.251 326.182 441.334 341.43 440.454 349.054C439.574 356.679 471.831 417.379 474.177 419.432C476.523 421.485 545.126 423.538 545.126 423.538L548.059 408.582L489.411 391.868L469.47 330.58" stroke="black" stroke-linecap="round" stroke-linejoin="round"/>
<path d="M572.396 408.289C572.396 408.289 568.291 404.77 566.824 408.875C565.358 412.981 556.268 422.951 560.373 423.244C564.479 423.537 572.103 415.033 572.103 415.033" fill="white"/>
<path d="M572.396 408.289C572.396 408.289 568.291 404.77 566.824 408.875C565.358 412.981 556.268 422.951 560.373 423.244C564.479 423.537 572.103 415.033 572.103 415.033" stroke="black" stroke-linecap="round" stroke-linejoin="round"/>
<path d="M554.215 424.711C554.215 424.711 553.16 429.652 555.682 431.748C557.456 433.215 558.453 429.109 558.027 426.177C557.602 423.244 555.095 422.365 554.215 424.711Z" fill="white" stroke="black" stroke-linecap="round" stroke-linejoin="round"/>
<path d="M558.379 425.884C558.379 425.884 557.324 430.825 559.846 432.922C561.62 434.388 562.617 430.283 562.192 427.35C561.766 424.418 559.2 423.538 558.379 425.884Z" fill="white" stroke="black" stroke-linecap="round" stroke-linejoin="round"/>
<path d="M562.427 427.643C562.427 427.643 561.372 432.584 563.893 434.681C565.668 436.147 566.665 432.041 566.239 429.109C565.814 426.177 563.307 425.297 562.427 427.643Z" fill="white" stroke="black" stroke-linecap="round" stroke-linejoin="round"/>
<path d="M566.488 430.033C566.488 430.033 565.52 433.361 567.837 434.769C569.464 435.766 570.388 432.995 569.992 431.016C569.596 429.036 567.294 428.45 566.488 430.033Z" fill="white" stroke="black" stroke-linecap="round" stroke-linejoin="round"/>
<path d="M582.66 412.687L583.54 431.455L589.991 429.695L588.525 412.394L582.66 412.687Z" stroke="black" stroke-linecap="round" stroke-linejoin="round"/>
<path d="M587.06 410.928L589.992 433.214L638.963 427.936L640.136 398.905L587.06 410.928Z" fill="black" stroke="black" stroke-linecap="round" stroke-linejoin="round"/>
<path d="M501.198 499.766C501.198 499.766 492.313 559.118 492.313 579.219C492.313 599.321 478.765 632.97 478.296 651.664" stroke="white" stroke-linecap="round" stroke-linejoin="round"/>
<path d="M448.855 697.893C451.186 699.77 503.529 699.77 508.206 696.97C512.884 694.169 510.538 690.416 508.676 690.416C506.814 690.416 483.442 674.991 483.442 674.991C483.442 674.991 470.818 684.815 463.81 687.146C456.801 689.477 445.585 689.946 445.585 689.946V692.762C446.186 694.739 447.317 696.513 448.855 697.893Z" fill="white" stroke="black" stroke-linecap="round" stroke-linejoin="round"/>
<path d="M508.207 696.999C510.67 695.533 511.139 693.773 510.846 692.468C503.972 693.827 496.989 694.559 489.982 694.653C475.863 695.034 453.65 694.169 445.996 693.846C446.63 695.422 447.636 696.821 448.928 697.923C451.186 699.799 503.53 699.799 508.207 696.999Z" fill="white" stroke="black" stroke-linecap="round" stroke-linejoin="round"/>
<path d="M444.221 693.158L445.585 689.976L447.447 651.665C447.447 651.665 439.031 681.575 438.576 688.584C438.224 693.686 442.095 693.583 444.221 693.158Z" fill="black" stroke="black" stroke-linecap="round" stroke-linejoin="round"/>
<path d="M646.074 488.08C646.074 488.08 641.412 557.724 646.074 585.758C650.737 613.792 662.481 662.411 664.299 668.481C665.445 672.104 665.941 675.902 665.765 679.698L691.937 683.436C691.937 683.436 683.99 591.374 683.99 580.626C683.99 569.879 692.875 489.487 692.875 489.487L646.074 488.08Z" fill="black" stroke="black" stroke-linecap="round" stroke-linejoin="round"/>
<path d="M665.706 679.698C665.706 679.698 637.203 691.853 633.919 694.184C630.634 696.515 640.942 699.799 653.551 699.799C666.16 699.799 678.799 698.333 678.799 698.333L683.931 695.533L684.4 698.802H697.948C697.948 698.802 700.294 687.586 699.414 684.785C698.748 682.869 697.969 680.994 697.083 679.17L665.706 679.698Z" fill="black" stroke="black" stroke-linecap="round" stroke-linejoin="round"/>
<path d="M641.866 482.479C641.866 482.479 644.212 549.308 649.813 573.149C655.414 596.989 665.237 654.934 665.237 661.004C665.274 664.474 664.804 667.932 663.845 671.267L661.968 677.367C662.288 678.822 662.78 680.235 663.434 681.575C663.434 681.575 675.574 684.375 683.521 684.375C688.488 684.331 693.424 683.585 698.183 682.161C698.183 682.161 698.432 667.499 698.901 660.535C699.371 653.57 697.039 608.66 697.039 597.913C697.039 587.166 694.224 581.081 694.224 568.002C694.224 554.924 691.893 519.867 692.362 514.251C692.831 508.636 699.371 502.522 700.778 495.557C702.186 488.593 703.579 481.071 703.579 481.071L641.866 482.479Z" fill="black" stroke="black" stroke-linecap="round" stroke-linejoin="round"/>
<path d="M647.467 552.74C647.467 552.74 660.531 643.366 663.8 649.084C665.751 652.733 666.273 656.977 665.266 660.989" stroke="white" stroke-linecap="round" stroke-linejoin="round"/>
<path d="M630.65 429.666C630.65 429.666 628.905 447.539 628.905 461.204C628.905 468.829 628.831 478.799 628.758 486.013C628.737 488.981 629.75 491.864 631.623 494.168C633.495 496.471 636.111 498.051 639.022 498.637C642.091 499.312 645.219 499.69 648.361 499.766L637.379 431.763C637.379 431.763 632.409 423.362 630.65 429.666Z" fill="black" stroke="black" stroke-linecap="round" stroke-linejoin="round"/>
<path d="M682.537 307.884C685.215 309.293 687.658 311.108 689.781 313.265C691.651 315.724 693.309 318.339 694.736 321.08C694.736 321.08 714.603 343.982 715.073 346.313C715.542 348.644 703.856 422.262 703.856 422.262L717.169 491.892C717.169 491.892 695.675 503.813 679.312 504.516C667.802 505.015 650.486 501.335 641.191 499.106C639.341 498.668 637.676 497.659 636.432 496.222C635.187 494.785 634.426 492.994 634.255 491.101C633.346 481.306 631.646 461.776 630.649 443.288C629.505 421.808 632.76 379.259 635.047 364.303C637.334 349.348 644.636 329.026 650.237 320.61C655.838 312.194 671.277 303.485 682.537 307.884Z" fill="black" stroke="black" stroke-linecap="round" stroke-linejoin="round"/>
<path d="M694.738 321.08C693.324 318.377 691.686 315.797 689.841 313.368C687.718 311.211 685.275 309.396 682.597 307.987C673.272 304.307 661.074 309.644 653.992 316.388C653.053 318.47 645.664 335.332 642.16 349.114C638.421 363.776 638.89 382.309 638.89 382.309C638.89 382.309 651.279 366.415 668.097 347.721C676.494 338.377 685.666 329.759 695.515 321.96L694.738 321.08Z" fill="black"/>
<mask id="mask6_767_1502" style="mask-type:luminance" maskUnits="userSpaceOnUse" x="638" y="306" width="58" height="77">
<path d="M694.739 321.08C693.325 318.377 691.687 315.797 689.842 313.368C687.719 311.211 685.276 309.396 682.598 307.987C673.273 304.307 661.075 309.644 653.993 316.388C653.054 318.47 645.665 335.332 642.161 349.114C638.422 363.776 638.891 382.309 638.891 382.309C638.891 382.309 651.28 366.415 668.098 347.721C676.495 338.377 685.667 329.759 695.516 321.96L694.739 321.08Z" fill="white"/>
</mask>
<g mask="url(#mask6_767_1502)">
<path opacity="0.17" d="M694.739 321.08C693.325 318.377 691.687 315.797 689.842 313.368C687.719 311.211 685.276 309.396 682.598 307.987C673.273 304.307 661.075 309.644 653.993 316.388C653.054 318.47 645.665 335.332 642.161 349.114C638.422 363.776 638.891 382.309 638.891 382.309C638.891 382.309 651.28 366.415 668.098 347.721C676.495 338.377 685.667 329.759 695.516 321.96L694.739 321.08Z" fill="white"/>
</g>
<path d="M694.738 321.08C693.324 318.377 691.686 315.797 689.841 313.368C687.718 311.211 685.275 309.396 682.597 307.987C673.272 304.307 661.074 309.644 653.992 316.388C653.053 318.47 645.664 335.332 642.16 349.114C638.421 363.776 638.89 382.309 638.89 382.309C638.89 382.309 651.279 366.415 668.097 347.721C676.494 338.377 685.666 329.759 695.515 321.96L694.738 321.08Z" stroke="black" stroke-linecap="round" stroke-linejoin="round"/>
<path d="M652.392 327.135C652.392 327.135 646.073 346.943 644.152 352.544C642.232 358.145 642.041 366.927 642.041 366.927C642.041 366.927 665.706 331.519 671.482 325.566C677.259 319.613 684.81 310.317 684.81 310.317L679.722 308.851L652.392 327.135Z" fill="white" stroke="black" stroke-linecap="round" stroke-linejoin="round"/>
<path d="M654.138 319.951C654.138 319.951 651.338 328.191 651.338 328.748C651.338 329.305 650.634 337.164 650.634 337.164L660.619 323.66L654.138 319.951Z" fill="white" stroke="black" stroke-linecap="round" stroke-linejoin="round"/>
<path d="M679.547 303.485L652.217 325.742L656.425 337.999L684.459 309.438L679.547 303.485Z" fill="white" stroke="black" stroke-linecap="round" stroke-linejoin="round"/>
<path d="M676.014 480.016C676.014 480.016 672.129 489.678 670.97 492.845C669.812 496.012 670.399 508.416 670.545 509.721C670.692 511.026 672.994 511.305 672.994 511.305C672.994 511.305 673.712 521.246 674.577 521.568C675.476 521.792 676.394 521.935 677.319 521.994C677.319 521.994 678.902 527.052 680.926 526.612C681.534 526.427 682.075 526.069 682.483 525.582C682.892 525.096 683.15 524.501 683.228 523.87C683.893 523.933 684.562 523.819 685.17 523.541C685.777 523.263 686.301 522.831 686.688 522.287C687.512 521.075 688.191 519.771 688.711 518.401C688.711 518.401 692.172 516.671 692.45 515.366C692.729 514.061 693.609 509.501 693.609 509.501C693.609 509.501 694.62 509.208 694.62 506.188C694.62 503.167 692.318 484.561 692.318 484.561L676.014 480.016Z" fill="white" stroke="black" stroke-linecap="round" stroke-linejoin="round"/>
<path d="M672.993 511.304L673.418 502.537" stroke="black" stroke-linecap="round" stroke-linejoin="round"/>
<path d="M677.319 521.964L678.258 508.988" stroke="black" stroke-linecap="round" stroke-linejoin="round"/>
<path d="M683.228 523.841L683.902 509.794" stroke="black" stroke-linecap="round" stroke-linejoin="round"/>
<path d="M688.71 518.371L689.546 508.592" stroke="black" stroke-linecap="round" stroke-linejoin="round"/>
<path d="M704.502 339.935L715.015 346.239L711.51 418.919L692.816 487.61L675.061 482.948L680.661 428.698L677.861 374.024C677.861 374.024 681.834 361.282 690.94 354.274" fill="black"/>
<path d="M704.502 339.935L715.015 346.239L711.51 418.919L692.816 487.61L675.061 482.948L680.661 428.698L677.861 374.024C677.861 374.024 681.834 361.282 690.94 354.274" stroke="black" stroke-linecap="round" stroke-linejoin="round"/>
<path d="M682.876 352.207C682.876 352.207 678.096 364.347 677.861 374.053" stroke="white" stroke-linecap="round" stroke-linejoin="round"/>
<path d="M686.863 357.984C686.863 357.984 678.682 371.341 678.682 377.382C678.682 383.422 680.837 433.831 680.837 433.831L675.236 477.347" stroke="white" stroke-linecap="round" stroke-linejoin="round"/>
<path d="M636.088 258.957C636.088 258.957 630.472 274.909 631 277.196C631.528 279.483 632.056 282.973 632.056 282.973C632.056 282.973 623.259 293.838 624.344 295.069C625.429 296.301 630.296 297.694 630.296 297.694C630.296 297.694 634.329 314.526 635.912 316.094C637.496 317.663 647.304 314.174 647.304 314.174L657.817 327.487L679.37 306.813L676.746 295.949C676.746 295.949 688.138 275.965 687.962 266.493C687.786 257.021 668.344 244.412 654.489 244.588C640.633 244.764 627.672 249.851 630.296 253.532C631.842 255.711 633.812 257.556 636.088 258.957Z" fill="white"/>
<mask id="mask7_767_1502" style="mask-type:luminance" maskUnits="userSpaceOnUse" x="624" y="244" width="64" height="84">
<path d="M636.089 258.956C636.089 258.956 630.473 274.908 631.001 277.196C631.529 279.483 632.057 282.972 632.057 282.972C632.057 282.972 623.26 293.837 624.345 295.069C625.43 296.3 630.297 297.693 630.297 297.693C630.297 297.693 634.33 314.525 635.913 316.094C637.497 317.663 647.305 314.173 647.305 314.173L657.818 327.486L679.371 306.813L676.747 295.948C676.747 295.948 688.139 275.964 687.963 266.492C687.787 257.021 668.345 244.411 654.49 244.587C640.634 244.763 627.673 249.851 630.297 253.531C631.843 255.711 633.813 257.556 636.089 258.956Z" fill="white"/>
</mask>
<g mask="url(#mask7_767_1502)">
<path d="M681.159 255.541C678.488 255.931 675.88 256.67 673.402 257.74L652.744 266.112C652.744 266.112 642.905 274.469 643.946 280.862C644.987 287.254 653.785 296.11 651.82 302.503C649.855 308.896 637.554 315.787 637.554 315.787L641.41 315.933C644.342 315.244 647.363 314.174 647.363 314.174L648.975 316.212L668.886 316.93L679.428 306.814L676.804 295.949C676.804 295.949 688.196 275.965 688.02 266.493C687.903 263.004 685.205 259.089 681.159 255.541Z" fill="#B8B8B8"/>
</g>
<path d="M636.088 258.957C636.088 258.957 630.472 274.909 631 277.196C631.528 279.483 632.056 282.973 632.056 282.973C632.056 282.973 623.259 293.838 624.344 295.069C625.429 296.301 630.296 297.694 630.296 297.694C630.296 297.694 634.329 314.526 635.912 316.094C637.496 317.663 647.304 314.174 647.304 314.174L657.817 327.487L679.37 306.813L676.746 295.949C676.746 295.949 688.138 275.965 687.962 266.493C687.786 257.021 668.344 244.412 654.489 244.588C640.633 244.764 627.672 249.851 630.296 253.532C631.842 255.711 633.812 257.556 636.088 258.957Z" stroke="black" stroke-linecap="round" stroke-linejoin="round"/>
<path d="M676.747 295.949C676.747 295.949 688.14 275.965 687.964 266.493C687.788 257.021 668.346 244.412 654.49 244.588C640.635 244.764 627.673 249.851 630.298 253.532C631.844 255.711 633.813 257.556 636.089 258.957C636.089 258.957 644.681 262.989 644.681 264.044C644.681 265.1 639.594 270.701 641.353 273.164C643.112 275.627 651.514 278.589 651.514 278.589C651.514 278.589 650.048 283.325 652.218 283.853C654.388 284.38 655.37 282.269 656.763 280.92C658.156 279.571 663.082 277.577 663.786 283.545C664.2 287.825 663.077 292.113 660.619 295.641C659.93 296.154 669.563 302.649 673.815 300.714C674.914 300.215 676.205 299.556 677.495 298.867L676.747 295.949Z" fill="black" stroke="black" stroke-linecap="round" stroke-linejoin="round"/>
<path d="M634.681 287.357C635.361 287.357 635.912 285.237 635.912 282.621C635.912 280.006 635.361 277.885 634.681 277.885C634.001 277.885 633.449 280.006 633.449 282.621C633.449 285.237 634.001 287.357 634.681 287.357Z" stroke="black" stroke-linecap="round" stroke-linejoin="round"/>
<path d="M636.088 280.7L656.761 280.876" stroke="black" stroke-linecap="round" stroke-linejoin="round"/>
<path d="M632.688 274.997C632.688 274.997 634.652 271.859 636.617 275.774" stroke="black" stroke-linecap="round" stroke-linejoin="round"/>
<path d="M632.292 300.553C634.418 299.686 636.397 298.494 638.157 297.019" stroke="black" stroke-linecap="round" stroke-linejoin="round"/>
</svg>
