<svg width="49" height="58" viewBox="0 0 49 58" fill="none" xmlns="http://www.w3.org/2000/svg">
<path d="M0.559665 8.20996H0.671599L0.783532 8.82559L0.979415 9.38526L1.39916 10.0009L2.91026 11.512L7.91927 13.8346L12.9283 15.1498L18.6369 15.8494L24.3454 16.2132V40.8385H18.6369L10.6336 39.5512L7.21968 38.3759L3.80573 36.9768L0 33.7307L0.559665 8.20996Z" fill="url(#paint0_linear_28_3368)"/>
<path d="M24.3483 16.1016L27.5663 16.1715L30.7844 16.4653L34.0025 16.7592L37.2206 17.2769L43.5448 19.2917L45.9234 20.7468L48.3019 22.8735V48.4502L46.7908 46.2116L44.3843 44.5326L39.9629 42.7696L35.5416 41.9021L29.9449 41.1466L24.3483 40.8388V16.1016Z" fill="url(#paint1_linear_28_3368)"/>
<path d="M2.34928 6.69943L3.30063 5.13236L5.03579 3.69377L7.7223 2.47904L10.4088 1.65607L13.0953 1.05697L16.0167 0.576152L18.9381 0.207268L18.9381 3.45337L16.185 3.68231L14.8645 3.9749L13.5439 4.15555L10.9028 4.90863L8.26163 5.54977L5.52928 6.76821L2.90887 8.99405L2.34924 7.67884L2.34928 6.69943Z" fill="#FED7AA"/>
<path d="M46.5994 50.2348L45.6565 51.807L43.9292 53.2549L41.2493 54.4842L38.5673 55.3217L35.884 55.9353L32.9653 56.4319L30.0459 56.8166L30.0283 53.5706L32.7801 53.3267L34.0991 53.027L35.4187 52.8392L38.0557 52.0718L40.6933 51.4164L43.419 50.1832L46.0274 47.9432L46.5941 49.2554L46.5994 50.2348Z" fill="#EA580C"/>
<path d="M5.64863 9.5909L7.13408 8.88248L8.32512 8.52248L10.1755 7.88286L12.0283 7.52711L13.8825 7.10972L15.8998 6.77949L17.9179 6.53036L17.9179 9.60942L16.0355 9.81476L14.2113 10.0601L10.5669 10.8137L8.68482 11.3438L7.13408 11.953L5.83174 11.3689L5.1246 10.9649L4.41746 10.4489L5.64863 9.5909Z" fill="#FED7AA"/>
<path d="M43.2795 47.3617L41.7979 48.0781L40.6088 48.4446L38.7619 49.0942L36.9111 49.4599L35.0592 49.8874L33.0436 50.2285L31.0269 50.4886L31.0103 47.4096L32.8915 47.194L34.7144 46.9388L38.3547 46.1655L40.2338 45.6253L41.7812 45.0076L43.0867 45.5847L43.796 45.9849L44.506 46.497L43.2795 47.3617Z" fill="#EA580C"/>
<path d="M12.9216 12.7268L13.3879 12.6779L13.7624 12.5618L14.3441 12.5656L14.9275 12.4855L15.5112 12.4871L16.1467 12.428L16.8858 12.428L16.8858 14.4178L16.2005 14.3779L15.6257 14.2932L14.4782 14.1414L13.0801 13.949L12.0447 13.7531L11.415 13.5992L10.7854 13.4452L11.8535 13.03L12.9216 12.7268Z" fill="#FED7AA"/>
<path d="M36.8178 44.8203L36.3518 44.8716L35.9779 44.9898L35.3962 44.9892L34.8132 45.0724L34.2296 45.074L33.5944 45.1365L32.8553 45.1405L32.8445 43.1508L33.53 43.1869L34.1053 43.2685L35.2536 43.4141L36.6527 43.599L37.6892 43.7892L38.3196 43.9397L38.9501 44.0903L37.8843 44.5112L36.8178 44.8203Z" fill="#EA580C"/>
<defs>
<linearGradient id="paint0_linear_28_3368" x1="11.1373" y1="26.1193" x2="-17.5175" y2="-11.4903" gradientUnits="userSpaceOnUse">
<stop stop-color="#FB923C"/>
<stop offset="1" stop-color="#FB923C" stop-opacity="0"/>
</linearGradient>
<linearGradient id="paint1_linear_28_3368" x1="25.8594" y1="26.2875" x2="66.659" y2="44.0289" gradientUnits="userSpaceOnUse">
<stop stop-color="#EA580C"/>
<stop offset="1" stop-color="#EA580C" stop-opacity="0"/>
</linearGradient>
</defs>
</svg>
