<svg width="218" height="146" viewBox="0 0 218 146" fill="none" xmlns="http://www.w3.org/2000/svg">
<g opacity="0.8" clip-path="url(#clip0_28_4918)">
<path d="M174.942 19.0513L175.642 13.4687C175.764 12.4861 176.08 11.5371 176.571 10.676C177.062 9.81496 177.719 9.05868 178.504 8.45038C179.288 7.84209 180.186 7.3937 181.144 7.13083C182.103 6.86796 183.104 6.79575 184.091 6.91834C185.078 7.04094 186.031 7.35592 186.895 7.8453C187.76 8.33468 188.519 8.98887 189.129 9.7705C189.74 10.5521 190.19 11.4459 190.453 12.4007C190.717 13.3555 190.789 14.3527 190.666 15.3353L189.966 20.9178C189.933 21.1842 189.794 21.4264 189.581 21.5913C189.369 21.7561 189.099 21.8302 188.831 21.7973L175.825 20.1815C175.558 20.148 175.315 20.0101 175.149 19.7982C174.984 19.5864 174.909 19.3177 174.942 19.0513Z" fill="#2F2E41"/>
<path d="M181.172 20.7172C184.238 20.7172 186.722 18.2426 186.722 15.1901C186.722 12.1376 184.238 9.66309 181.172 9.66309C178.107 9.66309 175.622 12.1376 175.622 15.1901C175.622 18.2426 178.107 20.7172 181.172 20.7172Z" fill="#FFB8B8"/>
<path d="M173.808 13.6951C174.007 12.1264 174.822 10.7001 176.075 9.72919C177.328 8.75823 178.916 8.32186 180.492 8.51582L181.613 8.65513C183.189 8.85263 184.621 9.6643 185.596 10.9121C186.571 12.1598 187.009 13.7418 186.814 15.3109L186.8 15.4225L184.431 15.1281L183.905 12.7742L183.461 15.0077L182.236 14.8555L181.971 13.6679L181.747 14.7947L173.794 13.8067L173.808 13.6951Z" fill="#2F2E41"/>
<path d="M154.026 34.9062C154.196 35.2379 154.437 35.5285 154.731 35.7575C155.026 35.9866 155.367 36.1485 155.732 36.2319C156.096 36.3153 156.474 36.3182 156.839 36.2403C157.205 36.1624 157.549 36.0057 157.847 35.7811L162.888 38.7219L165.43 36.1071L158.252 32.0537C157.84 31.5801 157.268 31.2734 156.644 31.1917C156.02 31.1101 155.388 31.2592 154.867 31.6108C154.346 31.9624 153.973 32.4921 153.818 33.0995C153.663 33.7068 153.737 34.3497 154.026 34.9062Z" fill="#FFB8B8"/>
<path d="M170.549 40.1904C166.83 40.1904 160.287 38.5327 159.924 38.4401L159.81 38.4109L160.84 33.2186L170.834 35.1844L176.264 27.5705L182.497 26.9395L182.323 27.1675C182.242 27.2737 174.207 37.8073 172.956 39.5744C172.641 40.0202 171.739 40.1904 170.549 40.1904Z" fill="#3F3D56"/>
<path d="M171.545 59.6784L171.397 59.6076C171.365 59.5925 168.206 58.0623 166.569 55.0749C164.941 52.1017 172.565 39.4891 173.098 38.614L173.106 34.6086L175.848 27.2352L179.346 25.2666L176.343 32.2439L171.545 59.6784Z" fill="#3F3D56"/>
<path d="M168.041 102.728L164.699 102.728L163.108 89.8887L168.042 89.8889L168.041 102.728Z" fill="#FFB8B8"/>
<path d="M168.894 105.955L158.116 105.955V105.819C158.116 104.711 158.558 103.649 159.345 102.865C160.131 102.082 161.198 101.642 162.311 101.642H162.311L168.894 101.642L168.894 105.955Z" fill="#2F2E41"/>
<path d="M203.946 99.8113L200.769 100.848L195.243 89.1398L199.932 87.6104L203.946 99.8113Z" fill="#FFB8B8"/>
<path d="M205.764 102.613L195.522 105.955L195.479 105.826C195.133 104.773 195.221 103.626 195.724 102.637C196.226 101.649 197.102 100.9 198.16 100.555L198.16 100.555L204.416 98.5137L205.764 102.613Z" fill="#2F2E41"/>
<path d="M197.473 97.7122L187.944 81.8704L179.9 64.9452L172.662 79.8958L169.786 99.2593L159.702 99.3988L159.741 99.2418L175.174 38.1777L187.26 39.9759L186.71 47.9206L187.038 48.3846C189.768 52.2471 192.591 56.2406 190.972 60.5455L195.562 74.1176L205.722 96.7165L197.473 97.7122Z" fill="#2F2E41"/>
<path d="M175.726 51.4116C173.975 51.4116 171.977 49.4202 173.013 46.0203L172.946 45.972L175.436 35.0173C173.263 31.9227 176.128 29.3688 176.396 29.1407L177.764 26.6895L183.798 22.8789L186.85 48.1384L186.805 48.1814C184.6 50.2822 177.195 51.4116 175.726 51.4116Z" fill="#FED7AA"/>
<path d="M188.083 57.1116C187.843 57.1153 187.604 57.0901 187.37 57.0365C187.136 56.9779 186.756 56.6804 186.169 54.777C183.835 47.2103 181.08 24.4428 183.082 22.2149L183.127 22.1638L186.414 22.7093C186.687 22.5085 188.121 21.5119 189.444 21.6852C189.717 21.7193 189.979 21.8087 190.215 21.9478C190.452 22.0869 190.657 22.2728 190.818 22.4939L190.841 22.5235L191.888 37.358L195.724 54.8154L195.632 54.8569C195.409 54.9581 190.619 57.1116 188.083 57.1116Z" fill="#3F3D56"/>
<path d="M185.873 51.3132C186.246 51.3007 186.612 51.2069 186.946 51.0383C187.279 50.8697 187.571 50.6303 187.801 50.3372C188.031 50.044 188.194 49.7041 188.278 49.3414C188.362 48.9788 188.366 48.6022 188.288 48.2381L193.099 44.938L191.799 41.5371L185.07 46.2926C184.464 46.4634 183.943 46.8494 183.604 47.3776C183.265 47.9057 183.133 48.5392 183.232 49.158C183.331 49.7769 183.654 50.3381 184.141 50.7353C184.628 51.1325 185.244 51.3381 185.873 51.3132Z" fill="#FFB8B8"/>
<path d="M191.511 47.5827L187.226 44.4529L193.25 36.2721L188.627 28.1477L190.695 22.2578L190.829 22.5115C190.891 22.6296 197.065 34.3421 198.142 36.2192C199.263 38.1717 191.9 47.1123 191.587 47.4918L191.511 47.5827Z" fill="#3F3D56"/>
<path d="M149.431 65.0251L70.6804 67.6833C68.734 67.7468 66.8418 67.0389 65.4189 65.7148C63.996 64.3907 63.1586 62.5587 63.0904 60.6206L61.7935 22.5173C61.7297 20.579 62.4406 18.6947 63.7702 17.2777C65.0998 15.8607 66.9396 15.0268 68.8858 14.9589L147.637 12.3008C149.583 12.2373 151.475 12.9452 152.898 14.2693C154.321 15.5934 155.158 17.4254 155.227 19.3635L156.523 57.4668C156.587 59.4051 155.876 61.2894 154.547 62.7064C153.217 64.1233 151.377 64.9572 149.431 65.0251Z" fill="white"/>
<path d="M156.523 57.4668L156.53 57.6684C156.593 59.52 155.915 61.3206 154.644 62.6741C153.374 64.0276 151.615 64.823 149.756 64.8855L70.6115 67.5569C68.7525 67.6195 66.9446 66.9442 65.5855 65.6795C64.2265 64.4148 63.4275 62.6643 63.3643 60.8131L63.3574 60.6115L156.523 57.4668Z" fill="#F2F2F2"/>
<path d="M78.7795 26.8233C73.1079 28.4231 67.8244 24.2145 66.7896 20.1797L67.1853 20.0954C71.9699 18.8715 77.468 22.1214 78.7795 26.8233Z" fill="#EA580C"/>
<path d="M134.853 54.062C133.575 54.1052 132.546 53.7611 131.794 53.0392C130.095 51.4076 130.087 48.1525 130.081 45.5368C130.079 44.7759 130.077 44.0571 130.034 43.4565L130.033 43.4474C129.999 42.2721 130.432 41.1309 131.238 40.2716C132.044 39.4123 133.157 38.9044 134.337 38.8582L144.93 38.5007C146.206 38.4576 147.234 38.8012 147.985 39.5221C149.685 41.1522 149.694 44.4066 149.701 47.0215C149.703 47.7841 149.705 48.5044 149.749 49.1061C149.785 50.283 149.352 51.4265 148.546 52.2877C147.74 53.1489 146.624 53.6581 145.443 53.7045L134.853 54.062ZM130.478 43.4293C130.522 44.0443 130.524 44.7688 130.526 45.5358C130.532 48.0677 130.539 51.2188 132.103 52.72C132.774 53.3644 133.669 53.6584 134.838 53.619L145.427 53.2615C146.49 53.2201 147.493 52.7628 148.219 51.989C148.945 51.2152 149.335 50.1875 149.304 49.129C149.26 48.521 149.258 47.7933 149.256 47.0227C149.249 44.4915 149.24 41.3412 147.676 39.8413C147.006 39.198 146.112 38.9043 144.945 38.9437L134.353 39.3013C133.291 39.343 132.289 39.7998 131.564 40.5726C130.838 41.3454 130.448 42.3718 130.478 43.4293Z" fill="#3F3D56"/>
<path d="M76.4534 27.3096C74.5957 27.3611 72.7607 26.8924 71.1571 25.957C68.8087 24.6114 66.9945 22.3907 66.4226 20.1617L66.3652 19.9383L66.983 19.8066C71.839 18.5661 77.4908 21.8445 78.8425 26.6889L78.9018 26.9013L78.6888 26.9615C77.9606 27.1672 77.21 27.2841 76.4534 27.3096ZM66.9153 20.2744C67.5193 22.3164 69.2099 24.3297 71.3791 25.5727C73.4778 26.8125 75.9824 27.1791 78.3505 26.5933C76.9553 22.0846 71.6529 19.0666 67.0895 20.2371L66.9153 20.2744Z" fill="#3F3D56"/>
<path d="M71.1386 52.6934C70.4694 52.7407 69.7998 52.6057 69.2018 52.3028C68.6038 51.9999 68.0998 51.5406 67.7441 50.9741C67.3316 50.2989 67.1006 49.5293 67.0735 48.7394C67.0464 47.9495 67.224 47.166 67.5892 46.4643C67.9123 45.8633 68.3963 45.3631 68.9873 45.0192C69.5784 44.6753 70.2535 44.501 70.9379 44.5158L85.0516 44.0394C85.733 43.9802 86.4176 44.1096 87.0298 44.4132C87.6421 44.7168 88.1583 45.1829 88.5215 45.7601C88.9336 46.4354 89.1642 47.205 89.1911 47.9948C89.2179 48.7845 89.04 49.5679 88.6746 50.2694C88.01 51.4952 86.8207 52.178 85.3265 52.2139L71.2126 52.6904C71.1878 52.6915 71.1632 52.6925 71.1386 52.6934ZM70.8837 44.9606C70.2891 44.9568 69.7048 45.1143 69.1934 45.4163C68.682 45.7183 68.2628 46.1533 67.9811 46.6747C67.652 47.3068 67.492 48.0127 67.5165 48.7243C67.5409 49.4359 67.749 50.1293 68.1207 50.7376C68.443 51.2473 68.9008 51.6583 69.4433 51.9248C69.9858 52.1913 70.5918 52.3029 71.1941 52.2474L85.3148 51.7708C85.92 51.7859 86.5176 51.634 87.0414 51.3319C87.5653 51.0297 87.9949 50.5891 88.2828 50.0587C88.6121 49.4268 88.7723 48.7211 88.7481 48.0095C88.7239 47.298 88.5162 46.6047 88.1448 45.9963C87.8218 45.4867 87.3637 45.0757 86.8212 44.8085C86.2787 44.5414 85.6727 44.4285 85.0699 44.4823L70.9484 44.959C70.9268 44.9594 70.9051 44.9599 70.8837 44.9606Z" fill="#3F3D56"/>
<path d="M138.137 44.004L133.687 44.1542C133.393 44.1638 133.106 44.0565 132.891 43.8558C132.675 43.6552 132.549 43.3776 132.539 43.0841C132.529 42.7905 132.636 42.5051 132.837 42.2903C133.039 42.0756 133.317 41.9492 133.612 41.9389L138.061 41.7887C138.356 41.7788 138.643 41.8859 138.859 42.0866C139.074 42.2873 139.201 42.5651 139.211 42.8588C139.221 43.1526 139.114 43.4383 138.912 43.6531C138.71 43.8678 138.432 43.9941 138.137 44.004Z" fill="#EA580C"/>
<path d="M138.257 47.549L133.808 47.6992C133.662 47.7043 133.516 47.6807 133.379 47.6297C133.242 47.5787 133.116 47.5013 133.009 47.4019C132.902 47.3025 132.816 47.1831 132.756 47.0505C132.695 46.9179 132.661 46.7747 132.656 46.6291C132.651 46.4835 132.675 46.3384 132.727 46.202C132.778 46.0656 132.856 45.9407 132.956 45.8343C133.056 45.7279 133.176 45.6422 133.309 45.5821C133.443 45.522 133.586 45.4886 133.733 45.4839L138.182 45.3337C138.328 45.3286 138.474 45.3522 138.611 45.4032C138.748 45.4542 138.873 45.5316 138.98 45.631C139.087 45.7304 139.174 45.8498 139.234 45.9824C139.295 46.115 139.328 46.2582 139.333 46.4038C139.338 46.5494 139.314 46.6945 139.263 46.8309C139.212 46.9673 139.134 47.0922 139.034 47.1986C138.934 47.3049 138.814 47.3906 138.681 47.4508C138.547 47.5109 138.403 47.5443 138.257 47.549Z" fill="#EA580C"/>
<path d="M138.378 51.0929L133.929 51.2431C133.634 51.253 133.347 51.1459 133.131 50.9452C132.916 50.7445 132.789 50.4667 132.779 50.173C132.769 49.8792 132.877 49.5935 133.078 49.3787C133.28 49.164 133.559 49.0377 133.854 49.0278L138.303 48.8776C138.449 48.8727 138.594 48.8964 138.731 48.9475C138.868 48.9987 138.994 49.0761 139.1 49.1755C139.207 49.2748 139.293 49.3942 139.354 49.5267C139.414 49.6592 139.448 49.8022 139.453 49.9477C139.458 50.0932 139.434 50.2382 139.382 50.3744C139.331 50.5107 139.253 50.6356 139.154 50.7419C139.054 50.8483 138.934 50.934 138.801 50.9942C138.668 51.0544 138.524 51.088 138.378 51.0929Z" fill="#EA580C"/>
<path d="M145.923 43.7413L141.474 43.8915C141.327 43.8967 141.182 43.873 141.045 43.822C140.908 43.771 140.782 43.6936 140.675 43.5942C140.568 43.4948 140.482 43.3754 140.421 43.2428C140.361 43.1102 140.327 42.967 140.322 42.8214C140.317 42.6758 140.341 42.5307 140.392 42.3943C140.444 42.2579 140.522 42.133 140.622 42.0266C140.722 41.9203 140.842 41.8346 140.975 41.7744C141.108 41.7143 141.252 41.6809 141.398 41.6762L145.847 41.526C145.993 41.5211 146.139 41.5449 146.276 41.596C146.413 41.6471 146.538 41.7245 146.645 41.8239C146.752 41.9233 146.838 42.0426 146.898 42.1751C146.959 42.3076 146.992 42.4507 146.997 42.5961C147.002 42.7416 146.978 42.8866 146.927 43.0229C146.876 43.1591 146.798 43.284 146.698 43.3904C146.598 43.4967 146.479 43.5824 146.346 43.6427C146.212 43.7029 146.069 43.7364 145.923 43.7413Z" fill="#EA580C"/>
<path d="M146.043 47.2863L141.594 47.4365C141.299 47.4464 141.012 47.3393 140.796 47.1386C140.581 46.9379 140.454 46.6601 140.444 46.3664C140.434 46.0726 140.542 45.7869 140.743 45.5721C140.945 45.3574 141.224 45.2311 141.519 45.2212L145.968 45.071C146.114 45.0659 146.26 45.0895 146.397 45.1405C146.534 45.1915 146.659 45.2689 146.766 45.3683C146.873 45.4677 146.96 45.5871 147.02 45.7197C147.081 45.8523 147.114 45.9955 147.119 46.1411C147.124 46.2867 147.1 46.4318 147.049 46.5682C146.998 46.7046 146.92 46.8295 146.82 46.9359C146.72 47.0422 146.6 47.128 146.466 47.1881C146.333 47.2482 146.189 47.2816 146.043 47.2863Z" fill="#EA580C"/>
<path d="M146.164 50.8302L141.715 50.9804C141.569 50.9855 141.423 50.9619 141.286 50.9109C141.149 50.8599 141.023 50.7825 140.916 50.6831C140.809 50.5837 140.723 50.4643 140.662 50.3317C140.602 50.1991 140.568 50.0559 140.563 49.9103C140.558 49.7647 140.582 49.6196 140.634 49.4832C140.685 49.3468 140.763 49.2219 140.863 49.1155C140.963 49.0091 141.083 48.9235 141.216 48.8633C141.349 48.8032 141.493 48.7698 141.639 48.7651L146.089 48.6149C146.235 48.61 146.38 48.6337 146.517 48.6848C146.654 48.7359 146.779 48.8134 146.886 48.9128C146.993 49.0121 147.079 49.1315 147.139 49.264C147.2 49.3965 147.234 49.5395 147.239 49.685C147.243 49.8305 147.22 49.9755 147.168 50.1117C147.117 50.248 147.039 50.3729 146.939 50.4792C146.84 50.5856 146.72 50.6713 146.587 50.7315C146.454 50.7917 146.31 50.8253 146.164 50.8302Z" fill="#EA580C"/>
<path d="M155.51 27.658L62.3433 30.8027L62.3583 31.2458L155.525 28.101L155.51 27.658Z" fill="#3F3D56"/>
<path d="M149.431 65.0251L70.6804 67.6833C68.734 67.7468 66.8418 67.0389 65.4189 65.7148C63.996 64.3907 63.1586 62.5587 63.0904 60.6206L61.7935 22.5173C61.7297 20.579 62.4406 18.6947 63.7702 17.2777C65.0998 15.8607 66.9396 15.0268 68.8858 14.9589L147.637 12.3008C149.583 12.2373 151.475 12.9452 152.898 14.2693C154.321 15.5934 155.158 17.4254 155.227 19.3635L156.523 57.4668C156.587 59.4051 155.876 61.2894 154.547 62.7064C153.217 64.1233 151.377 64.9572 149.431 65.0251ZM68.9009 15.402C67.0726 15.4658 65.3444 16.2491 64.0954 17.5802C62.8464 18.9113 62.1785 20.6814 62.2384 22.5022L63.5354 60.6055C63.5994 62.4262 64.3861 64.1472 65.7227 65.391C67.0594 66.6348 68.8369 67.2998 70.6654 67.2402L149.416 64.5821C151.244 64.5183 152.973 63.7349 154.222 62.4038C155.471 61.0728 156.138 59.3026 156.079 57.4818L154.782 19.3785C154.718 17.5579 153.931 15.8369 152.594 14.5931C151.258 13.3492 149.48 12.6842 147.652 12.7439L68.9009 15.402Z" fill="#3F3D56"/>
<path d="M36.5991 55.5973C36.5805 55.2076 36.4764 54.8267 36.294 54.4813C36.1116 54.136 35.8554 53.8347 35.5435 53.5986C35.2315 53.3626 34.8714 53.1975 34.4884 53.115C34.1054 53.0326 33.709 53.0347 33.327 53.1214L29.7828 48.1475L26.2222 49.5551L31.3263 56.5091C31.515 57.1386 31.929 57.6773 32.4899 58.0231C33.0507 58.3689 33.7195 58.4978 34.3694 58.3855C35.0193 58.2731 35.6053 57.9272 36.0162 57.4133C36.4272 56.8994 36.6345 56.2533 36.5991 55.5973Z" fill="#A0616A"/>
<path d="M29.6914 55.2292L18.9673 41.3749L22.9855 28.7989C23.28 25.6371 25.2668 24.7542 25.3513 24.7182L25.4803 24.6631L28.9769 33.9487L26.4096 40.7664L32.711 51.3203L29.6914 55.2292Z" fill="#3F3D56"/>
<path d="M66.9346 12.5211C66.5459 12.5697 66.1725 12.7025 65.8409 12.9103C65.5093 13.118 65.2274 13.3957 65.0152 13.7237C64.8029 14.0517 64.6655 14.422 64.6126 14.8086C64.5596 15.1952 64.5924 15.5886 64.7087 15.9612L60.0029 19.8646L61.6875 23.2909L68.2552 17.6856C68.8708 17.4496 69.3781 16.997 69.681 16.4134C69.9838 15.8298 70.0612 15.1559 69.8984 14.5193C69.7357 13.8827 69.344 13.3277 68.7978 12.9594C68.2516 12.5911 67.5886 12.4352 66.9346 12.5211Z" fill="#A0616A"/>
<path d="M67.0996 19.4077L54.0579 31.1263L41.1564 28.1091C37.9681 28.0612 36.9305 26.1569 36.8879 26.0757L36.8228 25.952L45.8491 21.7624L52.8733 23.7843L62.9525 16.7119L67.0996 19.4077Z" fill="#3F3D56"/>
<path d="M44.5096 102.714H48.0136L49.6804 89.2549L44.5088 89.2552L44.5096 102.714Z" fill="#A0616A"/>
<path d="M54.7715 105.954L43.7588 105.955L43.7586 101.717L50.9993 101.717C51.9997 101.717 52.9591 102.113 53.6665 102.817C54.374 103.522 54.7714 104.477 54.7715 105.473L54.7715 105.954Z" fill="#2F2E41"/>
<path d="M30.5047 102.714H34.0087L35.6755 89.2549L30.5039 89.2552L30.5047 102.714Z" fill="#A0616A"/>
<path d="M40.7666 105.954L29.7539 105.955L29.7538 101.717L36.9944 101.717C37.4897 101.717 37.9802 101.814 38.4379 102.003C38.8955 102.192 39.3114 102.468 39.6617 102.817C40.0119 103.166 40.2898 103.58 40.4794 104.036C40.669 104.492 40.7666 104.98 40.7666 105.473L40.7666 105.954Z" fill="#2F2E41"/>
<path d="M29.2583 53.5879L29.5442 73.5115L29.8297 99.6966L36.1178 99.1273L39.2617 62.9805L43.2632 99.1273H49.7548L50.4086 62.6958L48.122 54.7263L29.2583 53.5879Z" fill="#2F2E41"/>
<path d="M41.5655 56.263C34.7238 56.2635 28.4262 53.1799 28.3411 53.1375L28.2705 53.1024L27.6964 39.3812C27.5299 38.8964 24.2515 29.3288 23.6962 26.2877C23.1337 23.2067 31.287 20.5027 32.2771 20.1865L32.5017 17.708L41.6385 16.7275L42.7965 19.8989L46.0744 21.1229C46.446 21.2618 46.7536 21.5316 46.9388 21.8812C47.124 22.2307 47.174 22.6358 47.0793 23.0197L45.2575 30.3974L49.7069 54.8063L48.749 54.8476C46.4825 55.8216 44.0337 56.3041 41.5655 56.263Z" fill="#A1A1AA"/>
<path d="M37.4281 15.1578C41.0613 15.1578 44.0066 12.2248 44.0066 8.60672C44.0066 4.98867 41.0613 2.05566 37.4281 2.05566C33.7949 2.05566 30.8496 4.98867 30.8496 8.60672C30.8496 12.2248 33.7949 15.1578 37.4281 15.1578Z" fill="#A0616A"/>
<path d="M32.0995 14.9485C33.3532 16.2784 35.6815 15.5645 35.8448 13.7476C35.8577 13.6066 35.8567 13.4646 35.8421 13.3238C35.7577 12.519 35.2908 11.7883 35.4027 10.9386C35.428 10.7271 35.5071 10.5256 35.6325 10.3531C36.6316 9.02087 38.9768 10.949 39.9196 9.74294C40.4978 9.00343 39.8182 7.83912 40.2618 7.0126C40.8474 5.92172 42.5818 6.45985 43.6694 5.86243C44.8796 5.19773 44.8072 3.34878 44.0106 2.22415C43.0391 0.852621 41.3358 0.120774 39.6537 0.0153016C37.9716 -0.0901706 36.3011 0.362641 34.7307 0.972086C32.9464 1.66454 31.177 2.62152 30.079 4.1839C28.7437 6.08391 28.6152 8.63831 29.283 10.86C29.6892 12.2115 31.0757 13.8625 32.0995 14.9485Z" fill="#2F2E41"/>
<path d="M217.733 106.31H0.267157C0.196302 106.31 0.12835 106.282 0.0782482 106.232C0.0281466 106.183 0 106.115 0 106.044C0 105.974 0.0281466 105.906 0.0782482 105.856C0.12835 105.806 0.196302 105.778 0.267157 105.778H217.733C217.804 105.778 217.872 105.806 217.922 105.856C217.972 105.906 218 105.974 218 106.044C218 106.115 217.972 106.183 217.922 106.232C217.872 106.282 217.804 106.31 217.733 106.31Z" fill="#CACACA"/>
<path d="M121.27 142.953L124.426 142.953L125.927 130.83L121.269 130.83L121.27 142.953Z" fill="#FFB8B8"/>
<path d="M120.464 141.927L126.68 141.927C127.731 141.927 128.738 142.342 129.481 143.082C130.224 143.822 130.641 144.825 130.641 145.871V145.999L120.465 146L120.464 141.927Z" fill="#2F2E41"/>
<path d="M91.9214 142.953L95.0776 142.953L96.579 130.83L91.9209 130.83L91.9214 142.953Z" fill="#FFB8B8"/>
<path d="M91.1162 141.927L97.3318 141.927C98.3824 141.927 99.3901 142.342 100.133 143.082C100.876 143.822 101.293 144.825 101.293 145.871V145.999L91.1164 146L91.1162 141.927Z" fill="#2F2E41"/>
<path d="M122.527 81.4318C122.527 81.4318 125.177 88.5924 124.798 91.6074C124.42 94.6224 127.447 115.728 127.069 117.612C126.69 119.496 127.447 128.918 127.069 130.426C126.69 131.933 128.131 133.734 127.374 135.241C126.617 136.749 125.555 139.848 125.555 139.848L120.635 139.471L119.878 135.325C119.878 135.325 117.607 134.948 117.986 132.687C118.364 130.426 116.094 115.351 116.094 115.351L109.66 94.2456L100.577 113.466C100.577 113.466 100.198 127.034 99.063 128.541C97.9276 130.049 100.198 134.195 99.063 135.702C97.9276 137.21 96.7923 139.848 96.7923 139.848H91.1154V136.833C91.1154 136.833 87.7093 134.948 91.1154 129.295L93.417 95.3455L95.6877 79.8936L122.527 81.4318Z" fill="#2F2E41"/>
<path d="M108.419 34.0431C112.323 34.0431 115.488 30.8916 115.488 27.004C115.488 23.1164 112.323 19.9648 108.419 19.9648C104.515 19.9648 101.351 23.1164 101.351 27.004C101.351 30.8916 104.515 34.0431 108.419 34.0431Z" fill="#FFB8B8"/>
<path d="M114.435 26.5187C113.936 27.7877 113.437 29.0568 112.938 30.3258C112.325 31.8859 111.623 33.5551 110.185 34.4257C108.411 35.5007 106.041 34.9766 104.324 33.8121C102.78 32.7647 101.595 31.2719 100.928 29.5342C100.261 27.7965 100.143 25.8971 100.592 24.0911C101.04 22.2851 102.033 20.659 103.437 19.4312C104.84 18.2035 106.588 17.4329 108.444 17.2229L108.515 18.4972L110.085 17.1865C110.201 17.385 110.361 17.5546 110.552 17.6827C110.744 17.8108 110.962 17.8941 111.19 17.9263C111.419 17.9584 111.651 17.9386 111.871 17.8684C112.091 17.7982 112.291 17.6793 112.458 17.5207C112.046 18.3721 112.522 19.4105 113.209 20.0627C114.054 20.864 116.469 21.8269 116.369 23.2592C116.302 24.2151 114.824 25.5281 114.435 26.5187Z" fill="#2F2E41"/>
<path d="M88.9618 91.8453C88.7182 91.4833 88.5573 91.0726 88.4903 90.642C88.4234 90.2114 88.452 89.7714 88.5743 89.353C88.6966 88.9346 88.9095 88.548 89.198 88.2205C89.4866 87.8929 89.8438 87.6323 90.2444 87.4571L90.1031 80.6475L94.2377 79.5527L94.3015 89.172C94.5526 89.8617 94.5408 90.6191 94.2685 91.3008C93.9962 91.9824 93.4822 92.5409 92.824 92.8704C92.1658 93.2 91.4091 93.2776 90.6973 93.0887C89.9855 92.8997 89.368 92.4573 88.9618 91.8453Z" fill="#FFB8B8"/>
<path d="M103.169 38.3945C103.169 38.3945 108.646 35.6671 113.82 37.4854C118.993 39.3036 121.732 41.4249 121.732 41.4249L118.384 59.0014L122.949 82.6387C122.949 82.6387 99.5168 80.8205 97.3866 82.6387C95.2564 84.457 95.2564 80.5174 95.2564 80.5174L97.0823 58.0923L93.7349 43.8493L103.169 38.3945Z" fill="#A1A1AA"/>
<path d="M126.288 92.2478C125.952 91.9685 125.682 91.6193 125.496 91.2247C125.31 90.8301 125.214 90.3998 125.213 89.9641C125.213 89.5284 125.308 89.0978 125.493 88.7027C125.677 88.3077 125.946 87.9577 126.282 87.6775L124.226 81.1813L127.886 78.9746L130.659 88.1891C131.094 88.7809 131.297 89.5111 131.227 90.2415C131.158 90.9719 130.822 91.6516 130.284 92.1519C129.745 92.6522 129.04 92.9383 128.304 92.9559C127.568 92.9736 126.85 92.7217 126.288 92.2478Z" fill="#FFB8B8"/>
<path d="M119.601 41.4248H121.731C121.731 41.4248 125.079 43.5461 125.079 46.5765C125.079 49.6069 129.948 85.0629 129.948 85.0629L124.774 85.9721L120.21 61.1226L116.862 54.4556L119.601 41.4248Z" fill="#A1A1AA"/>
<path d="M99.5165 43.8486H93.7346C93.7346 43.8486 91.9087 45.6669 90.9958 49.9095C90.0829 54.1521 89.1699 70.8194 89.1699 70.8194L89.7785 85.9716H94.3432L94.9519 66.2738L97.995 53.546L99.5165 43.8486Z" fill="#A1A1AA"/>
</g>
<defs>
<clipPath id="clip0_28_4918">
<rect width="218" height="146" fill="white"/>
</clipPath>
</defs>
</svg>
