<svg width="176" height="126" viewBox="0 0 176 126" fill="none" xmlns="http://www.w3.org/2000/svg">
<g filter="url(#filter0_d_660_3023)">
<g filter="url(#filter1_d_660_3023)">
<path d="M12.2334 35.6667L63.8581 8.63672V17.6736L22.443 39.8785L12.2334 35.6667Z" fill="url(#paint0_linear_660_3023)"/>
</g>
<g filter="url(#filter2_d_660_3023)">
<path d="M63.6973 8.59131L115.07 35.4904H97.9308L63.6973 17.6281V8.59131Z" fill="url(#paint1_linear_660_3023)"/>
</g>
<path d="M91.9569 96.684L86.0926 103.161L79.2046 109.637L71.634 115.965L64.0635 121.259L64.2241 111.605L80.9605 96.4976L91.9569 96.684Z" fill="url(#paint2_linear_660_3023)"/>
<path d="M63.3963 119.919L57.2127 115.432L50.1825 110.147L44.2769 104.651L38.3714 97.0891L32.4659 89.0112L26.5603 78.3513L22.3397 70.089L19.1423 61.3108L16.0719 49.1757L13.001 35.7476L22.7219 39.6205L27.9995 60.5042L33.5316 73.3815L40.5987 85.2265L44.1323 90.1157L47.6659 94.4891L56.4274 103.59L64.4195 110.147L63.3963 119.919Z" fill="black" fill-opacity="0.3"/>
<path d="M64.1636 121.211L56.701 115.949L49.6706 110.663L43.7651 105.167L37.8596 97.6055L31.954 89.5276L26.0485 78.8676L21.8279 70.6054L18.6304 61.8272L15.56 49.6921L12.2334 35.7476L22.2101 39.8787L27.4876 61.0206L33.0198 73.8979L40.0869 85.7429L43.6204 90.6321L47.154 95.0055L55.9156 104.107L64.6773 111.143L64.1636 121.211Z" fill="url(#paint3_linear_660_3023)"/>
</g>
<path d="M49.6075 66.9024C48.0316 66.9024 46.6195 66.6442 45.3712 66.1278C44.1228 65.6114 43.12 64.8471 42.3628 63.835C41.6261 62.8229 41.2372 61.6042 41.1963 60.1789H46.7833C46.8651 60.9845 47.1414 61.6042 47.6121 62.0379C48.0828 62.4511 48.6968 62.6576 49.454 62.6576C50.2316 62.6576 50.8456 62.482 51.2958 62.1309C51.7461 61.7591 51.9712 61.253 51.9712 60.6127C51.9712 60.0756 51.787 59.6315 51.4186 59.2804C51.0707 58.9292 50.6307 58.6401 50.0986 58.4129C49.587 58.1856 48.8502 57.9274 47.8884 57.6383C46.4968 57.2045 45.3609 56.7707 44.4809 56.337C43.6009 55.9032 42.8437 55.2629 42.2093 54.416C41.5749 53.5691 41.2577 52.464 41.2577 51.1006C41.2577 49.0763 41.9842 47.4961 43.4372 46.3601C44.8902 45.2034 46.7833 44.625 49.1163 44.625C51.4902 44.625 53.4037 45.2034 54.8568 46.3601C56.3098 47.4961 57.0875 49.0866 57.1898 51.1316H51.5107C51.4698 50.4293 51.214 49.8819 50.7433 49.4894C50.2726 49.0763 49.6688 48.8698 48.9321 48.8698C48.2977 48.8698 47.7861 49.0453 47.3972 49.3965C47.0084 49.727 46.814 50.2124 46.814 50.8527C46.814 51.555 47.1414 52.1025 47.7963 52.495C48.4512 52.8874 49.4744 53.3109 50.8661 53.7653C52.2577 54.2404 53.3833 54.6948 54.2428 55.1286C55.1228 55.5624 55.88 56.1924 56.5144 57.0186C57.1488 57.8448 57.4661 58.9086 57.4661 60.2099C57.4661 61.4493 57.1488 62.575 56.5144 63.5871C55.9005 64.5993 55 65.4048 53.813 66.0038C52.6261 66.6029 51.2242 66.9024 49.6075 66.9024ZM74.1114 62.8435H66.0686L64.7793 66.6855H59.2844L67.0816 44.9348H73.1597L80.9569 66.6855H75.4007L74.1114 62.8435ZM72.7607 58.7537L70.09 50.7907L67.45 58.7537H72.7607ZM97.3587 44.9348V49.1796H88.5792V53.7653H95.1485V57.8861H88.5792V66.6855H83.3299V44.9348H97.3587ZM105.367 49.1796V53.5794H112.397V57.6693H105.367V62.4407H113.318V66.6855H100.118V44.9348H113.318V49.1796H105.367ZM132.228 44.9348V49.1796H126.518V66.6855H121.269V49.1796H115.559V44.9348H132.228ZM145.852 66.6855L141.37 58.4748H140.112V66.6855H134.863V44.9348H143.673C145.371 44.9348 146.814 45.2343 148.001 45.8334C149.209 46.4324 150.109 47.2586 150.703 48.312C151.296 49.3448 151.593 50.5016 151.593 51.7824C151.593 53.2283 151.184 54.5193 150.365 55.6553C149.567 56.7914 148.38 57.597 146.804 58.072L151.777 66.6855H145.852ZM140.112 54.7258H143.366C144.328 54.7258 145.044 54.4883 145.515 54.0132C146.006 53.5381 146.251 52.8668 146.251 51.9993C146.251 51.1729 146.006 50.5222 145.515 50.0471C145.044 49.572 144.328 49.3345 143.366 49.3345H140.112V54.7258ZM168.303 62.8435H160.26L158.971 66.6855H153.476L161.273 44.9348H167.351L175.149 66.6855H169.592L168.303 62.8435ZM166.952 58.7537L164.282 50.7907L161.642 58.7537H166.952Z" fill="white"/>
<path d="M67.3558 75.9639C66.9823 75.9639 66.6447 75.8994 66.3428 75.7703C66.0461 75.6412 65.8107 75.4553 65.6368 75.2126C65.4628 74.9699 65.3733 74.6833 65.3682 74.3528H66.5193C66.5347 74.5748 66.6114 74.7504 66.7496 74.8795C66.8928 75.0086 67.0872 75.0731 67.3328 75.0731C67.5835 75.0731 67.7805 75.0138 67.9237 74.895C68.067 74.7711 68.1386 74.611 68.1386 74.4147C68.1386 74.2547 68.09 74.123 67.9928 74.0197C67.8956 73.9164 67.7728 73.8364 67.6244 73.7796C67.4812 73.7176 67.2817 73.6505 67.0258 73.5782C66.6779 73.4749 66.394 73.3742 66.174 73.2761C65.9591 73.1728 65.7723 73.0205 65.6137 72.8191C65.4603 72.6125 65.3835 72.3388 65.3835 71.998C65.3835 71.6779 65.4628 71.399 65.6214 71.1615C65.78 70.9239 66.0026 70.7432 66.2891 70.6192C66.5756 70.4902 66.903 70.4256 67.2714 70.4256C67.824 70.4256 68.2717 70.5624 68.6144 70.8361C68.9624 71.1047 69.1542 71.4816 69.19 71.967H68.0082C67.9979 71.7811 67.9186 71.6288 67.7703 71.51C67.627 71.3861 67.4351 71.3241 67.1947 71.3241C66.9849 71.3241 66.8161 71.3783 66.6882 71.4868C66.5654 71.5952 66.504 71.7527 66.504 71.9593C66.504 72.1039 66.55 72.2252 66.6421 72.3233C66.7393 72.4163 66.857 72.4938 66.9951 72.5557C67.1384 72.6125 67.3379 72.6797 67.5937 72.7571C67.9417 72.8604 68.2256 72.9637 68.4456 73.067C68.6656 73.1702 68.8549 73.3252 69.0135 73.5317C69.1721 73.7383 69.2514 74.0094 69.2514 74.345C69.2514 74.6342 69.1772 74.9027 69.0289 75.1506C68.8805 75.3985 68.6631 75.5973 68.3765 75.747C68.09 75.8916 67.7498 75.9639 67.3558 75.9639ZM74.1354 73.6711C74.1354 73.826 74.1252 73.9655 74.1047 74.0894H70.9966C71.0222 74.3993 71.1296 74.6419 71.3189 74.8175C71.5082 74.9931 71.741 75.0809 72.0173 75.0809C72.4164 75.0809 72.7003 74.9079 72.8691 74.5619H74.028C73.9052 74.975 73.6698 75.3158 73.3219 75.5844C72.974 75.8477 72.5468 75.9794 72.0403 75.9794C71.631 75.9794 71.2626 75.889 70.9352 75.7083C70.6129 75.5224 70.3596 75.2616 70.1754 74.926C69.9963 74.5903 69.9068 74.203 69.9068 73.7641C69.9068 73.32 69.9963 72.9301 70.1754 72.5945C70.3545 72.2588 70.6052 72.0006 70.9275 71.8199C71.2498 71.6391 71.6208 71.5488 72.0403 71.5488C72.4445 71.5488 72.8052 71.6365 73.1224 71.8121C73.4447 71.9877 73.6929 72.2381 73.8668 72.5635C74.0459 72.8836 74.1354 73.2529 74.1354 73.6711ZM73.0226 73.3613C73.0175 73.0824 72.9177 72.8604 72.7233 72.6951C72.5289 72.5247 72.291 72.4395 72.0096 72.4395C71.7436 72.4395 71.5184 72.5222 71.3343 72.6874C71.1552 72.8475 71.0452 73.0721 71.0043 73.3613H73.0226ZM74.643 73.7641C74.643 73.32 74.7325 72.9327 74.9116 72.6022C75.0906 72.2665 75.3388 72.0083 75.656 71.8276C75.9732 71.6417 76.3364 71.5488 76.7457 71.5488C77.2727 71.5488 77.7076 71.683 78.0504 71.9515C78.3983 72.2149 78.6311 72.5867 78.7488 73.067H77.5899C77.5285 72.881 77.4236 72.7365 77.2753 72.6332C77.132 72.5247 76.953 72.4705 76.7381 72.4705C76.4311 72.4705 76.1881 72.5841 76.009 72.8113C75.8299 73.0334 75.7404 73.351 75.7404 73.7641C75.7404 74.172 75.8299 74.4896 76.009 74.7168C76.1881 74.9389 76.4311 75.0499 76.7381 75.0499C77.173 75.0499 77.4569 74.8537 77.5899 74.4612H78.7488C78.6311 74.926 78.3983 75.2952 78.0504 75.5689C77.7025 75.8426 77.2676 75.9794 76.7457 75.9794C76.3364 75.9794 75.9732 75.889 75.656 75.7083C75.3388 75.5224 75.0906 75.2642 74.9116 74.9337C74.7325 74.5981 74.643 74.2082 74.643 73.7641ZM83.5499 71.6185V75.9097H82.4678V75.3675C82.3297 75.5534 82.148 75.7006 81.9229 75.809C81.7029 75.9123 81.4624 75.9639 81.2015 75.9639C80.869 75.9639 80.5748 75.8942 80.319 75.7548C80.0631 75.6102 79.861 75.4011 79.7127 75.1274C79.5694 74.8485 79.4978 74.518 79.4978 74.1359V71.6185H80.5722V73.981C80.5722 74.3218 80.6566 74.5851 80.8255 74.771C80.9943 74.9518 81.2245 75.0422 81.5162 75.0422C81.8129 75.0422 82.0457 74.9518 82.2145 74.771C82.3834 74.5851 82.4678 74.3218 82.4678 73.981V71.6185H83.5499ZM85.6844 72.2846C85.8225 72.0574 86.0016 71.8793 86.2216 71.7502C86.4467 71.6211 86.7025 71.5565 86.989 71.5565V72.6951H86.7051C86.3674 72.6951 86.1116 72.7752 85.9377 72.9353C85.7688 73.0954 85.6844 73.3742 85.6844 73.7718V75.9097H84.61V71.6185H85.6844V72.2846ZM88.2574 71.1072C88.0681 71.1072 87.9095 71.0479 87.7816 70.9291C87.6588 70.8051 87.5974 70.6528 87.5974 70.4721C87.5974 70.2913 87.6588 70.1416 87.7816 70.0228C87.9095 69.8989 88.0681 69.8369 88.2574 69.8369C88.4467 69.8369 88.6027 69.8989 88.7255 70.0228C88.8534 70.1416 88.9174 70.2913 88.9174 70.4721C88.9174 70.6528 88.8534 70.8051 88.7255 70.9291C88.6027 71.0479 88.4467 71.1072 88.2574 71.1072ZM88.7869 71.6185V75.9097H87.7125V71.6185H88.7869ZM92.2046 71.5565C92.7111 71.5565 93.1204 71.7192 93.4325 72.0445C93.7446 72.3647 93.9006 72.8139 93.9006 73.3923V75.9097H92.8262V73.5395C92.8262 73.1986 92.7418 72.9379 92.573 72.7571C92.4041 72.5712 92.1739 72.4783 91.8823 72.4783C91.5855 72.4783 91.3502 72.5712 91.1762 72.7571C91.0074 72.9379 90.923 73.1986 90.923 73.5395V75.9097H89.8485V71.6185H90.923V72.1529C91.0662 71.967 91.2478 71.8224 91.4678 71.7192C91.693 71.6107 91.9385 71.5565 92.2046 71.5565ZM96.5877 71.5488C96.9049 71.5488 97.1837 71.6133 97.4242 71.7424C97.6647 71.8663 97.854 72.029 97.9921 72.2304V71.6185H99.0742V75.9407C99.0742 76.3383 98.9949 76.692 98.8363 77.0019C98.6777 77.3169 98.4398 77.5647 98.1226 77.7455C97.8054 77.9314 97.4217 78.0243 96.9714 78.0243C96.3677 78.0243 95.8714 77.8823 95.4826 77.5983C95.0989 77.3143 94.8814 76.927 94.8303 76.4364H95.897C95.9533 76.6327 96.0735 76.7876 96.2577 76.9012C96.447 77.0199 96.6747 77.0793 96.9407 77.0793C97.2528 77.0793 97.5061 76.9838 97.7005 76.7927C97.8949 76.6068 97.9921 76.3228 97.9921 75.9407V75.2745C97.854 75.4759 97.6621 75.6438 97.4165 75.778C97.1761 75.9123 96.8998 75.9794 96.5877 75.9794C96.2296 75.9794 95.9021 75.8865 95.6054 75.7006C95.3086 75.5147 95.0733 75.2539 94.8993 74.9182C94.7305 74.5774 94.6461 74.1875 94.6461 73.7486C94.6461 73.3148 94.7305 72.9301 94.8993 72.5945C95.0733 72.2588 95.3061 72.0006 95.5977 71.8199C95.8944 71.6391 96.2244 71.5488 96.5877 71.5488ZM97.9921 73.7641C97.9921 73.5007 97.941 73.2761 97.8386 73.0902C97.7363 72.8991 97.5982 72.7545 97.4242 72.6564C97.2503 72.5531 97.0635 72.5015 96.864 72.5015C96.6644 72.5015 96.4803 72.5506 96.3114 72.6487C96.1426 72.7468 96.0044 72.8914 95.897 73.0824C95.7947 73.2683 95.7435 73.4904 95.7435 73.7486C95.7435 74.0068 95.7947 74.234 95.897 74.4302C96.0044 74.6213 96.1426 74.7685 96.3114 74.8718C96.4854 74.975 96.6696 75.0267 96.864 75.0267C97.0635 75.0267 97.2503 74.9776 97.4242 74.8795C97.5982 74.7762 97.7363 74.6316 97.8386 74.4457C97.941 74.2547 97.9921 74.0274 97.9921 73.7641ZM106.211 70.5031L104.4 74.0274V75.9097H103.326V74.0274L101.507 70.5031H102.72L103.871 72.974L105.014 70.5031H106.211ZM108.719 75.9794C108.31 75.9794 107.941 75.889 107.614 75.7083C107.286 75.5224 107.028 75.2616 106.839 74.926C106.654 74.5903 106.562 74.203 106.562 73.7641C106.562 73.3252 106.657 72.9379 106.846 72.6022C107.041 72.2665 107.304 72.0083 107.637 71.8276C107.969 71.6417 108.34 71.5488 108.75 71.5488C109.159 71.5488 109.53 71.6417 109.862 71.8276C110.195 72.0083 110.456 72.2665 110.645 72.6022C110.84 72.9379 110.937 73.3252 110.937 73.7641C110.937 74.203 110.837 74.5903 110.638 74.926C110.443 75.2616 110.177 75.5224 109.839 75.7083C109.507 75.889 109.133 75.9794 108.719 75.9794ZM108.719 75.0344C108.913 75.0344 109.095 74.9879 109.264 74.895C109.438 74.7969 109.576 74.6523 109.678 74.4612C109.781 74.2702 109.832 74.0378 109.832 73.7641C109.832 73.3561 109.724 73.0437 109.509 72.8268C109.3 72.6048 109.041 72.4938 108.734 72.4938C108.427 72.4938 108.169 72.6048 107.959 72.8268C107.754 73.0437 107.652 73.3561 107.652 73.7641C107.652 74.172 107.752 74.487 107.951 74.7091C108.156 74.926 108.412 75.0344 108.719 75.0344ZM115.739 71.6185V75.9097H114.657V75.3675C114.519 75.5534 114.337 75.7006 114.112 75.809C113.892 75.9123 113.652 75.9639 113.391 75.9639C113.058 75.9639 112.764 75.8942 112.508 75.7548C112.252 75.6102 112.05 75.4011 111.902 75.1274C111.758 74.8485 111.687 74.518 111.687 74.1359V71.6185H112.761V73.981C112.761 74.3218 112.846 74.5851 113.015 74.771C113.183 74.9518 113.414 75.0422 113.705 75.0422C114.002 75.0422 114.235 74.9518 114.404 74.771C114.572 74.5851 114.657 74.3218 114.657 73.981V71.6185H115.739ZM117.873 72.2846C118.012 72.0574 118.191 71.8793 118.411 71.7502C118.636 71.6211 118.892 71.5565 119.178 71.5565V72.6951H118.894C118.556 72.6951 118.301 72.7752 118.127 72.9353C117.958 73.0954 117.873 73.3742 117.873 73.7718V75.9097H116.799V71.6185H117.873V72.2846ZM125.637 72.1762C125.637 72.4654 125.568 72.7365 125.43 72.9895C125.297 73.2425 125.084 73.4465 124.793 73.6014C124.506 73.7563 124.143 73.8338 123.703 73.8338H122.805V75.9097H121.731V70.5031H123.703C124.117 70.5031 124.47 70.5754 124.762 70.7199C125.054 70.8645 125.271 71.0633 125.414 71.3164C125.563 71.5694 125.637 71.856 125.637 72.1762ZM123.657 72.9585C123.954 72.9585 124.174 72.8914 124.317 72.7571C124.46 72.6177 124.532 72.424 124.532 72.1762C124.532 71.6495 124.24 71.3861 123.657 71.3861H122.805V72.9585H123.657ZM130.352 73.6711C130.352 73.826 130.342 73.9655 130.321 74.0894H127.213C127.239 74.3993 127.346 74.6419 127.536 74.8175C127.725 74.9931 127.958 75.0809 128.234 75.0809C128.633 75.0809 128.917 74.9079 129.086 74.5619H130.245C130.122 74.975 129.886 75.3158 129.539 75.5844C129.191 75.8477 128.763 75.9794 128.257 75.9794C127.848 75.9794 127.479 75.889 127.152 75.7083C126.83 75.5224 126.576 75.2616 126.392 74.926C126.213 74.5903 126.123 74.203 126.123 73.7641C126.123 73.32 126.213 72.9301 126.392 72.5945C126.571 72.2588 126.822 72.0006 127.144 71.8199C127.466 71.6391 127.837 71.5488 128.257 71.5488C128.661 71.5488 129.022 71.6365 129.339 71.8121C129.661 71.9877 129.91 72.2381 130.083 72.5635C130.263 72.8836 130.352 73.2529 130.352 73.6711ZM129.239 73.3613C129.234 73.0824 129.134 72.8604 128.94 72.6951C128.746 72.5247 128.508 72.4395 128.226 72.4395C127.96 72.4395 127.735 72.5222 127.551 72.6874C127.372 72.8475 127.262 73.0721 127.221 73.3613H129.239ZM130.86 73.7486C130.86 73.3148 130.944 72.9301 131.113 72.5945C131.287 72.2588 131.52 72.0006 131.811 71.8199C132.108 71.6391 132.438 71.5488 132.801 71.5488C133.118 71.5488 133.395 71.6133 133.63 71.7424C133.871 71.8715 134.062 72.0342 134.206 72.2304V71.6185H135.288V75.9097H134.206V75.2823C134.068 75.4837 133.876 75.6515 133.63 75.7858C133.39 75.9149 133.111 75.9794 132.794 75.9794C132.435 75.9794 132.108 75.8865 131.811 75.7006C131.52 75.5147 131.287 75.2539 131.113 74.9182C130.944 74.5774 130.86 74.1875 130.86 73.7486ZM134.206 73.7641C134.206 73.5007 134.154 73.2761 134.052 73.0902C133.95 72.8991 133.812 72.7545 133.638 72.6564C133.464 72.5531 133.277 72.5015 133.078 72.5015C132.878 72.5015 132.694 72.5506 132.525 72.6487C132.356 72.7468 132.218 72.8914 132.111 73.0824C132.008 73.2683 131.957 73.4904 131.957 73.7486C131.957 74.0068 132.008 74.234 132.111 74.4302C132.218 74.6213 132.356 74.7685 132.525 74.8718C132.699 74.975 132.883 75.0267 133.078 75.0267C133.277 75.0267 133.464 74.9776 133.638 74.8795C133.812 74.7762 133.95 74.6316 134.052 74.4457C134.154 74.2547 134.206 74.0274 134.206 73.7641ZM136.061 73.7641C136.061 73.32 136.15 72.9327 136.329 72.6022C136.508 72.2665 136.757 72.0083 137.074 71.8276C137.391 71.6417 137.754 71.5488 138.164 71.5488C138.691 71.5488 139.125 71.683 139.468 71.9515C139.816 72.2149 140.049 72.5867 140.167 73.067H139.008C138.946 72.881 138.842 72.7365 138.693 72.6332C138.55 72.5247 138.371 72.4705 138.156 72.4705C137.849 72.4705 137.606 72.5841 137.427 72.8113C137.248 73.0334 137.158 73.351 137.158 73.7641C137.158 74.172 137.248 74.4896 137.427 74.7168C137.606 74.9389 137.849 75.0499 138.156 75.0499C138.591 75.0499 138.875 74.8537 139.008 74.4612H140.167C140.049 74.926 139.816 75.2952 139.468 75.5689C139.12 75.8426 138.685 75.9794 138.164 75.9794C137.754 75.9794 137.391 75.889 137.074 75.7083C136.757 75.5224 136.508 75.2642 136.329 74.9337C136.15 74.5981 136.061 74.2082 136.061 73.7641ZM144.906 73.6711C144.906 73.826 144.896 73.9655 144.876 74.0894H141.768C141.793 74.3993 141.901 74.6419 142.09 74.8175C142.279 74.9931 142.512 75.0809 142.788 75.0809C143.187 75.0809 143.471 74.9079 143.64 74.5619H144.799C144.676 74.975 144.441 75.3158 144.093 75.5844C143.745 75.8477 143.318 75.9794 142.811 75.9794C142.402 75.9794 142.034 75.889 141.706 75.7083C141.384 75.5224 141.131 75.2616 140.946 74.926C140.767 74.5903 140.678 74.203 140.678 73.7641C140.678 73.32 140.767 72.9301 140.946 72.5945C141.125 72.2588 141.376 72.0006 141.698 71.8199C142.021 71.6391 142.392 71.5488 142.811 71.5488C143.215 71.5488 143.576 71.6365 143.893 71.8121C144.216 71.9877 144.464 72.2381 144.638 72.5635C144.817 72.8836 144.906 73.2529 144.906 73.6711ZM143.794 73.3613C143.788 73.0824 143.689 72.8604 143.494 72.6951C143.3 72.5247 143.062 72.4395 142.781 72.4395C142.514 72.4395 142.289 72.5222 142.105 72.6874C141.926 72.8475 141.816 73.0721 141.775 73.3613H143.794ZM149.407 75.9794C148.998 75.9794 148.629 75.889 148.302 75.7083C147.975 75.5224 147.716 75.2616 147.527 74.926C147.343 74.5903 147.251 74.203 147.251 73.7641C147.251 73.3252 147.345 72.9379 147.535 72.6022C147.729 72.2665 147.992 72.0083 148.325 71.8276C148.658 71.6417 149.029 71.5488 149.438 71.5488C149.847 71.5488 150.218 71.6417 150.551 71.8276C150.883 72.0083 151.144 72.2665 151.333 72.6022C151.528 72.9379 151.625 73.3252 151.625 73.7641C151.625 74.203 151.525 74.5903 151.326 74.926C151.131 75.2616 150.865 75.5224 150.528 75.7083C150.195 75.889 149.822 75.9794 149.407 75.9794ZM149.407 75.0344C149.602 75.0344 149.783 74.9879 149.952 74.895C150.126 74.7969 150.264 74.6523 150.366 74.4612C150.469 74.2702 150.52 74.0378 150.52 73.7641C150.52 73.3561 150.412 73.0437 150.198 72.8268C149.988 72.6048 149.729 72.4938 149.423 72.4938C149.116 72.4938 148.857 72.6048 148.647 72.8268C148.443 73.0437 148.34 73.3561 148.34 73.7641C148.34 74.172 148.44 74.487 148.64 74.7091C148.844 74.926 149.1 75.0344 149.407 75.0344ZM154.362 72.5092H153.618V75.9097H152.528V72.5092H152.045V71.6185H152.528V71.4016C152.528 70.8749 152.676 70.4876 152.973 70.2397C153.27 69.9918 153.718 69.8756 154.316 69.8911V70.8052C154.055 70.8 153.874 70.8439 153.771 70.9368C153.669 71.0298 153.618 71.1976 153.618 71.4403V71.6185H154.362V72.5092ZM162.727 70.5031V75.9097H161.653V72.3931L160.218 75.9097H159.404L157.962 72.3931V75.9097H156.887V70.5031H158.107L159.811 74.5232L161.515 70.5031H162.727ZM164.335 71.1072C164.146 71.1072 163.987 71.0479 163.859 70.9291C163.736 70.8051 163.675 70.6528 163.675 70.4721C163.675 70.2913 163.736 70.1416 163.859 70.0228C163.987 69.8989 164.146 69.8369 164.335 69.8369C164.524 69.8369 164.68 69.8989 164.803 70.0228C164.931 70.1416 164.995 70.2913 164.995 70.4721C164.995 70.6528 164.931 70.8051 164.803 70.9291C164.68 71.0479 164.524 71.1072 164.335 71.1072ZM164.864 71.6185V75.9097H163.79V71.6185H164.864ZM168.282 71.5565C168.788 71.5565 169.197 71.7192 169.51 72.0445C169.822 72.3647 169.978 72.8139 169.978 73.3923V75.9097H168.903V73.5395C168.903 73.1986 168.819 72.9379 168.65 72.7571C168.481 72.5712 168.251 72.4783 167.959 72.4783C167.663 72.4783 167.427 72.5712 167.253 72.7571C167.084 72.9379 167 73.1986 167 73.5395V75.9097H165.926V71.6185H167V72.1529C167.143 71.967 167.325 71.8224 167.545 71.7192C167.77 71.6107 168.016 71.5565 168.282 71.5565ZM170.723 73.7486C170.723 73.3148 170.808 72.9301 170.976 72.5945C171.15 72.2588 171.386 72.0006 171.682 71.8199C171.979 71.6391 172.309 71.5488 172.672 71.5488C172.949 71.5488 173.212 71.6107 173.463 71.7347C173.714 71.8534 173.913 72.0135 174.061 72.2149V70.1777H175.151V75.9097H174.061V75.2745C173.928 75.4863 173.742 75.6567 173.501 75.7858C173.261 75.9149 172.982 75.9794 172.665 75.9794C172.307 75.9794 171.979 75.8865 171.682 75.7006C171.386 75.5147 171.15 75.2539 170.976 74.9182C170.808 74.5774 170.723 74.1875 170.723 73.7486ZM174.069 73.7641C174.069 73.5007 174.018 73.2761 173.916 73.0902C173.813 72.8991 173.675 72.7545 173.501 72.6564C173.327 72.5531 173.141 72.5015 172.941 72.5015C172.741 72.5015 172.557 72.5506 172.388 72.6487C172.22 72.7468 172.081 72.8914 171.974 73.0824C171.872 73.2683 171.821 73.4904 171.821 73.7486C171.821 74.0068 171.872 74.234 171.974 74.4302C172.081 74.6213 172.22 74.7685 172.388 74.8718C172.562 74.975 172.747 75.0267 172.941 75.0267C173.141 75.0267 173.327 74.9776 173.501 74.8795C173.675 74.7762 173.813 74.6316 173.916 74.4457C174.018 74.2547 174.069 74.0274 174.069 73.7641Z" fill="#233C5A"/>
<path d="M63.4644 86.013C63.4644 85.6551 63.5908 85.3484 63.8436 85.0933C64.0963 84.8382 64.3997 84.7106 64.7548 84.7106C65.1093 84.7106 65.4132 84.8382 65.666 85.0933C65.9182 85.3484 66.0446 85.6551 66.0446 86.013C66.0446 86.3713 65.9182 86.6776 65.666 86.9327C65.4132 87.1878 65.1093 87.3153 64.7548 87.3153C64.3997 87.3153 64.0963 87.1878 63.8436 86.9327C63.5908 86.6776 63.4644 86.3713 63.4644 86.013ZM60.8838 86.013C60.8838 84.928 61.2603 84.0057 62.013 83.2461C62.7656 82.4865 63.6793 82.1064 64.7548 82.1064C65.8297 82.1064 66.7435 82.4865 67.4961 83.2461C68.2487 84.0057 68.6252 84.928 68.6252 86.013C68.6252 86.74 68.4477 87.3995 68.0931 87.9908C67.7381 88.582 67.2704 89.0514 66.6897 89.399V95.1283L64.7548 97.0819L61.8518 94.1518L62.8193 92.8495L61.8518 91.5477L62.8193 90.1637V89.399C62.2386 89.0514 61.771 88.582 61.4164 87.9908C61.0613 87.3995 60.8838 86.74 60.8838 86.013ZM62.1741 86.013C62.1741 86.6208 62.3568 87.1552 62.7226 87.6164C63.0879 88.0775 63.5504 88.3842 64.1096 88.5361V90.5707L63.4481 91.5151L64.4319 92.8495L63.5453 94.0052L64.7548 95.2265L65.3999 94.5753V88.5361C65.9586 88.3842 66.4211 88.0775 66.7864 87.6164C67.1523 87.1552 67.3349 86.6208 67.3349 86.013C67.3349 85.2967 67.0822 84.6838 66.5772 84.1736C66.0717 83.6639 65.4644 83.4088 64.7548 83.4088C64.0451 83.4088 63.4373 83.6639 62.9323 84.1736C62.4269 84.6838 62.1741 85.2967 62.1741 86.013Z" fill="#6F7E90"/>
<defs>
<filter id="filter0_d_660_3023" x="8.2334" y="4.59131" width="110.837" height="120.668" filterUnits="userSpaceOnUse" color-interpolation-filters="sRGB">
<feFlood flood-opacity="0" result="BackgroundImageFix"/>
<feColorMatrix in="SourceAlpha" type="matrix" values="0 0 0 0 0 0 0 0 0 0 0 0 0 0 0 0 0 0 127 0" result="hardAlpha"/>
<feOffset/>
<feGaussianBlur stdDeviation="2"/>
<feComposite in2="hardAlpha" operator="out"/>
<feColorMatrix type="matrix" values="0 0 0 0 0 0 0 0 0 0 0 0 0 0 0 0 0 0 0.25 0"/>
<feBlend mode="normal" in2="BackgroundImageFix" result="effect1_dropShadow_660_3023"/>
<feBlend mode="normal" in="SourceGraphic" in2="effect1_dropShadow_660_3023" result="shape"/>
</filter>
<filter id="filter1_d_660_3023" x="12.2334" y="8.63672" width="51.625" height="33.2417" filterUnits="userSpaceOnUse" color-interpolation-filters="sRGB">
<feFlood flood-opacity="0" result="BackgroundImageFix"/>
<feColorMatrix in="SourceAlpha" type="matrix" values="0 0 0 0 0 0 0 0 0 0 0 0 0 0 0 0 0 0 127 0" result="hardAlpha"/>
<feOffset dy="2"/>
<feComposite in2="hardAlpha" operator="out"/>
<feColorMatrix type="matrix" values="0 0 0 0 0 0 0 0 0 0 0 0 0 0 0 0 0 0 0.25 0"/>
<feBlend mode="normal" in2="BackgroundImageFix" result="effect1_dropShadow_660_3023"/>
<feBlend mode="normal" in="SourceGraphic" in2="effect1_dropShadow_660_3023" result="shape"/>
</filter>
<filter id="filter2_d_660_3023" x="63.6973" y="8.59131" width="51.373" height="28.8989" filterUnits="userSpaceOnUse" color-interpolation-filters="sRGB">
<feFlood flood-opacity="0" result="BackgroundImageFix"/>
<feColorMatrix in="SourceAlpha" type="matrix" values="0 0 0 0 0 0 0 0 0 0 0 0 0 0 0 0 0 0 127 0" result="hardAlpha"/>
<feOffset dy="2"/>
<feComposite in2="hardAlpha" operator="out"/>
<feColorMatrix type="matrix" values="0 0 0 0 0 0 0 0 0 0 0 0 0 0 0 0 0 0 0.25 0"/>
<feBlend mode="normal" in2="BackgroundImageFix" result="effect1_dropShadow_660_3023"/>
<feBlend mode="normal" in="SourceGraphic" in2="effect1_dropShadow_660_3023" result="shape"/>
</filter>
<linearGradient id="paint0_linear_660_3023" x1="38.0458" y1="22.1517" x2="41.9733" y2="29.6528" gradientUnits="userSpaceOnUse">
<stop stop-color="#48C5D5"/>
<stop offset="1" stop-color="#26676F"/>
</linearGradient>
<linearGradient id="paint1_linear_660_3023" x1="92.7337" y1="17.7454" x2="81.5557" y2="31.8156" gradientUnits="userSpaceOnUse">
<stop stop-color="#48C5D5"/>
<stop offset="1" stop-color="#26676F"/>
</linearGradient>
<linearGradient id="paint2_linear_660_3023" x1="79.7587" y1="111.987" x2="73.2865" y2="101.031" gradientUnits="userSpaceOnUse">
<stop stop-color="#48C5D5"/>
<stop offset="1" stop-color="#26676F"/>
</linearGradient>
<linearGradient id="paint3_linear_660_3023" x1="28.8924" y1="85.2239" x2="45.8753" y2="73.1413" gradientUnits="userSpaceOnUse">
<stop stop-color="#48C5D5"/>
<stop offset="1" stop-color="#26676F"/>
</linearGradient>
</defs>
</svg>
