<svg width="100" height="126" viewBox="0 0 100 126" fill="none" xmlns="http://www.w3.org/2000/svg">
<path d="M40.7044 82.1753H59.2689L55.7107 62.0194C57.7734 60.9777 59.3978 59.4674 60.5839 57.4882C61.7699 55.5091 62.363 53.3216 62.363 50.9258C62.363 47.4884 61.1511 44.5458 58.7274 42.0979C56.3037 39.65 53.3901 38.4261 49.9867 38.4261C46.5832 38.4261 43.6696 39.65 41.2459 42.0979C38.8222 44.5458 37.6103 47.4884 37.6103 50.9258C37.6103 53.3216 38.2034 55.5091 39.3894 57.4882C40.5755 59.4674 42.1999 60.9777 44.2626 62.0194L40.7044 82.1753ZM49.9867 125.924C35.6508 122.279 23.8159 113.972 14.4821 101.003C5.14834 88.0345 0.481445 73.6338 0.481445 57.8007V19.6764L49.9867 0.926758L99.4919 19.6764V57.8007C99.4919 73.6338 94.825 88.0345 85.4912 101.003C76.1574 113.972 64.3225 122.279 49.9867 125.924ZM49.9867 112.8C60.7128 109.362 69.5825 102.487 76.5957 92.1751C83.6089 81.8628 87.1156 70.4047 87.1156 57.8007V28.27L49.9867 14.2078L12.8577 28.27V57.8007C12.8577 70.4047 16.3644 81.8628 23.3776 92.1751C30.3908 102.487 39.2605 109.362 49.9867 112.8Z" fill="url(#paint0_linear_660_3221)"/>
<defs>
<linearGradient id="paint0_linear_660_3221" x1="49.9867" y1="0.926758" x2="49.9867" y2="125.924" gradientUnits="userSpaceOnUse">
<stop stop-color="#3AA1B6"/>
<stop offset="1" stop-color="#194750"/>
</linearGradient>
</defs>
</svg>
