<svg width="172" height="122" viewBox="0 0 172 122" fill="none" xmlns="http://www.w3.org/2000/svg">
<g filter="url(#filter0_d_711_794)">
<g filter="url(#filter1_d_711_794)">
<path d="M11.9555 34.5342L62.407 8.3623V17.1123L21.9331 38.6123L11.9555 34.5342Z" fill="url(#paint0_linear_711_794)"/>
</g>
<g filter="url(#filter2_d_711_794)">
<path d="M62.25 8.31836L112.455 34.3636H95.7055L62.25 17.0683V8.31836Z" fill="url(#paint1_linear_711_794)"/>
</g>
<path d="M89.867 93.6145L84.136 99.8855L77.4045 106.156L70.006 112.283L62.6075 117.41L62.7645 108.062L79.1205 93.434L89.867 93.6145Z" fill="url(#paint2_linear_711_794)"/>
<path d="M61.9555 116.112L55.9125 111.768L49.042 106.65L43.2707 101.328L37.4994 94.0065L31.728 86.185L25.9567 75.8635L21.832 67.8635L18.7073 59.364L15.7066 47.6142L12.7055 34.6123L22.2055 38.3623L27.3631 58.583L32.7696 71.0515L39.6761 82.5205L43.1293 87.2545L46.5826 91.489L55.145 100.301L62.9555 106.65L61.9555 116.112Z" fill="black" fill-opacity="0.3"/>
<path d="M62.7055 117.363L55.4125 112.268L48.5419 107.15L42.7706 101.828L36.9993 94.5065L31.228 86.685L25.4566 76.3635L21.3319 68.3635L18.2072 59.864L15.2065 48.1142L11.9555 34.6123L21.7055 38.6123L26.863 59.083L32.2695 71.5515L39.176 83.0205L42.6292 87.7545L46.0825 91.989L54.645 100.801L63.2075 107.614L62.7055 117.363Z" fill="url(#paint3_linear_711_794)"/>
</g>
<path d="M48.48 64.7785C46.94 64.7785 45.56 64.5285 44.34 64.0285C43.12 63.5285 42.14 62.7885 41.4 61.8085C40.68 60.8285 40.3 59.6485 40.26 58.2685H45.72C45.8 59.0485 46.07 59.6485 46.53 60.0685C46.99 60.4685 47.59 60.6685 48.33 60.6685C49.09 60.6685 49.69 60.4985 50.13 60.1585C50.57 59.7985 50.79 59.3085 50.79 58.6885C50.79 58.1685 50.61 57.7385 50.25 57.3985C49.91 57.0585 49.48 56.7785 48.96 56.5585C48.46 56.3385 47.74 56.0885 46.8 55.8085C45.44 55.3885 44.33 54.9685 43.47 54.5485C42.61 54.1285 41.87 53.5085 41.25 52.6885C40.63 51.8685 40.32 50.7985 40.32 49.4784C40.32 47.5184 41.03 45.9884 42.45 44.8884C43.87 43.7684 45.72 43.2084 48 43.2084C50.32 43.2084 52.19 43.7684 53.61 44.8884C55.03 45.9884 55.79 47.5284 55.89 49.5084H50.34C50.3 48.8284 50.05 48.2984 49.59 47.9184C49.13 47.5184 48.54 47.3184 47.82 47.3184C47.2 47.3184 46.7 47.4884 46.32 47.8284C45.94 48.1484 45.75 48.6184 45.75 49.2384C45.75 49.9184 46.07 50.4485 46.71 50.8285C47.35 51.2085 48.35 51.6185 49.71 52.0585C51.07 52.5185 52.17 52.9585 53.01 53.3785C53.87 53.7985 54.61 54.4085 55.23 55.2085C55.85 56.0085 56.16 57.0385 56.16 58.2985C56.16 59.4985 55.85 60.5885 55.23 61.5685C54.63 62.5485 53.75 63.3285 52.59 63.9085C51.43 64.4885 50.06 64.7785 48.48 64.7785ZM72.427 60.8485H64.567L63.307 64.5685H57.937L65.557 43.5084H71.497L79.117 64.5685H73.687L72.427 60.8485ZM71.107 56.8885L68.497 49.1784L65.917 56.8885H71.107ZM95.146 43.5084V47.6184H86.566V52.0585H92.986V56.0485H86.566V64.5685H81.436V43.5084H95.146ZM102.973 47.6184V51.8785H109.843V55.8385H102.973V60.4585H110.743V64.5685H97.8425V43.5084H110.743V47.6184H102.973ZM129.223 43.5084V47.6184H123.643V64.5685H118.513V47.6184H112.933V43.5084H129.223ZM142.538 64.5685L138.158 56.6185H136.928V64.5685H131.798V43.5084H140.408C142.068 43.5084 143.478 43.7984 144.638 44.3784C145.818 44.9584 146.698 45.7584 147.278 46.7784C147.858 47.7784 148.148 48.8984 148.148 50.1385C148.148 51.5385 147.748 52.7885 146.948 53.8885C146.168 54.9885 145.008 55.7685 143.468 56.2285L148.328 64.5685H142.538ZM136.928 52.9885H140.108C141.048 52.9885 141.748 52.7585 142.208 52.2985C142.688 51.8385 142.928 51.1885 142.928 50.3485C142.928 49.5484 142.688 48.9184 142.208 48.4584C141.748 47.9984 141.048 47.7684 140.108 47.7684H136.928V52.9885ZM164.478 60.8485H156.618L155.358 64.5685H149.988L157.608 43.5084H163.548L171.168 64.5685H165.738L164.478 60.8485ZM163.158 56.8885L160.548 49.1784L157.968 56.8885H163.158Z" fill="#D55848"/>
<path d="M65.825 73.5525C65.46 73.5525 65.13 73.49 64.835 73.365C64.545 73.24 64.315 73.06 64.145 72.825C63.975 72.59 63.8875 72.3125 63.8825 71.9925H65.0075C65.0225 72.2075 65.0975 72.3775 65.2325 72.5025C65.3725 72.6275 65.5625 72.69 65.8025 72.69C66.0475 72.69 66.24 72.6325 66.38 72.5175C66.52 72.3975 66.59 72.2425 66.59 72.0525C66.59 71.8975 66.5425 71.77 66.4475 71.67C66.3525 71.57 66.2325 71.4925 66.0875 71.4375C65.9475 71.3775 65.7525 71.3125 65.5025 71.2425C65.1625 71.1425 64.885 71.045 64.67 70.95C64.46 70.85 64.2775 70.7025 64.1225 70.5075C63.9725 70.3075 63.8975 70.0425 63.8975 69.7125C63.8975 69.4025 63.975 69.1325 64.13 68.9025C64.285 68.6725 64.5025 68.4975 64.7825 68.3775C65.0625 68.2525 65.3825 68.19 65.7425 68.19C66.2825 68.19 66.72 68.3225 67.055 68.5875C67.395 68.8475 67.5825 69.2125 67.6175 69.6825H66.4625C66.4525 69.5025 66.375 69.355 66.23 69.24C66.09 69.12 65.9025 69.06 65.6675 69.06C65.4625 69.06 65.2975 69.1125 65.1725 69.2175C65.0525 69.3225 64.9925 69.475 64.9925 69.675C64.9925 69.815 65.0375 69.9325 65.1275 70.0275C65.2225 70.1175 65.3375 70.1925 65.4725 70.2525C65.6125 70.3075 65.8075 70.3725 66.0575 70.4475C66.3975 70.5475 66.675 70.6475 66.89 70.7475C67.105 70.8475 67.29 70.9975 67.445 71.1975C67.6 71.3975 67.6775 71.66 67.6775 71.985C67.6775 72.265 67.605 72.525 67.46 72.765C67.315 73.005 67.1025 73.1975 66.8225 73.3425C66.5425 73.4825 66.21 73.5525 65.825 73.5525ZM72.4505 71.3325C72.4505 71.4825 72.4405 71.6175 72.4205 71.7375H69.383C69.408 72.0375 69.513 72.2725 69.698 72.4425C69.883 72.6125 70.1105 72.6975 70.3805 72.6975C70.7705 72.6975 71.048 72.53 71.213 72.195H72.3455C72.2255 72.595 71.9955 72.925 71.6555 73.185C71.3155 73.44 70.898 73.5675 70.403 73.5675C70.003 73.5675 69.643 73.48 69.323 73.305C69.008 73.125 68.7605 72.8725 68.5805 72.5475C68.4055 72.2225 68.318 71.8475 68.318 71.4225C68.318 70.9925 68.4055 70.615 68.5805 70.29C68.7555 69.965 69.0005 69.715 69.3155 69.54C69.6305 69.365 69.993 69.2775 70.403 69.2775C70.798 69.2775 71.1505 69.3625 71.4605 69.5325C71.7755 69.7025 72.018 69.945 72.188 70.26C72.363 70.57 72.4505 70.9275 72.4505 71.3325ZM71.363 71.0325C71.358 70.7625 71.2605 70.5475 71.0705 70.3875C70.8805 70.2225 70.648 70.14 70.373 70.14C70.113 70.14 69.893 70.22 69.713 70.38C69.538 70.535 69.4305 70.7525 69.3905 71.0325H71.363ZM72.9465 71.4225C72.9465 70.9925 73.034 70.6175 73.209 70.2975C73.384 69.9725 73.6265 69.7225 73.9365 69.5475C74.2465 69.3675 74.6015 69.2775 75.0015 69.2775C75.5165 69.2775 75.9415 69.4075 76.2765 69.6675C76.6165 69.9225 76.844 70.2825 76.959 70.7475H75.8265C75.7665 70.5675 75.664 70.4275 75.519 70.3275C75.379 70.2225 75.204 70.17 74.994 70.17C74.694 70.17 74.4565 70.28 74.2815 70.5C74.1065 70.715 74.019 71.0225 74.019 71.4225C74.019 71.8175 74.1065 72.125 74.2815 72.345C74.4565 72.56 74.694 72.6675 74.994 72.6675C75.419 72.6675 75.6965 72.4775 75.8265 72.0975H76.959C76.844 72.5475 76.6165 72.905 76.2765 73.17C75.9365 73.435 75.5115 73.5675 75.0015 73.5675C74.6015 73.5675 74.2465 73.48 73.9365 73.305C73.6265 73.125 73.384 72.875 73.209 72.555C73.034 72.23 72.9465 71.8525 72.9465 71.4225ZM81.651 69.345V73.5H80.5935V72.975C80.4585 73.155 80.281 73.2975 80.061 73.4025C79.846 73.5025 79.611 73.5525 79.356 73.5525C79.031 73.5525 78.7435 73.485 78.4935 73.35C78.2435 73.21 78.046 73.0075 77.901 72.7425C77.761 72.4725 77.691 72.1525 77.691 71.7825V69.345H78.741V71.6325C78.741 71.9625 78.8235 72.2175 78.9885 72.3975C79.1535 72.5725 79.3785 72.66 79.6635 72.66C79.9535 72.66 80.181 72.5725 80.346 72.3975C80.511 72.2175 80.5935 71.9625 80.5935 71.6325V69.345H81.651ZM83.737 69.99C83.872 69.77 84.047 69.5975 84.262 69.4725C84.482 69.3475 84.732 69.285 85.012 69.285V70.3875H84.7345C84.4045 70.3875 84.1545 70.465 83.9845 70.62C83.8195 70.775 83.737 71.045 83.737 71.43V73.5H82.687V69.345H83.737V69.99ZM86.2515 68.85C86.0665 68.85 85.9115 68.7925 85.7865 68.6775C85.6665 68.5575 85.6065 68.41 85.6065 68.235C85.6065 68.06 85.6665 67.915 85.7865 67.8C85.9115 67.68 86.0665 67.62 86.2515 67.62C86.4365 67.62 86.589 67.68 86.709 67.8C86.834 67.915 86.8965 68.06 86.8965 68.235C86.8965 68.41 86.834 68.5575 86.709 68.6775C86.589 68.7925 86.4365 68.85 86.2515 68.85ZM86.769 69.345V73.5H85.719V69.345H86.769ZM90.109 69.285C90.604 69.285 91.004 69.4425 91.309 69.7575C91.614 70.0675 91.7665 70.5025 91.7665 71.0625V73.5H90.7165V71.205C90.7165 70.875 90.634 70.6225 90.469 70.4475C90.304 70.2675 90.079 70.1775 89.794 70.1775C89.504 70.1775 89.274 70.2675 89.104 70.4475C88.939 70.6225 88.8565 70.875 88.8565 71.205V73.5H87.8065V69.345H88.8565V69.8625C88.9965 69.6825 89.174 69.5425 89.389 69.4425C89.609 69.3375 89.849 69.285 90.109 69.285ZM94.3925 69.2775C94.7025 69.2775 94.975 69.34 95.21 69.465C95.445 69.585 95.63 69.7425 95.765 69.9375V69.345H96.8225V73.53C96.8225 73.915 96.745 74.2575 96.59 74.5575C96.435 74.8625 96.2025 75.1025 95.8925 75.2775C95.5825 75.4575 95.2075 75.5475 94.7675 75.5475C94.1775 75.5475 93.6925 75.41 93.3125 75.135C92.9375 74.86 92.725 74.485 92.675 74.01H93.7175C93.7725 74.2 93.89 74.35 94.07 74.46C94.255 74.575 94.4775 74.6325 94.7375 74.6325C95.0425 74.6325 95.29 74.54 95.48 74.355C95.67 74.175 95.765 73.9 95.765 73.53V72.885C95.63 73.08 95.4425 73.2425 95.2025 73.3725C94.9675 73.5025 94.6975 73.5675 94.3925 73.5675C94.0425 73.5675 93.7225 73.4775 93.4325 73.2975C93.1425 73.1175 92.9125 72.865 92.7425 72.54C92.5775 72.21 92.495 71.8325 92.495 71.4075C92.495 70.9875 92.5775 70.615 92.7425 70.29C92.9125 69.965 93.14 69.715 93.425 69.54C93.715 69.365 94.0375 69.2775 94.3925 69.2775ZM95.765 71.4225C95.765 71.1675 95.715 70.95 95.615 70.77C95.515 70.585 95.38 70.445 95.21 70.35C95.04 70.25 94.8575 70.2 94.6625 70.2C94.4675 70.2 94.2875 70.2475 94.1225 70.3425C93.9575 70.4375 93.8225 70.5775 93.7175 70.7625C93.6175 70.9425 93.5675 71.1575 93.5675 71.4075C93.5675 71.6575 93.6175 71.8775 93.7175 72.0675C93.8225 72.2525 93.9575 72.395 94.1225 72.495C94.2925 72.595 94.4725 72.645 94.6625 72.645C94.8575 72.645 95.04 72.5975 95.21 72.5025C95.38 72.4025 95.515 72.2625 95.615 72.0825C95.715 71.8975 95.765 71.6775 95.765 71.4225ZM103.798 68.265L102.028 71.6775V73.5H100.978V71.6775L99.2 68.265H100.385L101.51 70.6575L102.628 68.265H103.798ZM106.248 73.5675C105.848 73.5675 105.488 73.48 105.168 73.305C104.848 73.125 104.596 72.8725 104.411 72.5475C104.231 72.2225 104.141 71.8475 104.141 71.4225C104.141 70.9975 104.233 70.6225 104.418 70.2975C104.608 69.9725 104.866 69.7225 105.191 69.5475C105.516 69.3675 105.878 69.2775 106.278 69.2775C106.678 69.2775 107.041 69.3675 107.366 69.5475C107.691 69.7225 107.946 69.9725 108.131 70.2975C108.321 70.6225 108.416 70.9975 108.416 71.4225C108.416 71.8475 108.318 72.2225 108.123 72.5475C107.933 72.8725 107.673 73.125 107.343 73.305C107.018 73.48 106.653 73.5675 106.248 73.5675ZM106.248 72.6525C106.438 72.6525 106.616 72.6075 106.781 72.5175C106.951 72.4225 107.086 72.2825 107.186 72.0975C107.286 71.9125 107.336 71.6875 107.336 71.4225C107.336 71.0275 107.231 70.725 107.021 70.515C106.816 70.3 106.563 70.1925 106.263 70.1925C105.963 70.1925 105.711 70.3 105.506 70.515C105.306 70.725 105.206 71.0275 105.206 71.4225C105.206 71.8175 105.303 72.1225 105.498 72.3375C105.698 72.5475 105.948 72.6525 106.248 72.6525ZM113.109 69.345V73.5H112.051V72.975C111.916 73.155 111.739 73.2975 111.519 73.4025C111.304 73.5025 111.069 73.5525 110.814 73.5525C110.489 73.5525 110.201 73.485 109.951 73.35C109.701 73.21 109.504 73.0075 109.359 72.7425C109.219 72.4725 109.149 72.1525 109.149 71.7825V69.345H110.199V71.6325C110.199 71.9625 110.281 72.2175 110.446 72.3975C110.611 72.5725 110.836 72.66 111.121 72.66C111.411 72.66 111.639 72.5725 111.804 72.3975C111.969 72.2175 112.051 71.9625 112.051 71.6325V69.345H113.109ZM115.195 69.99C115.33 69.77 115.505 69.5975 115.72 69.4725C115.94 69.3475 116.19 69.285 116.47 69.285V70.3875H116.192C115.862 70.3875 115.612 70.465 115.442 70.62C115.277 70.775 115.195 71.045 115.195 71.43V73.5H114.145V69.345H115.195V69.99ZM122.782 69.885C122.782 70.165 122.714 70.4275 122.579 70.6725C122.449 70.9175 122.242 71.115 121.957 71.265C121.677 71.415 121.322 71.49 120.892 71.49H120.014V73.5H118.964V68.265H120.892C121.297 68.265 121.642 68.335 121.927 68.475C122.212 68.615 122.424 68.8075 122.564 69.0525C122.709 69.2975 122.782 69.575 122.782 69.885ZM120.847 70.6425C121.137 70.6425 121.352 70.5775 121.492 70.4475C121.632 70.3125 121.702 70.125 121.702 69.885C121.702 69.375 121.417 69.12 120.847 69.12H120.014V70.6425H120.847ZM127.39 71.3325C127.39 71.4825 127.38 71.6175 127.36 71.7375H124.322C124.347 72.0375 124.452 72.2725 124.637 72.4425C124.822 72.6125 125.05 72.6975 125.32 72.6975C125.71 72.6975 125.987 72.53 126.152 72.195H127.285C127.165 72.595 126.935 72.925 126.595 73.185C126.255 73.44 125.837 73.5675 125.342 73.5675C124.942 73.5675 124.582 73.48 124.262 73.305C123.947 73.125 123.7 72.8725 123.52 72.5475C123.345 72.2225 123.257 71.8475 123.257 71.4225C123.257 70.9925 123.345 70.615 123.52 70.29C123.695 69.965 123.94 69.715 124.255 69.54C124.57 69.365 124.932 69.2775 125.342 69.2775C125.737 69.2775 126.09 69.3625 126.4 69.5325C126.715 69.7025 126.957 69.945 127.127 70.26C127.302 70.57 127.39 70.9275 127.39 71.3325ZM126.302 71.0325C126.297 70.7625 126.2 70.5475 126.01 70.3875C125.82 70.2225 125.587 70.14 125.312 70.14C125.052 70.14 124.832 70.22 124.652 70.38C124.477 70.535 124.37 70.7525 124.33 71.0325H126.302ZM127.886 71.4075C127.886 70.9875 127.968 70.615 128.133 70.29C128.303 69.965 128.531 69.715 128.816 69.54C129.106 69.365 129.428 69.2775 129.783 69.2775C130.093 69.2775 130.363 69.34 130.593 69.465C130.828 69.59 131.016 69.7475 131.156 69.9375V69.345H132.213V73.5H131.156V72.8925C131.021 73.0875 130.833 73.25 130.593 73.38C130.358 73.505 130.086 73.5675 129.776 73.5675C129.426 73.5675 129.106 73.4775 128.816 73.2975C128.531 73.1175 128.303 72.865 128.133 72.54C127.968 72.21 127.886 71.8325 127.886 71.4075ZM131.156 71.4225C131.156 71.1675 131.106 70.95 131.006 70.77C130.906 70.585 130.771 70.445 130.601 70.35C130.431 70.25 130.248 70.2 130.053 70.2C129.858 70.2 129.678 70.2475 129.513 70.3425C129.348 70.4375 129.213 70.5775 129.108 70.7625C129.008 70.9425 128.958 71.1575 128.958 71.4075C128.958 71.6575 129.008 71.8775 129.108 72.0675C129.213 72.2525 129.348 72.395 129.513 72.495C129.683 72.595 129.863 72.645 130.053 72.645C130.248 72.645 130.431 72.5975 130.601 72.5025C130.771 72.4025 130.906 72.2625 131.006 72.0825C131.106 71.8975 131.156 71.6775 131.156 71.4225ZM132.969 71.4225C132.969 70.9925 133.056 70.6175 133.231 70.2975C133.406 69.9725 133.649 69.7225 133.959 69.5475C134.269 69.3675 134.624 69.2775 135.024 69.2775C135.539 69.2775 135.964 69.4075 136.299 69.6675C136.639 69.9225 136.866 70.2825 136.981 70.7475H135.849C135.789 70.5675 135.686 70.4275 135.541 70.3275C135.401 70.2225 135.226 70.17 135.016 70.17C134.716 70.17 134.479 70.28 134.304 70.5C134.129 70.715 134.041 71.0225 134.041 71.4225C134.041 71.8175 134.129 72.125 134.304 72.345C134.479 72.56 134.716 72.6675 135.016 72.6675C135.441 72.6675 135.719 72.4775 135.849 72.0975H136.981C136.866 72.5475 136.639 72.905 136.299 73.17C135.959 73.435 135.534 73.5675 135.024 73.5675C134.624 73.5675 134.269 73.48 133.959 73.305C133.649 73.125 133.406 72.875 133.231 72.555C133.056 72.23 132.969 71.8525 132.969 71.4225ZM141.613 71.3325C141.613 71.4825 141.603 71.6175 141.583 71.7375H138.546C138.571 72.0375 138.676 72.2725 138.861 72.4425C139.046 72.6125 139.273 72.6975 139.543 72.6975C139.933 72.6975 140.211 72.53 140.376 72.195H141.508C141.388 72.595 141.158 72.925 140.818 73.185C140.478 73.44 140.061 73.5675 139.566 73.5675C139.166 73.5675 138.806 73.48 138.486 73.305C138.171 73.125 137.923 72.8725 137.743 72.5475C137.568 72.2225 137.481 71.8475 137.481 71.4225C137.481 70.9925 137.568 70.615 137.743 70.29C137.918 69.965 138.163 69.715 138.478 69.54C138.793 69.365 139.156 69.2775 139.566 69.2775C139.961 69.2775 140.313 69.3625 140.623 69.5325C140.938 69.7025 141.181 69.945 141.351 70.26C141.526 70.57 141.613 70.9275 141.613 71.3325ZM140.526 71.0325C140.521 70.7625 140.423 70.5475 140.233 70.3875C140.043 70.2225 139.811 70.14 139.536 70.14C139.276 70.14 139.056 70.22 138.876 70.38C138.701 70.535 138.593 70.7525 138.553 71.0325H140.526ZM146.012 73.5675C145.612 73.5675 145.252 73.48 144.932 73.305C144.612 73.125 144.359 72.8725 144.174 72.5475C143.994 72.2225 143.904 71.8475 143.904 71.4225C143.904 70.9975 143.997 70.6225 144.182 70.2975C144.372 69.9725 144.629 69.7225 144.954 69.5475C145.279 69.3675 145.642 69.2775 146.042 69.2775C146.442 69.2775 146.804 69.3675 147.129 69.5475C147.454 69.7225 147.709 69.9725 147.894 70.2975C148.084 70.6225 148.179 70.9975 148.179 71.4225C148.179 71.8475 148.082 72.2225 147.887 72.5475C147.697 72.8725 147.437 73.125 147.107 73.305C146.782 73.48 146.417 73.5675 146.012 73.5675ZM146.012 72.6525C146.202 72.6525 146.379 72.6075 146.544 72.5175C146.714 72.4225 146.849 72.2825 146.949 72.0975C147.049 71.9125 147.099 71.6875 147.099 71.4225C147.099 71.0275 146.994 70.725 146.784 70.515C146.579 70.3 146.327 70.1925 146.027 70.1925C145.727 70.1925 145.474 70.3 145.269 70.515C145.069 70.725 144.969 71.0275 144.969 71.4225C144.969 71.8175 145.067 72.1225 145.262 72.3375C145.462 72.5475 145.712 72.6525 146.012 72.6525ZM150.854 70.2075H150.127V73.5H149.062V70.2075H148.589V69.345H149.062V69.135C149.062 68.625 149.207 68.25 149.497 68.01C149.787 67.77 150.224 67.6575 150.809 67.6725V68.5575C150.554 68.5525 150.377 68.595 150.277 68.685C150.177 68.775 150.127 68.9375 150.127 69.1725V69.345H150.854V70.2075ZM159.029 68.265V73.5H157.979V70.095L156.577 73.5H155.782L154.372 70.095V73.5H153.322V68.265H154.514L156.179 72.1575L157.844 68.265H159.029ZM160.6 68.85C160.415 68.85 160.26 68.7925 160.135 68.6775C160.015 68.5575 159.955 68.41 159.955 68.235C159.955 68.06 160.015 67.915 160.135 67.8C160.26 67.68 160.415 67.62 160.6 67.62C160.785 67.62 160.938 67.68 161.058 67.8C161.183 67.915 161.245 68.06 161.245 68.235C161.245 68.41 161.183 68.5575 161.058 68.6775C160.938 68.7925 160.785 68.85 160.6 68.85ZM161.118 69.345V73.5H160.068V69.345H161.118ZM164.457 69.285C164.952 69.285 165.352 69.4425 165.657 69.7575C165.962 70.0675 166.115 70.5025 166.115 71.0625V73.5H165.065V71.205C165.065 70.875 164.982 70.6225 164.817 70.4475C164.652 70.2675 164.427 70.1775 164.142 70.1775C163.852 70.1775 163.622 70.2675 163.452 70.4475C163.287 70.6225 163.205 70.875 163.205 71.205V73.5H162.155V69.345H163.205V69.8625C163.345 69.6825 163.522 69.5425 163.737 69.4425C163.957 69.3375 164.197 69.285 164.457 69.285ZM166.843 71.4075C166.843 70.9875 166.926 70.615 167.091 70.29C167.261 69.965 167.491 69.715 167.781 69.54C168.071 69.365 168.393 69.2775 168.748 69.2775C169.018 69.2775 169.276 69.3375 169.521 69.4575C169.766 69.5725 169.961 69.7275 170.106 69.9225V67.95H171.171V73.5H170.106V72.885C169.976 73.09 169.793 73.255 169.558 73.38C169.323 73.505 169.051 73.5675 168.741 73.5675C168.391 73.5675 168.071 73.4775 167.781 73.2975C167.491 73.1175 167.261 72.865 167.091 72.54C166.926 72.21 166.843 71.8325 166.843 71.4075ZM170.113 71.4225C170.113 71.1675 170.063 70.95 169.963 70.77C169.863 70.585 169.728 70.445 169.558 70.35C169.388 70.25 169.206 70.2 169.011 70.2C168.816 70.2 168.636 70.2475 168.471 70.3425C168.306 70.4375 168.171 70.5775 168.066 70.7625C167.966 70.9425 167.916 71.1575 167.916 71.4075C167.916 71.6575 167.966 71.8775 168.066 72.0675C168.171 72.2525 168.306 72.395 168.471 72.495C168.641 72.595 168.821 72.645 169.011 72.645C169.206 72.645 169.388 72.5975 169.558 72.5025C169.728 72.4025 169.863 72.2625 169.963 72.0825C170.063 71.8975 170.113 71.6775 170.113 71.4225Z" fill="#26676F"/>
<path d="M62.022 83.2825C62.022 82.936 62.1455 82.639 62.3925 82.392C62.6395 82.145 62.936 82.0215 63.283 82.0215C63.6295 82.0215 63.9265 82.145 64.1735 82.392C64.42 82.639 64.5435 82.936 64.5435 83.2825C64.5435 83.6295 64.42 83.926 64.1735 84.173C63.9265 84.42 63.6295 84.5435 63.283 84.5435C62.936 84.5435 62.6395 84.42 62.3925 84.173C62.1455 83.926 62.022 83.6295 62.022 83.2825ZM59.5 83.2825C59.5 82.232 59.868 81.339 60.6035 80.6035C61.339 79.868 62.232 79.5 63.283 79.5C64.3335 79.5 65.2265 79.868 65.962 80.6035C66.6975 81.339 67.0655 82.232 67.0655 83.2825C67.0655 83.9865 66.892 84.625 66.5455 85.1975C66.1985 85.77 65.7415 86.2245 65.174 86.561V92.1085L63.283 94L60.446 91.163L61.3915 89.902L60.446 88.6415L61.3915 87.3015V86.561C60.824 86.2245 60.367 85.77 60.0205 85.1975C59.6735 84.625 59.5 83.9865 59.5 83.2825ZM60.761 83.2825C60.761 83.871 60.9395 84.3885 61.297 84.835C61.654 85.2815 62.106 85.5785 62.6525 85.7255V87.6955L62.006 88.61L62.9675 89.902L62.101 91.021L63.283 92.2035L63.9135 91.573V85.7255C64.4595 85.5785 64.9115 85.2815 65.2685 84.835C65.626 84.3885 65.8045 83.871 65.8045 83.2825C65.8045 82.589 65.5575 81.9955 65.064 81.5015C64.57 81.008 63.9765 80.761 63.283 80.761C62.5895 80.761 61.9955 81.008 61.502 81.5015C61.008 81.9955 60.761 82.589 60.761 83.2825Z" fill="#6F7E90"/>
<defs>
<filter id="filter0_d_711_794" x="7.95554" y="4.31836" width="108.5" height="117.091" filterUnits="userSpaceOnUse" color-interpolation-filters="sRGB">
<feFlood flood-opacity="0" result="BackgroundImageFix"/>
<feColorMatrix in="SourceAlpha" type="matrix" values="0 0 0 0 0 0 0 0 0 0 0 0 0 0 0 0 0 0 127 0" result="hardAlpha"/>
<feOffset/>
<feGaussianBlur stdDeviation="2"/>
<feComposite in2="hardAlpha" operator="out"/>
<feColorMatrix type="matrix" values="0 0 0 0 0 0 0 0 0 0 0 0 0 0 0 0 0 0 0.25 0"/>
<feBlend mode="normal" in2="BackgroundImageFix" result="effect1_dropShadow_711_794"/>
<feBlend mode="normal" in="SourceGraphic" in2="effect1_dropShadow_711_794" result="shape"/>
</filter>
<filter id="filter1_d_711_794" x="11.9555" y="8.3623" width="50.4514" height="32.25" filterUnits="userSpaceOnUse" color-interpolation-filters="sRGB">
<feFlood flood-opacity="0" result="BackgroundImageFix"/>
<feColorMatrix in="SourceAlpha" type="matrix" values="0 0 0 0 0 0 0 0 0 0 0 0 0 0 0 0 0 0 127 0" result="hardAlpha"/>
<feOffset dy="2"/>
<feComposite in2="hardAlpha" operator="out"/>
<feColorMatrix type="matrix" values="0 0 0 0 0 0 0 0 0 0 0 0 0 0 0 0 0 0 0.25 0"/>
<feBlend mode="normal" in2="BackgroundImageFix" result="effect1_dropShadow_711_794"/>
<feBlend mode="normal" in="SourceGraphic" in2="effect1_dropShadow_711_794" result="shape"/>
</filter>
<filter id="filter2_d_711_794" x="62.25" y="8.31836" width="50.2055" height="28.0452" filterUnits="userSpaceOnUse" color-interpolation-filters="sRGB">
<feFlood flood-opacity="0" result="BackgroundImageFix"/>
<feColorMatrix in="SourceAlpha" type="matrix" values="0 0 0 0 0 0 0 0 0 0 0 0 0 0 0 0 0 0 127 0" result="hardAlpha"/>
<feOffset dy="2"/>
<feComposite in2="hardAlpha" operator="out"/>
<feColorMatrix type="matrix" values="0 0 0 0 0 0 0 0 0 0 0 0 0 0 0 0 0 0 0.25 0"/>
<feBlend mode="normal" in2="BackgroundImageFix" result="effect1_dropShadow_711_794"/>
<feBlend mode="normal" in="SourceGraphic" in2="effect1_dropShadow_711_794" result="shape"/>
</filter>
<linearGradient id="paint0_linear_711_794" x1="37.1813" y1="21.4483" x2="40.9639" y2="28.74" gradientUnits="userSpaceOnUse">
<stop stop-color="#48C5D5"/>
<stop offset="1" stop-color="#26676F"/>
</linearGradient>
<linearGradient id="paint1_linear_711_794" x1="90.6265" y1="17.1818" x2="79.8265" y2="30.9029" gradientUnits="userSpaceOnUse">
<stop stop-color="#48C5D5"/>
<stop offset="1" stop-color="#26676F"/>
</linearGradient>
<linearGradient id="paint2_linear_711_794" x1="77.946" y1="108.432" x2="71.7075" y2="97.7725" gradientUnits="userSpaceOnUse">
<stop stop-color="#48C5D5"/>
<stop offset="1" stop-color="#26676F"/>
</linearGradient>
<linearGradient id="paint3_linear_711_794" x1="28.2359" y1="82.518" x2="44.7291" y2="70.6745" gradientUnits="userSpaceOnUse">
<stop stop-color="#48C5D5"/>
<stop offset="1" stop-color="#26676F"/>
</linearGradient>
</defs>
</svg>
