<svg width="124" height="124" viewBox="0 0 124 124" fill="none" xmlns="http://www.w3.org/2000/svg">
<path d="M53.32 90.52L97.03 46.81L88.35 38.13L53.32 73.16L35.65 55.49L26.97 64.17L53.32 90.52ZM62 124C53.4233 124 45.3633 122.372 37.82 119.118C30.2767 115.863 23.715 111.445 18.135 105.865C12.555 100.285 8.1375 93.7233 4.8825 86.18C1.6275 78.6367 0 70.5767 0 62C0 53.4233 1.6275 45.3633 4.8825 37.82C8.1375 30.2767 12.555 23.715 18.135 18.135C23.715 12.555 30.2767 8.1375 37.82 4.8825C45.3633 1.6275 53.4233 0 62 0C70.5767 0 78.6367 1.6275 86.18 4.8825C93.7233 8.1375 100.285 12.555 105.865 18.135C111.445 23.715 115.863 30.2767 119.118 37.82C122.372 45.3633 124 53.4233 124 62C124 70.5767 122.372 78.6367 119.118 86.18C115.863 93.7233 111.445 100.285 105.865 105.865C100.285 111.445 93.7233 115.863 86.18 119.118C78.6367 122.372 70.5767 124 62 124Z" fill="#2BCD7F"/>
</svg>
