<svg width="150" height="150" viewBox="0 0 150 150" fill="none" xmlns="http://www.w3.org/2000/svg">
<path d="M68.4375 112.5L103.75 77.1875L94.6875 68.125L68.2812 94.5312L55.1562 81.4062L46.25 90.3125L68.4375 112.5ZM37.5 137.5C34.0625 137.5 31.1198 136.276 28.6719 133.828C26.224 131.38 25 128.438 25 125V25C25 21.5625 26.224 18.6198 28.6719 16.1719C31.1198 13.724 34.0625 12.5 37.5 12.5H87.5L125 50V125C125 128.438 123.776 131.38 121.328 133.828C118.88 136.276 115.938 137.5 112.5 137.5H37.5ZM81.25 56.25V25H37.5V125H112.5V56.25H81.25Z" fill="url(#paint0_linear_660_3212)"/>
<defs>
<linearGradient id="paint0_linear_660_3212" x1="75" y1="12.5" x2="75" y2="137.5" gradientUnits="userSpaceOnUse">
<stop stop-color="#3AA1B6"/>
<stop offset="1" stop-color="#194750"/>
</linearGradient>
</defs>
</svg>
