<svg width="150" height="150" viewBox="0 0 150 150" fill="none" xmlns="http://www.w3.org/2000/svg">
<path d="M6.25 125V107.5C6.25 103.958 7.16146 100.703 8.98438 97.7344C10.8073 94.7656 13.2292 92.5 16.25 90.9375C22.7083 87.7083 29.2708 85.2865 35.9375 83.6719C42.6042 82.0573 49.375 81.25 56.25 81.25C63.125 81.25 69.8958 82.0573 76.5625 83.6719C83.2292 85.2865 89.7917 87.7083 96.25 90.9375C99.2708 92.5 101.693 94.7656 103.516 97.7344C105.339 100.703 106.25 103.958 106.25 107.5V125H6.25ZM118.75 125V106.25C118.75 101.667 117.474 97.2656 114.922 93.0469C112.37 88.8281 108.75 85.2083 104.062 82.1875C109.375 82.8125 114.375 83.8802 119.062 85.3906C123.75 86.901 128.125 88.75 132.188 90.9375C135.938 93.0208 138.802 95.3385 140.781 97.8906C142.76 100.443 143.75 103.229 143.75 106.25V125H118.75ZM56.25 75C49.375 75 43.4896 72.5521 38.5938 67.6562C33.6979 62.7604 31.25 56.875 31.25 50C31.25 43.125 33.6979 37.2396 38.5938 32.3438C43.4896 27.4479 49.375 25 56.25 25C63.125 25 69.0104 27.4479 73.9062 32.3438C78.8021 37.2396 81.25 43.125 81.25 50C81.25 56.875 78.8021 62.7604 73.9062 67.6562C69.0104 72.5521 63.125 75 56.25 75ZM118.75 50C118.75 56.875 116.302 62.7604 111.406 67.6562C106.51 72.5521 100.625 75 93.75 75C92.6042 75 91.1458 74.8698 89.375 74.6094C87.6042 74.349 86.1458 74.0625 85 73.75C87.8125 70.4167 89.974 66.7188 91.4844 62.6562C92.9948 58.5938 93.75 54.375 93.75 50C93.75 45.625 92.9948 41.4062 91.4844 37.3438C89.974 33.2812 87.8125 29.5833 85 26.25C86.4583 25.7292 87.9167 25.3906 89.375 25.2344C90.8333 25.0781 92.2917 25 93.75 25C100.625 25 106.51 27.4479 111.406 32.3438C116.302 37.2396 118.75 43.125 118.75 50ZM18.75 112.5H93.75V107.5C93.75 106.354 93.4635 105.312 92.8906 104.375C92.3177 103.438 91.5625 102.708 90.625 102.188C85 99.375 79.3229 97.2656 73.5938 95.8594C67.8646 94.4531 62.0833 93.75 56.25 93.75C50.4167 93.75 44.6354 94.4531 38.9062 95.8594C33.1771 97.2656 27.5 99.375 21.875 102.188C20.9375 102.708 20.1823 103.438 19.6094 104.375C19.0365 105.312 18.75 106.354 18.75 107.5V112.5ZM56.25 62.5C59.6875 62.5 62.6302 61.276 65.0781 58.8281C67.526 56.3802 68.75 53.4375 68.75 50C68.75 46.5625 67.526 43.6198 65.0781 41.1719C62.6302 38.724 59.6875 37.5 56.25 37.5C52.8125 37.5 49.8698 38.724 47.4219 41.1719C44.974 43.6198 43.75 46.5625 43.75 50C43.75 53.4375 44.974 56.3802 47.4219 58.8281C49.8698 61.276 52.8125 62.5 56.25 62.5Z" fill="url(#paint0_linear_660_3194)"/>
<defs>
<linearGradient id="paint0_linear_660_3194" x1="75" y1="25" x2="75" y2="125" gradientUnits="userSpaceOnUse">
<stop stop-color="#3AA1B6"/>
<stop offset="1" stop-color="#194750"/>
</linearGradient>
</defs>
</svg>
